<svg xmlns="http://www.w3.org/2000/svg"
width="100%" viewBox="0 240 1536 700">
<path fill="#D1712A" d="M97,901.4 C93.6,901.5 90.1,901.7 86.6,901.7 C58.4,901.8 30.2,901.8 1.5,901.9 C1,894 1,886 1,877.5 C27.1,877.1 53.2,877.2 79.3,877.2 C92.6,877.3 105.9,877.2 120.1,877.1 C128,877 135,877 142,877.4 C143.5,885.1 144.9,892.3 146.5,900 C144.6,900 143,900 141.3,900 C128.2,900 115,900 101.9,900.1 C100.3,900.1 98.7,900.9 97,901.4 z"/>
<path fill="#D1712A" d="M1537,901.5 C1514.4,901.9 1491.9,901.8 1469.3,901.7 C1464.5,901.7 1459.7,901.7 1454.2,901.2 C1453,900.5 1452.4,900.1 1451.8,900 C1440.5,900 1429.2,900 1417.9,900.1 C1416.9,900.1 1416,900.9 1415,901.4 C1414.6,901.5 1414.1,901.6 1413.1,901.2 C1408.2,900.3 1403.7,899.9 1399.6,899.5 C1401.5,891.7 1403.2,884.4 1405.2,877 C1405.7,877 1405.8,877 1406.5,877 C1413.9,877 1420.9,877 1427.9,877 C1464,877.1 1500,877.1 1536.5,877.1 C1537,885 1537,893 1537,901.5 z"/>
<path fill="#2C251F" d="M341.5,648.5 C329.4,661.4 323.8,677 323.6,694.7 C323.2,694.7 322.8,694.7 322.4,694.7 C321.3,691.4 320.1,688.1 319.1,684.8 C312.3,660.8 317.7,638.5 328.2,616.8 C329.1,615.1 329.9,613.1 329.8,611.2 C329.7,589.9 335.1,570.2 346.9,551.7 C347.4,551 347.6,550.8 347.9,550.2 C348,549.4 347.9,549 347.9,548.9 C348.3,548.9 348.5,548.7 348.7,548.4 C348.4,548.5 348.1,548.6 347.6,548.9 C347.3,549.3 347.1,549.6 346.6,549.9 C346.1,550.2 345.9,550.4 345.7,550.7 C325.5,566.2 314.5,586.8 312.1,613.5 C306.7,603.9 303.5,594.9 302.1,585.4 C297.9,559 304.1,534.6 316.4,511.4 C325.3,494.6 337.3,480.3 351.7,467.9 C352.5,467.1 353.6,466.8 353.9,465.5 C330.8,474.3 313.6,489.7 302.7,512 C302.3,511.8 301.9,511.6 301.5,511.3 C303.2,504.5 304.4,497.5 306.7,490.8 C315.6,464.2 332.7,443.6 354.3,426.4 C368.4,415.1 383.5,405.5 399.9,398 C411.8,392.5 423.9,387.3 434.9,382.3 C423.3,380.4 389.1,385.8 369.4,400.2 C371.2,397.1 372.8,393.8 374.8,390.8 C386.5,373.4 401.8,359.8 419.1,348.2 C447.5,329.3 479,318.9 512.7,315.3 C529.1,313.5 545.5,313.3 561.9,315.8 C563.4,316.1 565,315.9 567,315.9 C550.1,304.7 523,301.4 487.2,305.8 C489.8,302.9 492.6,299.8 496.1,296.6 C500,295 503.3,293.5 506.6,292.1 C510.1,291 513.6,290.2 517.1,289 C549.7,277.5 583.1,274.3 617.3,279.3 C632.2,281.4 647.1,283.8 662.3,285.1 C651,281.6 639.7,278.2 628,274.6 C641.8,264.3 657,257.6 673,253.3 C717.8,241.1 760,249.4 800.3,270.7 C820.8,281.5 838.7,295.7 853.6,314.3 C854.2,315.1 854.4,315.4 854.7,315.7 C854.7,315 854.7,314.2 854.6,313.5 C846.5,292.7 832.3,276.9 813.6,265.6 C802.5,258.8 790,254.4 778.1,248.9 C777.3,248.6 776.6,248.3 775.6,247.8 C787.7,245.8 823.6,258.8 840.7,271.3 C860,285.3 873.9,303.4 882,327 C892,311.4 904.3,298.9 921.2,291.8 C938.2,284.8 955.3,283.7 972.5,291.9 C965,291.9 957.4,291 950,292.1 C928.2,295.4 911.7,306.9 900.9,326.1 C900.9,326 900.6,326 900.4,326 C900.7,326.2 901,326.4 901.3,326.6 C909.9,318.1 920.6,313.1 931.7,309.3 C973.3,294.8 1020.8,309.1 1047.8,343.9 C1050.5,347.5 1052.8,351.3 1055.6,354.8 C1056.5,355.9 1058.1,356.9 1059.5,357.1 C1082,361.4 1100,373.3 1115,390.6 C1114.9,391.1 1114.6,391.5 1114.6,391.5 C1100.9,382.4 1086.5,375.1 1070,372.4 C1060.3,370.9 1050.6,370.3 1040.9,372.2 C1092.3,380.5 1130,407.2 1151.9,455 C1141.7,448.7 1132.1,441.4 1119.4,440.2 C1158.4,464.1 1184.8,496.2 1187.8,543.8 C1179.7,529.8 1170,517.4 1155.3,508.5 C1154,508.2 1153.2,508.3 1152.6,508.2 C1152.7,508 1152.8,507.9 1152.9,507.9 C1152.7,508 1152.6,508.2 1152.7,508.5 C1153.4,508.9 1153.8,509.2 1154.2,509.6 C1160.2,520.1 1167.2,530.2 1171.9,541.2 C1184,569.1 1188.3,598.2 1182.7,628.4 C1182.4,630.3 1181.7,632.1 1180.6,634.1 C1176.5,617.9 1169.8,603.4 1155.3,592.4 C1163.6,614 1166.6,635.4 1164.2,658.5 C1159,649.5 1154.3,641.4 1149.2,632.8 C1148.6,632.6 1148.5,632.8 1148.4,633 C1148.5,633.1 1148.7,633.2 1148.8,633.1 C1148.9,632.9 1149.1,632.7 1149.2,632.5 C1149.4,635.8 1149.4,639.1 1149.8,642.4 C1151.4,655.5 1154.9,668.8 1154.3,681.8 C1153.2,704.7 1152.7,727.8 1146.6,750.2 C1145.1,755.5 1144.2,760.9 1142.8,766.9 C1133.9,772.6 1125.8,778.7 1122.5,788.5 C1116.3,806.5 1113.2,825.3 1110.7,844.2 C1110.8,844.3 1110.9,844.4 1110.6,844.7 C1109.9,848 1109.5,851 1109,854.4 C1108.8,855.4 1108.8,856.2 1108.6,857.3 C1108.5,858.9 1108.5,860 1108.4,861.4 C1107.3,862.4 1106.5,863.1 1105.7,863.8 C1105.3,863.7 1104.8,863.5 1104.3,863.4 C1108.6,855.5 1106.5,849 1100.5,843.3 C1099.4,844.1 1098.4,844.7 1096.9,845.7 C1096.4,841 1096,836.7 1095.4,832.5 C1092.6,811.9 1090,791.3 1086.9,770.8 C1083.7,749.9 1079.9,729.1 1076.3,708 C1075.8,701.2 1072.8,695.9 1069,691.1 C1060.1,679.9 1051.1,668.8 1042.2,657.5 C1036.9,650.7 1031.9,643.6 1026.7,636.6 C1027.3,636.1 1027.8,635.6 1028.3,635.1 C1035.2,640.1 1042.1,645 1049.1,650.3 C1049.4,650.4 1049.6,650.4 1049.9,650.3 C1049.7,650.1 1049.5,649.9 1049.3,649.3 C1041.9,638.8 1034.6,628.6 1026.4,617.1 C1032.1,618.8 1036.3,620.2 1040.5,621.5 C1029.8,607.6 1019.2,593.8 1008.6,580.1 C1009.1,579.5 1009.7,579 1010.2,578.5 C1017,582.8 1023.8,587.1 1030.8,591.6 C1031.3,591.9 1031.7,591.9 1032,592.1 C1032.1,592.2 1032.2,592.2 1032.3,592.2 C1032.2,592.1 1032.1,592.1 1032,591.8 C1031.7,591.3 1031.4,591.1 1031.1,590.5 C1022.2,579.5 1013.3,569.1 1000.3,563.1 C998.1,562.1 996.5,559.7 994.7,558 C994.9,557.7 995.1,557.4 995.3,557.1 C997.4,557.4 999.4,557.7 1001.5,557.9 C1001.6,557.5 1001.7,557 1001.8,556.6 C989.4,552 977,547.3 963.7,542.4 C969.6,540.8 974.6,539.5 980.1,538 C968.1,534.9 962.2,534.9 947.5,537.9 C941,537.9 935,537.9 928.9,537.9 C928.6,537.4 928.4,536.9 928.1,536.3 C931.9,532 935.8,527.6 940.2,522.7 C917.4,528.1 895.6,535.3 872.3,530.3 C883.2,524.1 893.7,518.1 904.4,512 C904.6,511.7 904.6,511.5 904.6,511.2 C904.3,511.3 903.9,511.4 903.2,511.6 C898.4,512.1 894.1,512.7 889.7,513.1 C886.9,513.4 887.4,511.8 888.4,510 C888.6,509.6 888.6,509.4 888.6,509.2 C888.2,509.3 887.9,509.4 887.2,509.5 C868.4,519.1 848.9,525.6 828.3,528.8 C837.2,518.6 846.1,508.8 849.7,495.2 C849.8,494.8 849.8,494.5 849.7,494.2 C849.4,494.4 849.1,494.6 848.5,495 C824.4,518.3 797.3,535.2 763.2,541.6 C770.3,523.7 772.2,506.6 767.6,489.1 C767.5,519.4 735,552.8 719.8,553.5 C718.8,547.6 717.8,541.7 716.8,535.2 C708.3,549.5 698.4,558.1 686.4,562.1 C671.5,567 656.2,569.1 640.8,566.1 C624.5,562.8 608.4,558.5 592.1,554.5 C591.3,554.2 590.8,554.1 589.3,553.9 C590.6,554.8 591.1,555.2 591.8,555.7 C600.6,561.4 609.1,566.9 618.3,572.8 C616.3,572.9 615.1,573 613.6,573 C595.4,569.6 552.1,570.7 546.5,574.4 C558.7,576.5 571.1,578.5 583.5,580.6 C580.3,582.2 577.3,582.4 574.4,583.1 C551,588.8 529.3,598.5 510.2,613.5 C505.6,617.1 501.3,621.4 497.6,626 C492.4,632.2 487.9,639 483.2,645.6 C483,646 483.1,646.6 482.8,647 C482.3,647.2 482.1,647.4 481.9,647.7 C482.3,647.5 482.6,647.2 483.4,647 C486.3,645.8 489,644.7 491.3,643.7 C486.6,652.5 482.1,661 477.3,669.7 C476.9,670.1 476.8,670.4 476.5,670.9 C476.3,671.3 476.3,671.5 476.4,671.8 C476.6,671.6 476.9,671.4 477.4,671.1 C477.9,670.8 478.1,670.5 478.4,670 C483.5,665.2 488.2,660.6 493.5,655.4 C488.7,677.1 484.2,697.6 479.7,718.2 C480,718.3 480.3,718.4 480.5,718.5 C484.3,713.8 488.1,709.2 491.9,704.6 C492.3,704.8 492.7,705 493.1,705.3 C492.1,709.1 491.5,713 490.2,716.7 C484.9,732 479.3,747.1 473.9,762.3 C470.7,771.6 468,781 469.1,791.1 C470.9,806.9 472.3,822.8 474.1,838.6 C475.1,847.1 476.6,855.6 477.9,864.5 C478.3,869 478.7,873 478.6,877.1 C471.1,877.1 464,877 456.8,876.7 C454.9,871.9 453.2,867.4 451.1,863.1 C447,854.3 444,844.3 432.6,841.7 C432.4,841.6 432.2,841.3 431.9,841 C429.3,834.1 427.9,826.2 423.7,820.3 C416.1,809.7 416.7,796.7 411.3,785.6 C410.4,787.2 409.3,789 407.7,791.8 C403.4,778.7 401.7,765.9 400.3,751.9 C398.7,754.8 397.8,756.5 396.8,758.2 C396.4,758.2 396.1,758.1 395.7,758.1 C395.7,746.9 395.7,735.7 395.7,724.5 C388.5,736.5 390.1,749.3 390.7,762.1 C384.8,754.7 386.5,746 385.8,737.7 C385.2,729.2 384.1,720.7 382.2,712.1 C381.4,718.1 380.6,724.2 379.8,730.3 C374.2,715.1 373.8,699.3 374,683.5 C366.4,690.1 359,709.8 358.8,732.4 C343.8,719.8 333,683.4 342.5,649.5 C342.7,648.5 342.7,648.1 342.7,647.6 C342.3,647.9 341.9,648.2 341.5,648.5 M380.7,614.9 C386.2,612.5 391.7,610.1 397.1,607.6 C397.5,608.1 397.8,608.5 398.1,609 C393.2,617.6 388.3,626.2 382.9,635.6 C385.4,635.8 386.4,636.1 386.9,635.8 C391.6,632.3 397.3,629.4 400.8,624.9 C409.6,613.5 421.8,606.6 433.9,600.2 C445.1,594.3 457.5,590.8 469.4,586.2 C467.8,581.9 472.6,577.3 488.1,567.9 C473.6,568.5 458.1,569.1 442.6,569.7 C442.4,569.2 442.3,568.8 442.2,568.4 C453.2,561.6 464.4,554.9 475.3,548 C477.6,546.6 479.4,544.4 482.2,541.9 C474.2,539.7 469,547.3 462.1,544.2 C472.2,535.7 484,532.7 495.8,529.2 C511.3,524.5 526.8,521.2 543.2,521.8 C551.7,522.1 560.3,520.5 568.9,519.7 C569.1,519.7 569.3,519.3 569.8,518.7 C546.1,503.3 521,493 491.5,493.9 C496.3,484.4 504.6,483.5 512.3,482.1 C519.9,480.7 527.7,480.1 535.7,479.1 C528.1,475.8 521.1,471.9 513.6,469.6 C506,467.2 497.9,466.4 490,465 C486.9,464.4 483.7,463.9 480.6,463.4 C507.6,460.8 534.4,456.7 562,460.7 C550.5,449.8 536.7,445.5 522.3,442 C525.5,440.6 528.4,439.6 531.4,439 C538.1,437.9 544.9,437.3 551.5,436 C558.9,434.7 566.1,434.9 572.9,437.9 C582.8,442.3 592.5,447.1 602.2,451.8 C605.9,453.5 609.5,455.2 613.2,457 C613.5,456.5 613.8,456 614.2,455.6 C611.9,453.7 609.6,451.8 607.3,450 C604.6,447.7 601.3,445.9 599.2,443.1 C592.5,434.1 585.1,425.9 574.8,421.1 C567.7,417.7 560.2,415.1 552.8,412.5 C549.5,411.4 545.9,411.4 542.4,410.8 C542.6,410.2 542.7,409.5 542.8,408.8 C547,409.5 551.2,410.1 555.3,410.7 C534.7,401.6 513.8,397.9 491.4,401.7 C465.8,406 435.7,418.2 431.9,424.5 C436.6,423.9 441.5,423.4 446.3,422.8 C446.4,423.4 446.6,423.9 446.7,424.5 C436.6,428.9 426.4,433.3 416.3,437.6 C416.5,438 416.6,438.3 416.7,438.6 C422.6,437.9 428.5,437.1 435.7,436.2 C433.4,438.8 431.9,440.6 430.4,442.3 C430.6,442.7 430.7,443.1 430.9,443.5 C446.4,438.2 461.9,433.1 478.4,434 C451.6,444.8 422.7,450.3 397.2,464.5 C397.4,465 397.5,465.4 397.7,465.8 C400.5,464.6 403.4,463.4 406.3,462.2 C406.5,462.6 406.8,463.1 407.1,463.5 C397.1,467 390,474.1 383.9,483.8 C385.1,490 374.4,492 374.2,500 C377.2,498.9 379.5,498.1 381.8,497.2 C386.7,495.1 391.3,493.7 393.7,501.3 C388.2,503 381.7,503.6 379.9,511 C385.8,508.6 393.4,506.7 396.5,502 C399.7,497.2 403.4,497.3 407.4,496.2 C410.9,495.2 414.5,494.6 418.1,494.2 C424.5,493.5 431,493.2 437.4,492.7 C437.6,493.4 437.8,494.1 438,494.8 C433.2,497.7 428.4,500.7 423.6,503.7 C424.4,504.6 425.5,505.9 426.9,507.5 C419.6,512.3 412.9,517.6 405.5,521.6 C392.5,528.6 381.5,537.7 373,549.9 C371.1,552.7 369.1,555.3 367.5,557.5 C378.7,556.1 389.9,555.1 400.9,553 C411.8,551 422.5,547.8 433.3,545.2 C429.5,549.7 425.5,553.3 421.5,557 C418.5,559.8 416,563.8 412.5,565.4 C406.5,568 399.9,569.4 393.5,570.9 C389.1,571.9 387.5,573.7 387.8,578.1 C390.4,578.5 392.9,578.8 395.4,579.1 C394.4,581.4 393.6,583.7 392.6,586 C388.4,595.7 384.2,605.3 379.7,615.1 C379.8,615.1 379.9,615 380.7,614.9 M753,320.5 C743.7,312.3 732.7,307.3 721.4,302.7 C726,308.7 731.9,313.7 734.5,322.6 C718.3,312.3 703.2,302.7 685.3,300.4 C667.7,298.2 650.3,300 633.3,305.9 C636.5,308.7 639.6,311.3 643.1,312.8 C654.1,317.5 665.4,321.2 676.2,326.3 C684.8,330.3 693.1,335.4 701.1,340.7 C711.2,347.3 721.7,353.6 730.7,361.6 C745.3,374.6 758,389.8 767.9,406.8 C773.5,416.3 776.9,427 781.1,437.2 C783.1,442.1 783.6,447.9 786.6,452 C789.2,455.4 789.7,458.6 790,462.3 C790.4,466.7 791,471.1 791.5,475.6 C793.6,473.1 794.7,470.6 796.1,468.3 C797.1,466.6 799.3,465.5 799.8,463.8 C802.4,454 805.3,444.3 806.7,434.4 C808,424.8 807.7,415 807.9,405.3 C808,402.4 807.3,399.5 807,396.6 C807.7,396.5 808.4,396.4 809,396.3 C812.5,408.4 815.9,420.6 819.4,432.7 C819.8,432.7 820.3,432.6 820.8,432.6 C822.2,427.2 823.5,421.9 825.2,415.3 C826.2,421.1 826.9,425.5 827.6,429.9 C828.3,429.8 829,429.8 829.7,429.7 C829.1,413.6 829.2,397.5 825.7,381.5 C840.2,400.8 847.6,422.4 847.2,446.6 C847.6,446.6 848.1,446.6 848.5,446.6 C850.2,441.6 851.9,436.5 853.6,431.3 C855.2,431.9 856.7,432.4 858,432.9 C864.6,424.4 861.7,414 864,405.1 C862.6,403.2 861.4,401.1 861.1,399 C859.7,390.2 858.6,381.3 857.4,372.4 C856.6,372.5 855.9,372.5 855.1,372.6 C856.4,381.9 859.3,391.5 853.5,400.4 C852,390.5 851,380.6 850,370.7 C849.8,368.7 850.1,366.5 849.3,364.9 C845.2,357.2 841.2,349.6 836.5,342.4 C833.3,337.5 829.1,333.3 824.5,327.8 C822.2,334.7 827.5,338 828.5,343.3 C824.5,341.7 820.6,341 817.6,338.9 C810.4,334 800.9,331.4 797.7,321.7 C797.5,321 796.6,320.5 795.9,320.2 C791.8,318.2 789,312.5 789.8,306.9 C793.2,309.2 796.3,311.6 799.7,313.3 C803.1,314.9 806.8,315.6 810.3,316.8 C799.8,304.4 755.6,284.5 746.7,289.6 C750.1,290.8 753,291.8 755.8,293 C757.6,293.8 759.6,294.5 761,295.7 C767.3,301 773.2,306.8 779.8,311.8 C794.4,322.7 804.7,336.8 811.2,353.7 C812.3,356.4 812.3,359.5 812.8,362.4 C801,349.2 788.9,337.4 772.4,330 C773.4,333.9 774.2,337.2 775.1,340.5 C774.4,340.8 773.7,341.2 773.1,341.6 C766.5,334.7 760,327.9 753,320.5 M646.6,347.8 C639.1,344.7 631.6,341.5 624.1,338.3 C623.8,338.9 623.5,339.4 623.3,339.9 C635.8,351.1 648.6,362.1 657.6,378.1 C646.1,372.8 636.2,367.5 625.8,363.6 C615.4,359.7 605.2,354.5 592.7,354.2 C595,356.2 596.5,357.5 597.9,358.7 C597.7,359.4 597.5,360.1 597.2,360.7 C579.2,354 560.7,351.1 541.7,350.9 C522.5,350.7 504.5,356 486.6,361.6 C502.5,364.2 518.3,366.1 534,368.6 C549.8,371.1 565.4,374.9 580.2,382.4 C578.9,383.6 578.1,384.4 576.9,385.5 C585.1,388.8 592.9,391.8 598.5,398.3 C595.6,399 592.9,399 590.3,399 C581.9,398.7 573.4,398.5 565,397.9 C560.7,397.7 558.7,400.6 556.6,403.3 C556.2,403.9 557.2,406.6 558.1,406.9 C569.1,410.4 580.2,413.8 591.3,417 C602.2,420.1 613.2,422.6 622.2,430 C635.8,441.4 649.7,452.3 663.2,463.9 C668.5,468.4 672.5,474.1 674.1,481.3 C675,485.5 677,489.6 678.5,493.7 C678.9,493.5 679.3,493.4 679.7,493.3 C679.1,487.8 678.5,482.4 678,476.9 C678.5,476.6 679,476.4 679.5,476.1 C685.4,483.9 691.3,491.7 697.2,499.5 C693,481 686,463.8 675.1,448.1 C676.1,447.3 676.9,446.7 677.8,446.1 C677.8,445.6 677.8,445.2 677.8,444.7 C675.7,444.4 673.6,444.1 671.3,443.7 C672,442.2 672.6,440.8 673.4,439.4 C677,433 676.8,429.2 672,423.6 C661.3,411.1 649.8,399.4 636.4,389.6 C633,387.1 630,384.2 626.8,381.5 C627.1,381.1 627.3,380.6 627.6,380.2 C629.6,380.7 631.6,381.1 633.6,381.8 C647.1,386.2 658.7,393.7 668.9,403.4 C674.4,408.7 680.5,413.6 685.1,419.6 C692.2,428.8 698.3,438.9 704.9,448.6 C706.7,451.4 708.7,454.1 710.6,456.9 C711.1,456.8 711.5,456.6 712,456.5 C712,446.2 712,435.8 712,425.5 C712.5,425.4 713.1,425.3 713.6,425.2 C717.1,432.4 720.5,439.5 723.9,446.7 C724.6,445.3 724.5,444.3 724.1,443.3 C719.8,431.8 715.5,420.3 707.8,410.5 C700,400.6 693.5,389.6 684.8,380.7 C673.1,369 659.8,358.9 646.6,347.8 M939.9,475.5 C940.7,475.2 941.4,474.7 942.2,474.5 C961.6,469.6 981,464.5 1000.6,460.2 C1009.3,458.3 1018.5,457.5 1027.5,457.1 C1039.3,456.6 1051.1,457 1062.7,457 C1061.2,455.7 1059.1,454 1057.1,452.3 C1057.3,451.7 1057.5,451.2 1057.7,450.7 C1064.6,451.6 1071.6,452.6 1079.5,453.8 C1078.1,452 1077.6,451.1 1076.8,450.3 C1067,440.4 1055.3,433.5 1041.6,431.1 C1029.2,429 1016.6,428.3 1004.1,427 C1002.3,426.8 1000.4,427 998.5,427 C998.5,426.5 998.4,425.9 998.3,425.4 C1006,422.2 1013.7,419.1 1021.4,416 C1021.4,415.5 1021.3,415.1 1021.3,414.7 C1016.4,414.7 1011.5,414.7 1006.6,414.7 C1006.6,414.3 1006.6,413.8 1006.7,413.4 C1011.4,413 1016.1,412.3 1020.8,412.1 C1025.5,411.8 1030.4,412.3 1035.1,409.3 C1024.2,405 1013.9,400.9 1003.6,396.9 C1000.4,400.9 991.6,401.5 987.9,397 C991.7,396.4 995.1,395.9 998.5,395.4 C986.6,391.4 975,393 963.2,395.7 C965,394.2 966.9,392.6 968.7,391 C968.6,390.7 968.4,390.4 968.3,390 C965.7,390.2 963.1,390.3 959.7,390.5 C962.2,388.3 963.9,386.7 965.6,385 C965.5,384.5 965.3,383.9 965.1,383.3 C957.2,385.1 949.4,387 941.5,388.8 C945.1,381.9 950,376.5 953.1,370.1 C952.7,369.8 952.3,369.5 951.9,369.3 C947.2,372.1 942.5,375 937.8,377.9 C937.5,377.5 937.2,377.2 936.9,376.8 C938.2,375.1 939.3,373 941,371.7 C943.8,369.4 946.8,367.2 950,365.6 C953.7,363.8 957.8,363 961.5,361.3 C967.9,358.4 974.2,355.1 980.6,351.9 C983,350.7 985.4,349.6 988.6,348.1 C984.5,347.7 981.5,347.4 977.6,347 C967.5,353.5 955.8,358.9 941.7,360.9 C946.2,352.8 951.9,347.4 959.5,343.5 C955,343.5 950.8,344.1 946.6,345 C931.6,348.3 919,356.1 907.3,365.5 C904.6,367.6 901.2,372.1 901.8,374.5 C902.9,378.6 900.4,379.5 898.9,381.7 C896.1,385.7 893.5,389.8 890.8,393.8 C891.3,394.1 891.7,394.4 892.2,394.7 C895.9,390.8 897.8,384.6 905.4,384.2 C900.7,397.1 896.3,409.1 892,421.2 C892.3,421.6 892.7,422 893,422.4 C896.8,420.3 900.5,418.3 904.3,416.2 C904.7,416.5 905,416.8 905.4,417.1 C901.6,424.7 897.8,432.4 894,440.1 C895.5,440.8 896.6,441.3 897.8,441.9 C896.9,445 896.2,447.7 895.4,450.5 C895.7,450.7 896,450.9 896.2,451.2 C909.1,441.4 921.9,431.6 934.8,421.8 C935.1,422.1 935.4,422.4 935.8,422.8 C934.6,425 933.3,427.2 931.6,430.2 C933.8,430.2 935.4,430.6 936.7,430.2 C943.5,427.9 950.2,425.4 956.9,423.1 C958.4,422.6 960,422.5 961.5,422.3 C961.7,422.7 961.8,423.1 962,423.5 C955.3,430.6 945.1,434.8 942.4,446 C953.8,441.7 964.2,435.7 977.2,439.9 C956.9,450.9 938.2,462.9 923,480.9 C928.9,479 934,477.4 939.9,475.5 M1093.4,503.1 C1091.7,501.6 1090.1,500 1088.2,498.6 C1076,489.4 1061.1,487.4 1046.8,484 C1037.2,481.8 1027.3,480.6 1017.9,477.6 C1013.1,476.1 1008.6,474.7 1003.6,475 C998.3,475.3 992.9,475.3 987.7,476.2 C982.2,477.1 976.9,479 971.4,480.4 C971.5,480.8 971.6,481.2 971.6,481.6 C977.9,482.3 984.1,482.9 990.4,483.6 C990.4,484.1 990.5,484.6 990.6,485.1 C981.8,488.3 973.1,491.5 964.4,494.7 C983.8,493 1006.2,500.7 1008.6,508.4 C1001.6,507.9 994.7,507.4 987.8,506.8 C987.7,507.4 987.7,508 987.6,508.5 C990.2,508.9 992.7,509.2 995.3,509.6 C1006.5,511.7 1015.5,520.2 1027.2,521 C1028.9,521.1 1030.5,521.5 1032,522.2 C1034.1,523.1 1036,524.4 1037.9,525.5 C1037.7,525.8 1037.6,526.2 1037.4,526.6 C1028.8,527.2 1020.2,527.7 1011.6,528.3 C1016.5,530.5 1021.3,531.6 1026.2,532.6 C1032.7,533.8 1039.2,534.7 1045.7,536.1 C1049.4,536.9 1053.4,537.5 1056.5,539.5 C1064.2,544.4 1071.7,549.9 1078.9,555.6 C1084.1,559.7 1090.5,562.5 1093.4,569.3 C1094.8,572.8 1097.7,575.6 1100.5,579.4 C1099.4,570.5 1099.9,569.6 1107.5,566.6 C1104.5,562 1101.3,557.7 1098.8,553 C1095.5,546.9 1093.3,540.2 1089.7,534.4 C1087.1,530.4 1082.8,527.5 1079.3,524.2 C1076.6,521.6 1073.7,519.4 1071.3,516.7 C1068.6,513.6 1069.8,511 1073.7,509.9 C1077.2,509 1080.6,507.5 1084,506.4 C1085.4,506 1087.7,505.5 1088.2,506.1 C1089.2,507.3 1089.8,509.4 1089.4,510.9 C1087.8,516.9 1091,522.2 1098.5,523.8 C1096.5,518.8 1094.7,514.3 1092.4,508.4 C1096,509.9 1098.2,510.8 1100.4,511.8 C1100.7,511.3 1101,510.9 1101.3,510.5 C1098.9,508.1 1096.4,505.8 1093.4,503.1 M813.2,318.6 C813.2,318.2 813.2,317.8 813.2,317.4 C813.1,317.4 812.7,317.4 812.7,317.4 C812.7,317.8 812.7,318.2 813.2,318.6 M770.5,329.4 C770.5,329.4 770.6,329.5 770.5,329.4 M1003.2,558.4 C1003.2,558.4 1003.5,558.6 1003.5,558.6 C1003.5,558.6 1003.4,558.3 1003.2,558.4 z"/>
<path fill="#DD894B" d="M1110.7,844.1 C1113.2,825.3 1116.3,806.5 1122.5,788.5 C1125.8,778.7 1133.9,772.6 1142.8,767.3 C1152.6,764.8 1161.5,764.9 1170.4,770.4 C1177.1,774.6 1178.8,783 1186.9,786.3 C1193.7,789 1199.2,794.7 1205.4,799.2 C1211.4,783.5 1224.2,775.2 1242.3,774.9 C1260.5,774.6 1272.8,783.5 1279.8,800.7 C1290.9,784.5 1305.5,779.3 1323.6,783.8 C1338.3,787.6 1347.4,797.1 1351,812.5 C1348.9,815.7 1345.9,818 1345.1,820.9 C1341.4,833.9 1337.8,847 1335.2,860.3 C1333.1,870.8 1332.5,881.6 1331.2,892.3 C1331.7,892.4 1332.2,892.5 1332.6,892.6 C1334.1,888.3 1335.8,884.1 1337,879.8 C1340.7,866.7 1344.4,853.6 1347.6,840.4 C1349.8,831.5 1351.3,822.3 1353,813.3 C1367,795.1 1395.8,795.9 1410.8,814.7 C1420.4,826.7 1423.8,841 1425.8,855.8 C1426.7,862.6 1427.2,869.4 1427.9,876.6 C1420.9,877 1413.9,877 1406.5,876.6 C1409.4,867 1411.9,857.7 1413.3,846.9 C1408.1,852.5 1400.5,870.4 1399.7,877.2 C1396.6,885.5 1393.8,893.6 1391,901.7 C1389.6,903.9 1388.2,906.2 1386.9,908.4 C1374.9,928.5 1347.7,930.5 1333,912.3 C1332.6,911.8 1332.1,911.3 1331.4,910.4 C1326.4,926 1316.6,935.9 1300,936.7 C1285.9,937.3 1274.9,931.5 1268.3,918 C1261.6,932.6 1250.7,939.9 1234.9,938.9 C1218.5,937.8 1208.4,928.9 1203.6,912.7 C1200,920.2 1195.4,926 1188.3,929.2 C1168,938.4 1146.3,928.1 1140.2,906.5 C1139.8,905.2 1139.5,903.9 1139.1,901.8 C1137.6,888.3 1136.3,875.7 1135.3,862.8 C1134.9,849.3 1134.3,836.1 1133.7,822.9 C1133.2,822.8 1132.6,822.6 1132.1,822.5 C1130,829.3 1128,836.1 1125.6,843 C1124.5,845.2 1123.8,847.1 1122.6,849 C1120,849.6 1117.7,850.3 1114.8,851.2 C1110.5,849.3 1119.8,843.1 1112.8,841.3 C1112.1,842.3 1111.4,843.2 1110.7,844.1 M1277.1,846.7 C1278.6,831.7 1283.5,816.9 1279.8,801.4 C1277.5,803.4 1275.5,805.6 1275,808 C1272.7,819.3 1270.3,830.7 1269.1,842.1 C1267,861.3 1265.9,880.6 1268.7,900 C1273.7,883 1274.5,865.2 1277.1,846.7 M1207.2,829.9 C1207.5,824.9 1207.9,820 1207.9,815 C1208,811.6 1207.5,808.1 1206.9,804.7 C1206.8,803.7 1205.3,803 1204.4,802.1 C1203.6,803 1202.3,803.8 1202,804.8 C1200.8,808.6 1199.2,812.5 1199.2,816.4 C1198.9,843 1197.9,869.7 1204,896 C1206.6,874.4 1206.3,852.6 1207.2,829.9 M1190.2,881.4 C1185.6,871.3 1177.5,866.4 1166.6,866.1 C1160.1,865.9 1157.5,868.8 1157.6,875.3 C1157.6,876 1157.4,877 1156.9,877.5 C1151.7,882.2 1150.9,888.5 1150.7,894.8 C1150.5,900 1150.8,905.5 1156,910.1 C1156,902.9 1155.8,896.7 1156.1,890.5 C1156.3,885.7 1156.9,880.4 1162,878.1 C1172.1,873.6 1185.2,876.3 1187.9,890.2 C1188.8,894.7 1188.7,899.4 1189,904 C1189.1,905.5 1189.2,907.1 1189.3,908.6 C1189.9,908.6 1190.4,908.6 1191,908.5 C1196.4,899.8 1193.8,891 1190.2,881.4 M1253.5,886 C1250.6,878.9 1244.3,876.6 1237.6,876.1 C1219.6,875 1207.9,891.5 1214.1,908.8 C1214.5,910 1215.4,911.2 1216.5,913.3 C1217.4,906.5 1218.2,900.8 1219,895.1 C1220.3,886.3 1225.9,880.2 1234.2,880.2 C1242.5,880.2 1249,883.1 1251.2,892.4 C1252.1,896.1 1252.7,899.9 1252.9,903.7 C1253.2,907.5 1253,911.3 1253,915.2 C1259.7,905.7 1259.2,896.2 1253.5,886 M1280.8,904.2 C1282.7,898.1 1284.2,891.7 1286.9,885.9 C1288,883.4 1291.5,880.9 1294.3,880.3 C1307.1,877.5 1317,888 1314.6,900.9 C1313.7,905.6 1313.4,910.4 1312.8,915.1 C1322.3,906 1321.3,889.2 1311.8,880.3 C1306.1,875 1290.2,874.5 1285.1,879.5 C1277.9,886.5 1274.1,905.7 1279.4,910.8 C1279.8,908.7 1280.2,906.8 1280.8,904.2 M1368.6,904.7 C1369.3,905.1 1370.1,906.1 1370.4,905.9 C1374.9,903.7 1375.3,898.9 1376.3,894.9 C1379.8,881 1372.7,871.2 1358.7,870.1 C1349.4,869.4 1340.9,878.1 1339.1,889.1 C1338.5,892.5 1336.5,896.2 1340.2,899.3 C1342.3,893.9 1344.2,888.5 1346.4,883.3 C1350.2,874.2 1351.8,873.2 1361.3,874 C1368,874.5 1374,881.3 1372.8,887.7 C1371.8,893.2 1370.2,898.6 1368.6,904.7 M1247.5,917 C1238.2,916.7 1228.9,916.4 1219.6,916.1 C1222,917.9 1224.8,919.7 1227.8,920.2 C1234.4,921.4 1241.2,922.4 1247.6,919.1 C1248.1,918.9 1248.1,917.7 1247.5,917 M1305,919 C1306.5,918.5 1308.1,917.9 1309.6,917.4 C1309.5,917.2 1309.4,916.9 1309.3,916.7 C1300.2,915.4 1291.1,914.2 1281.1,912.8 C1287,918.2 1290.6,919 1305,919 M1172.6,915 C1177.6,914.9 1182.9,915.8 1187,911 C1177.3,911 1168.2,911 1159,911 C1159,911.6 1158.9,912.2 1158.8,912.7 C1163.1,913.5 1167.4,914.2 1172.6,915 M1359.4,908 C1361.2,908 1363,908 1364.9,908 C1364.9,907.6 1365,907.2 1365,906.8 C1357.6,905.1 1350.2,903.4 1342.8,901.7 C1342.7,902.3 1342.6,902.8 1342.5,903.3 C1347.1,906.9 1352.6,908.2 1359.4,908 z"/>
<path fill="#DD884A" d="M142,877 C135,877 128,877 120.5,877 C121.8,859.2 123.1,841.3 130.9,824.7 C141.2,802.8 164.7,793.8 184.8,804.4 C188.5,806.3 191.4,809.8 194.7,813.2 C194.4,816.7 193.4,819.7 194.1,822.3 C197.5,835.4 201.3,848.5 205.1,861.5 C207.9,871.1 210.9,880.6 213.9,890.2 C214.3,890.1 214.8,890 215.3,889.9 C214.5,882.6 214,875.3 212.9,868 C210.5,850.8 207.2,833.8 200.6,817.6 C199.8,815.7 197.6,814.5 196,813 C198.9,797.7 210.9,785.8 226.3,783.1 C243.6,780 257.9,786 266,800.5 C265.3,803.8 263.9,806.4 264.2,808.9 C265,816.9 266.3,824.9 267.5,832.9 C270,850.4 272.5,867.9 275,885.4 C275.9,891 277,896.5 278,902.1 C279.4,898.8 280.1,895.5 279.9,892.3 C279,871.9 278.6,851.5 276.7,831.3 C275.7,820.7 274.4,809.7 267.9,800.6 C273.1,782.9 292.3,772.2 311.8,775.3 C326.8,777.8 336.3,786.5 342.6,800.3 C354.4,784 369.9,779.2 388.2,785.8 C403.1,791.2 410.6,803.3 413.7,818.9 C411.9,842.7 410.5,865.9 409,889.4 C408.7,893.6 408.3,897.3 408,901.2 C408,901.7 408,901.8 408,902 C405.5,913.6 400.1,923.3 389.1,928.7 C371,937.5 352.8,931.1 343.3,912.7 C338.9,927.8 329.5,937.4 313.4,938.8 C297.3,940.1 285.3,933.7 278.6,918.1 C271.9,931.2 261.2,937.3 247.2,936.7 C230.4,936 220.5,926.3 215.8,910.1 C210.1,918 203.2,923 193.8,924.1 C178.6,925.9 167.2,920.4 159.6,907.2 C158.6,905.4 157.6,903.7 156.3,901.5 C153.3,893 150.6,885 148,876.7 C144.4,866.9 140.8,857.4 137.2,848 C136.5,848.3 135.8,848.5 135.1,848.7 C136.3,858.4 138,867.9 142,877 C142,877 142,877 142,877 M349,837.5 C348.6,825.1 349.6,812.4 341.7,801.3 C339.9,804.9 338.3,808.5 338.4,812.1 C339,832.6 340.1,853.1 341,873.6 C341.3,880.1 341.6,886.5 342.1,893 C342.2,894.1 342.9,895.2 343.3,896.4 C343.8,896.4 344.3,896.3 344.8,896.3 C348.6,877.3 349,857.9 349,837.5 M297.5,888.2 C300.7,882 306.4,879.8 312.8,880.2 C320.5,880.7 325.9,884.5 327.3,892.6 C328,896.8 328.6,901.1 329,905.3 C329.2,908.4 329,911.4 329,915.2 C336.9,908.5 334.6,887.6 326.2,880.5 C319.6,874.9 301.9,874.9 294.8,883.5 C287.7,892.2 287,910 295,917.1 C293.7,907 293,897.7 297.5,888.2 M233.5,881 C225.7,892.3 226.2,909.1 235.3,915.9 C234.9,912.5 234.3,909.8 234.2,907.1 C234.1,901.2 233.4,895.1 234.5,889.5 C236.7,879.5 248.9,876.6 257.4,881.9 C262.9,885.4 264.3,891.3 266,897.1 C267.1,901.2 267.8,905.4 268.7,909.6 C272.3,902.2 271.2,895.2 268.6,888.2 C262.2,871.3 244,871.5 233.5,881 M388.9,877.4 C379.3,871.9 365.8,869.6 358.9,879.8 C356.8,882.7 355.2,886.2 354.4,889.6 C352.7,896.5 351.2,903.5 358,910.7 C358,906.6 357.9,903.7 358,900.8 C358.2,897.6 358.6,894.5 359,891.4 C359.9,884.2 366.3,877.3 372.1,877 C382.7,876.4 388.7,879.8 390.4,888.3 C391.5,893.4 391,898.8 391.2,904 C391.2,905.8 391.2,907.7 391.2,910.2 C399.9,902.7 398.7,888.1 388.9,877.4 M175.9,883.4 C177.3,880.8 178.1,877.4 180.3,875.7 C185.7,871.2 196.6,873.9 199.6,880.3 C201.7,884.9 203.3,889.8 205.1,894.6 C205.6,896 206.2,897.3 206.7,898.7 C207.2,898.5 207.6,898.4 208,898.3 C208,896 208.1,893.7 208,891.4 C207.5,882.9 203.3,876.2 196.5,871.4 C189.4,866.4 176.5,870.7 172.6,878.8 C168.5,887.4 170.5,895.6 174.8,903.4 C175.4,904.6 176.8,905.2 177.9,906.1 C178.3,905.8 178.7,905.5 179,905.3 C178.6,903.6 177.9,901.9 177.6,900.2 C176.9,894.9 176.4,889.6 175.9,883.4 M298.3,919.5 C308,921.5 317.6,922.9 326.5,917.5 C317.6,917 308.8,917 300,917.1 C299.2,917.1 298.5,918.3 298.3,919.5 M367.3,911.1 C365,911.2 362.8,911.3 359.4,911.4 C368.2,917.6 383.7,917.2 388.8,910.9 C385.8,911.1 383.4,911.5 381,911.5 C376.7,911.5 372.5,911.3 367.3,911.1 M242.8,916 C241.4,916.1 239.9,916.3 237.3,916.6 C245.7,921.5 263.1,918.5 266.3,912.7 C258.9,913.8 251.3,914.9 242.8,916 z"/>
<path fill="#D37D41" d="M431.5,841.1 C432.2,841.3 432.4,841.6 432.6,841.7 C444,844.3 447,854.3 451.1,863.1 C453.2,867.4 454.9,871.9 456.4,876.7 C446.7,877 437.3,877 428.2,876.7 C429.6,875.4 430.7,874.3 431.9,873.3 C430.7,872.2 429.6,870.8 428.3,870.2 C425.7,869.1 423,868.3 420.3,867.6 C417.3,866.9 415.8,865.5 415.9,862.1 C416.2,856 416.1,849.9 416.1,843.7 C421.1,842.8 426.1,842 431.5,841.1 z"/>
<path fill="#C56D34" d="M267.6,800.6 C274.4,809.7 275.7,820.7 276.7,831.3 C278.6,851.5 279,871.9 279.9,892.3 C280.1,895.5 279.4,898.8 278,902.1 C277,896.5 275.9,891 275,885.4 C272.5,867.9 270,850.4 267.5,832.9 C266.3,824.9 265,816.9 264.2,808.9 C263.9,806.4 265.3,803.8 266,800.8 C266.5,800.4 266.9,800.5 267.6,800.6 z"/>
<path fill="#C56D34" d="M1352.7,813.3 C1351.3,822.3 1349.8,831.5 1347.6,840.4 C1344.4,853.6 1340.7,866.7 1337,879.8 C1335.8,884.1 1334.1,888.3 1332.6,892.6 C1332.2,892.5 1331.7,892.4 1331.2,892.3 C1332.5,881.6 1333.1,870.8 1335.2,860.3 C1337.8,847 1341.4,833.9 1345.1,820.9 C1345.9,818 1348.9,815.7 1351,812.8 C1351.5,812.7 1351.9,813 1352.7,813.3 z"/>
<path fill="#C36B33" d="M195.7,813.1 C197.6,814.5 199.8,815.7 200.6,817.6 C207.2,833.8 210.5,850.8 212.9,868 C214,875.3 214.5,882.6 215.3,889.9 C214.8,890 214.3,890.1 213.9,890.2 C210.9,880.6 207.9,871.1 205.1,861.5 C201.3,848.5 197.5,835.4 194.1,822.3 C193.4,819.7 194.4,816.7 194.8,813.5 C195.1,813.2 195.3,813.2 195.7,813.1 z"/>
<path fill="#C56D34" d="M416.1,843.3 C416.1,849.9 416.2,856 415.9,862.1 C415.8,865.5 417.3,866.9 420.3,867.6 C423,868.3 425.7,869.1 428.3,870.2 C429.6,870.8 430.7,872.2 431.9,873.3 C430.7,874.3 429.6,875.4 427.8,876.7 C424.3,877 421.5,877.2 418.7,877 C415.1,876.7 413.5,877.9 412.8,881.7 C412.4,884.3 410.3,886.6 409,889 C410.5,865.9 411.9,842.7 413.7,819.3 C414.7,827 415.4,834.9 416.1,843.3 z"/>
<path fill="#C36B33" d="M506.4,291.8 C503.3,293.5 500,295 496.4,296.4 C496.9,295.4 497.8,294.5 498.5,293.5 C500.6,290.5 502.9,289.3 506.4,291.8 z"/>
<path fill="#2C251F" d="M1115.1,391 C1115.4,391.1 1115.6,391.5 1115.8,391.8 C1115.6,391.8 1115.3,391.9 1114.8,391.7 C1114.6,391.5 1114.9,391.1 1115.1,391 z"/>
<path fill="#D1702A" d="M409,889.4 C410.3,886.6 412.4,884.3 412.8,881.7 C413.5,877.9 415.1,876.7 418.7,877 C421.5,877.2 424.3,877 427.6,877 C437.3,877 446.7,877 456.5,877 C464,877 471.1,877.1 479.1,877.1 C489.4,877 498.7,877 508.5,877 C528,877 547,877 566.4,877 C568.6,877 570.3,877 572.5,877 C575.4,877 577.8,877.2 580.3,877 C583.9,876.7 587.4,876.2 591.5,875.8 C608.2,875.8 624.6,875.8 641.2,876.1 C643.1,876.6 644.7,877 646.4,877 C675.9,877 705.5,877 735.5,877 C740.6,877 745.3,877 750.5,877 C876.3,877 1001.7,877 1127.3,877.3 C1128.4,885.5 1129.2,893.5 1130,901.5 C1127.7,901.6 1125.4,901.7 1123,901.7 C888.8,901.8 654.6,901.8 420.4,901.8 C416.9,901.8 413.4,901.8 409.3,901.6 C408.6,901.1 408.3,901 408,901 C408.3,897.3 408.7,893.6 409,889.4 z"/>
<path fill="#BA612B" d="M1130.4,901.6 C1129.2,893.5 1128.4,885.5 1127.3,876.8 C1125.7,867.1 1124.3,858 1123,849 C1123.8,847.1 1124.5,845.2 1126,843.1 C1132.3,843.9 1132.5,848.2 1133,852.6 C1133.5,856.1 1134.3,859.5 1135,863 C1136.3,875.7 1137.6,888.3 1139,901.4 C1136.3,901.8 1133.6,901.7 1130.4,901.6 z"/>
<path fill="#BE6225" d="M148,877 C150.6,885 153.3,893 155.9,901.3 C136.6,901.6 117.3,901.6 97.5,901.5 C98.7,900.9 100.3,900.1 101.9,900.1 C115,900 128.2,900 141.3,900 C143,900 144.6,900 146.5,900 C144.9,892.3 143.5,885.1 142,877.4 C142,877 142,877 142.4,877 C144.5,877 146.3,877 148,877 z"/>
<path fill="#BE6225" d="M1391.5,901.7 C1393.8,893.6 1396.6,885.5 1400.1,877.2 C1402.2,877 1403.6,877 1405,877 C1403.2,884.4 1401.5,891.7 1399.6,899.5 C1403.7,899.9 1408.2,900.3 1412.8,901.1 C1405.9,901.5 1398.9,901.7 1391.5,901.7 z"/>
<path fill="#BE6225" d="M1415.5,901.5 C1416,900.9 1416.9,900.1 1417.9,900.1 C1429.2,900 1440.5,900 1451.8,900 C1452.4,900.1 1453,900.5 1453.8,901 C1441.3,901.5 1428.6,901.5 1415.5,901.5 z"/>
<path fill="#DD894B" d="M408,901.2 C408.3,901 408.6,901.1 408.9,901.5 C408.8,901.8 408.7,901.8 408.3,902 C408,901.8 408,901.7 408,901.2 z"/>
<path fill="#CF793C" d="M1405.2,877 C1403.6,877 1402.2,877 1400.4,877 C1400.5,870.4 1408.1,852.5 1413.3,846.9 C1411.9,857.7 1409.4,867 1406.1,876.6 C1405.8,877 1405.7,877 1405.2,877 z"/>
<path fill="#DD8747" d="M614,573.1 C615.1,573 616.3,572.9 618.3,572.8 C609.1,566.9 600.6,561.4 592,555.5 C592.1,554.9 592.2,554.8 592.3,554.7 C608.4,558.5 624.5,562.8 640.8,566.1 C656.2,569.1 671.5,567 686.4,562.1 C698.4,558.1 708.3,549.5 716.8,535.2 C717.8,541.7 718.8,547.6 719.8,553.5 C735,552.8 767.5,519.4 767.6,489.1 C772.2,506.6 770.3,523.7 763.2,541.6 C797.3,535.2 824.4,518.3 848.7,495.1 C849.2,495.2 849.6,495.5 849.6,495.5 C846.1,508.8 837.2,518.6 828.3,528.8 C848.9,525.6 868.4,519.1 887.3,509.7 C887.8,509.8 888.2,510.1 888.2,510.1 C887.4,511.8 886.9,513.4 889.7,513.1 C894.1,512.7 898.4,512.1 903.3,511.7 C903.8,511.8 904.1,512.1 904.1,512.1 C893.7,518.1 883.2,524.1 872.3,530.3 C895.6,535.3 917.4,528.1 940.2,522.7 C935.8,527.6 931.9,532 928.1,536.3 C928.4,536.9 928.6,537.4 928.9,537.9 C935,537.9 941,537.9 947.4,538.2 C943.3,541.5 938.9,544.3 934.2,547.4 C939.7,552.2 944.7,558.5 951.2,561.6 C959.5,565.6 963.1,572.3 966.9,579.6 C968.7,583 969,587.8 974,588.9 C974.6,589.1 974.7,591 975,592.1 C977.1,598.8 978.7,605.8 981.3,612.4 C985.7,623.1 989.4,633.9 990,645.6 C990.7,659.5 986.3,672.6 983.8,686 C983.7,686.4 983.1,686.7 982.5,687 C976.7,685.4 971.4,683.8 966.1,682.3 C965.9,682.7 965.8,683.2 965.6,683.7 C966.2,684.4 966.7,685.1 966.3,684.6 C944.6,686.7 922.3,688.3 900.2,691.2 C886.1,693.1 871.3,691.9 858,699 C857.9,699 857.8,698.8 857.8,698.5 C857.9,697.8 858,697.5 858.2,697 C858.2,696.8 858,696.8 857.4,696.7 C855.4,697.6 853.6,698.2 852.3,699.3 C838.7,710.7 831.2,725 831.4,743 C830,743.7 828.9,744.3 827.8,744.5 C828.1,742.6 828.3,741.2 828.6,739.7 C831.2,726.2 835.8,713.3 842.2,700.9 C842.6,700.8 842.8,700.7 843,700.6 C842.9,700.5 842.8,700.4 842.7,700.4 C842.4,700.6 842.2,700.8 841.7,701.2 C839.2,703.3 836.5,704.9 834.7,707.1 C825.9,718.4 823.1,731.1 826,745.5 C825.4,747.8 824.9,749.7 824.2,751.5 C821.7,757.7 817.7,763.6 816.9,769.9 C815.3,781.3 815.4,793 815.3,804.6 C815.2,807.7 817.1,810.8 818,813.9 C818.5,813.8 819,813.7 819.4,813.6 C819.9,811.9 820.8,810.2 820.8,808.5 C820.9,804.9 822.2,804.4 825.8,804.8 C833.1,805.7 840.3,805.1 846.6,800.3 C850,797.7 853.7,795.7 857.5,793.3 C857.6,795.5 857.8,797.5 857.8,799.6 C857.9,800 857.7,800.6 857.4,801 C855.5,803.1 855.7,805.4 858.1,806.1 C859.3,806.5 861.9,804.5 862.7,803 C864.8,799.2 870,796.8 874.4,798.6 C871.3,803.2 868.3,807.5 865.2,811.4 C864.5,810.1 863.9,809.2 863.1,808 C859.9,811.5 860.8,814.3 863,817.5 C861,822.2 858.9,826.4 857.3,830.9 C856.2,833.8 855.9,837 860.9,837.2 C863.1,838.8 865.7,841.7 867.1,841.2 C874.5,838.8 881.3,841.4 888.1,842.7 C903.7,845.5 919.2,846.1 935.2,843.1 C940.9,842.1 946.1,841.1 951.3,840.3 C951.7,840.3 951.9,840.2 952,840 C952,840 951.9,840 952.3,840 C963,838.4 972.6,834.8 980.6,828.5 C986.1,824.1 990.4,818.1 995.6,812.8 C997.7,812.9 999.3,813 1001,813.4 C1001.2,814.8 1001.1,815.8 1001.5,816.7 C1003.5,821.4 1002.8,822.5 997.9,822.2 C996.9,822.1 996,822.7 995,822.9 C994.8,823.4 994.6,823.8 994.4,824.2 C1001.2,825.3 1005.2,828.9 1006.2,835.5 C1006.9,833.7 1007.6,831.9 1008.7,828.7 C1010.9,832 1012.5,834 1013.6,836.3 C1014.2,837.5 1014.3,840.1 1013.8,840.4 C1012.3,841.2 1010.2,841.4 1008.5,841.3 C1007.9,841.2 1007.4,839.3 1006.5,837.6 C1004.2,840.7 1003,842.3 1001.8,843.9 C999.9,843.4 998.1,842.9 996,842.3 C996.3,843.5 996.2,844.2 996.5,844.4 C1001.3,847.9 1002.3,851 999.8,856.4 C999.2,857.6 997.3,858.4 995.9,858.8 C995.3,859 994.3,858 993.5,857.6 C994.2,856.4 994.9,855.2 995.8,854.1 C996.4,853.3 997.1,852.7 998.3,851.4 C995.5,851.4 993.7,851.4 991.8,851.4 C991.4,845.9 990.1,845.2 983,845.5 C981.3,847.8 980.1,849.6 979,851.3 C978.6,851.8 978.2,852.3 978.1,852.9 C976.1,862.4 970.2,865.7 959.9,862.3 C958.7,861.9 957.3,862 956,862.2 C949.9,862.9 943.9,864.2 937.8,864.4 C932.1,864.6 926.2,869.5 920.6,864.2 C914.4,868.5 911.7,858.7 906.2,860.4 C903.6,855.7 898.8,858.2 895.1,857.1 C892.1,856.2 889.5,857.4 887.6,860.5 C885.1,864.6 878.6,866.6 874.5,865.7 C867.3,864.3 859.9,863.2 852.7,861.8 C851.7,861.6 850.7,860.4 850,859.4 C847.8,856.6 845.7,853.6 843.5,850.7 C843,850.9 842.4,851.1 841.9,851.3 C841.6,852.8 841,854.3 841.1,855.8 C841.1,858.8 840.8,861.2 836.9,861.1 C836.4,861.1 835.5,861.6 835.3,862 C833.3,867.2 828.8,867 824.4,867 C817.9,867 811.3,867.1 804.7,867 C801.6,866.9 797.6,869.6 796.2,863.8 C793.8,867.8 791.5,867.2 788.3,866 C783.7,864.2 778.4,861.7 773.9,862.5 C770,863.2 766.5,863.6 763.3,861.9 C759.1,859.6 753.9,862.2 750,858.5 C749.4,850.8 750,843.3 748,836.5 C744.2,823.7 740,810.9 734,799.1 C729.9,791.1 726.3,781.8 717,777.2 C714.8,776.1 713.5,773 711.8,770.8 C709.9,768.2 708,765.6 706.1,762.6 C705.2,749 691.7,727.1 682.6,725.7 C684.4,729.1 686.2,732.6 687.7,736 C681.6,730.5 675.5,725.4 667.9,722.9 C667.5,723.3 667.1,723.8 666.7,724.2 C668.1,724.9 669.5,725.5 671.2,726.3 C663.4,725.2 656.4,722.8 649.8,723.5 C626.8,725.9 604.1,730.2 581.1,731.9 C573.4,732.5 566.3,734.3 559,736 C559,736 559,736 558.8,735.7 C556.7,735.7 554.5,735.5 553,736.6 C545.9,741.6 539,747 531.9,751.9 C531.7,746.7 530.6,741.8 531.6,737.2 C534.4,724 533.3,710.9 533,697.7 C532.7,685.8 531.6,673.6 533.5,662 C537,641.3 546.6,623.1 561.5,608 C573.2,596.1 586.6,586.9 602.2,580.8 C605.2,579.6 608,576.7 611,576.6 C614.3,576.5 614,575.1 614,573.1 M886.4,856.9 C886.1,856.3 885.9,855.8 885.6,855.2 C885.1,855.7 884.7,856.1 884.2,856.6 C884.8,856.9 885.3,857.1 886.4,856.9 M931.6,547.2 C931.1,546.6 930.6,545.9 930.2,545.2 C929.8,545.5 929.5,545.8 929.2,546.2 C929.9,546.6 930.5,547.1 931.6,547.2 M865.7,806.2 C865.6,805.7 865.5,805.2 865.3,804.7 C865,805 864.7,805.3 864.4,805.6 C864.7,805.9 865,806.2 865.7,806.2 z"/>
<path fill="#DC8544" d="M750,859 C753.9,862.2 759.1,859.6 763.3,861.9 C766.5,863.6 770,863.2 773.9,862.5 C778.4,861.7 783.7,864.2 788.3,866 C791.5,867.2 793.8,867.8 796.2,863.8 C797.6,869.6 801.6,866.9 804.7,867 C811.3,867.1 817.9,867 824.4,867 C828.8,867 833.3,867.2 835.3,862 C835.5,861.6 836.4,861.1 836.9,861.1 C840.8,861.2 841.1,858.8 841.1,855.8 C841,854.3 841.6,852.8 841.9,851.3 C842.4,851.1 843,850.9 843.5,850.7 C845.7,853.6 847.8,856.6 850,859.4 C850.7,860.4 851.7,861.6 852.7,861.8 C859.9,863.2 867.3,864.3 874.5,865.7 C878.6,866.6 885.1,864.6 887.6,860.5 C889.5,857.4 892.1,856.2 895.1,857.1 C898.8,858.2 903.6,855.7 906.2,860.4 C911.7,858.7 914.4,868.5 920.6,864.2 C926.2,869.5 932.1,864.6 937.8,864.4 C943.9,864.2 949.9,862.9 956,862.2 C957.3,862 958.7,861.9 959.9,862.3 C970.2,865.7 976.1,862.4 978.1,852.9 C978.2,852.3 978.6,851.8 979,851.3 C980.1,849.6 981.3,847.8 983,845.5 C990.1,845.2 991.4,845.9 991.8,851.4 C993.7,851.4 995.5,851.4 998.3,851.4 C997.1,852.7 996.4,853.3 995.8,854.1 C994.9,855.2 994.2,856.4 993.5,857.6 C994.3,858 995.3,859 995.9,858.8 C997.3,858.4 999.2,857.6 999.8,856.4 C1002.3,851 1001.3,847.9 996.5,844.4 C996.2,844.2 996.3,843.5 996,842.3 C998.1,842.9 999.9,843.4 1001.8,843.9 C1003,842.3 1004.2,840.7 1006.5,837.6 C1007.4,839.3 1007.9,841.2 1008.5,841.3 C1010.2,841.4 1012.3,841.2 1013.8,840.4 C1014.3,840.1 1014.2,837.5 1013.6,836.3 C1012.5,834 1010.9,832 1008.7,828.7 C1007.6,831.9 1006.9,833.7 1006.2,835.5 C1005.2,828.9 1001.2,825.3 994.4,824.2 C994.6,823.8 994.8,823.4 995,822.9 C996,822.7 996.9,822.1 997.9,822.2 C1002.8,822.5 1003.5,821.4 1001.5,816.7 C1001.1,815.8 1001.2,814.8 1001.4,813.4 C1003.2,813 1004.6,812.9 1006,813.2 C1007.6,815.8 1009.1,818 1010.1,819.2 C1014.1,817 1017.5,813.5 1020.5,813.8 C1025.1,814.2 1025.7,811 1026.8,808.8 C1027.5,807.5 1026.3,804.8 1025.5,803 C1025,801.9 1023.5,801.3 1022.4,800.5 C1022.2,801.9 1022.2,803.5 1021.8,804.8 C1021.2,806.3 1020.4,808.5 1019.4,808.7 C1016.4,809.2 1013.2,809 1009.9,808.8 C1003.3,802.7 997.2,796.6 990.4,791.3 C976.6,780.2 960.8,773.6 942.9,773.3 C932.4,773.1 921.8,774.6 911.2,774.9 C909.4,773.5 907.5,771.4 906.1,771.7 C900.7,772.6 895.5,774.4 890.2,775.8 C884.9,777.1 879.7,778.3 874,779.7 C876,775.8 877.5,772.4 879.5,769.4 C881.7,766.2 884.8,763.8 886.8,760.6 C891.2,753.7 897.1,748.7 904.3,744.8 C911.2,741 918,736.8 924.7,732.5 C926.1,731.6 926.9,729.6 928.4,728 C947.4,725.3 965.9,722.8 984.8,725.1 C1002.9,727.3 1020.7,730.9 1037.2,739.4 C1037.4,739 1037.7,738.7 1038,738.3 C1034.6,732.9 1031.2,727.4 1028.3,722 C1033.8,720.8 1038.9,719.7 1044.1,718.4 C1050.4,724.4 1055.9,724.5 1064.8,718.8 C1063.4,716.6 1062,714.4 1060.6,712.3 C1061.1,711.9 1061.6,711.5 1062.1,711.1 C1063.2,712 1064.2,713.3 1065.4,713.8 C1066.8,714.3 1068.9,714.9 1069.8,714.3 C1072.3,712.6 1074.2,710.3 1076.4,708.3 C1079.9,729.1 1083.7,749.9 1086.9,770.8 C1090,791.3 1092.6,811.9 1095.4,832.5 C1096,836.7 1096.4,841 1096.9,845.7 C1098.4,844.7 1099.4,844.1 1100.5,843.3 C1106.5,849 1108.6,855.5 1104.3,863.4 C1104.8,863.5 1105.3,863.7 1105.7,863.8 C1106.5,863.1 1107.3,862.4 1108.7,861.2 C1109.1,859.5 1108.9,858.2 1108.7,856.9 C1108.8,856.2 1108.8,855.4 1109.4,854.3 C1110.2,850.7 1110.6,847.6 1110.9,844.4 C1110.9,844.4 1110.8,844.3 1110.7,844.2 C1111.4,843.2 1112.1,842.3 1112.8,841.3 C1119.8,843.1 1110.5,849.3 1114.8,851.2 C1117.7,850.3 1120,849.6 1122.6,849 C1124.3,858 1125.7,867.1 1127.1,876.6 C1001.7,877 876.3,877 750.5,876.5 C750,872.7 750,869.4 750.4,866 C751.4,865.4 752.1,864.8 752.7,864.1 C751.8,863.8 750.9,863.4 750,862.6 C750,861.1 750,860.1 750,859 z"/>
<path fill="#382B22" d="M380,615 C384.2,605.3 388.4,595.7 392.6,586 C393.6,583.7 394.4,581.4 395.4,579.1 C392.9,578.8 390.4,578.5 387.8,578.1 C387.5,573.7 389.1,571.9 393.5,570.9 C399.9,569.4 406.5,568 412.5,565.4 C416,563.8 418.5,559.8 421.5,557 C425.5,553.3 429.5,549.7 433.3,545.2 C422.5,547.8 411.8,551 400.9,553 C389.9,555.1 378.7,556.1 367.5,557.5 C369.1,555.3 371.1,552.7 373,549.9 C381.5,537.7 392.5,528.6 405.5,521.6 C412.9,517.6 419.6,512.3 426.9,507.5 C425.5,505.9 424.4,504.6 423.6,503.7 C428.4,500.7 433.2,497.7 438,494.8 C437.8,494.1 437.6,493.4 437.4,492.7 C431,493.2 424.5,493.5 418.1,494.2 C414.5,494.6 410.9,495.2 407.4,496.2 C403.4,497.3 399.7,497.2 396.5,502 C393.4,506.7 385.8,508.6 379.9,511 C381.7,503.6 388.2,503 393.7,501.3 C391.3,493.7 386.7,495.1 381.8,497.2 C379.5,498.1 377.2,498.9 374.2,500 C374.4,492 385.1,490 383.9,483.8 C390,474.1 397.1,467 407.1,463.5 C406.8,463.1 406.5,462.6 406.3,462.2 C403.4,463.4 400.5,464.6 397.7,465.8 C397.5,465.4 397.4,465 397.2,464.5 C422.7,450.3 451.6,444.8 478.4,434 C461.9,433.1 446.4,438.2 430.9,443.5 C430.7,443.1 430.6,442.7 430.4,442.3 C431.9,440.6 433.4,438.8 435.7,436.2 C428.5,437.1 422.6,437.9 416.7,438.6 C416.6,438.3 416.5,438 416.3,437.6 C426.4,433.3 436.6,428.9 446.7,424.5 C446.6,423.9 446.4,423.4 446.3,422.8 C441.5,423.4 436.6,423.9 431.9,424.5 C435.7,418.2 465.8,406 491.4,401.7 C513.8,397.9 534.7,401.6 555.3,410.7 C551.2,410.1 547,409.5 542.8,408.8 C542.7,409.5 542.6,410.2 542.4,410.8 C545.9,411.4 549.5,411.4 552.8,412.5 C560.2,415.1 567.7,417.7 574.8,421.1 C585.1,425.9 592.5,434.1 599.2,443.1 C601.3,445.9 604.6,447.7 607.3,450 C609.6,451.8 611.9,453.7 614.2,455.6 C613.8,456 613.5,456.5 613.2,457 C609.5,455.2 605.9,453.5 602.2,451.8 C592.5,447.1 582.8,442.3 572.9,437.9 C566.1,434.9 558.9,434.7 551.5,436 C544.9,437.3 538.1,437.9 531.4,439 C528.4,439.6 525.5,440.6 522.3,442 C536.7,445.5 550.5,449.8 562,460.7 C534.4,456.7 507.6,460.8 480.6,463.4 C483.7,463.9 486.9,464.4 490,465 C497.9,466.4 506,467.2 513.6,469.6 C521.1,471.9 528.1,475.8 535.7,479.1 C527.7,480.1 519.9,480.7 512.3,482.1 C504.6,483.5 496.3,484.4 491.5,493.9 C521,493 546.1,503.3 569.8,518.7 C569.3,519.3 569.1,519.7 568.9,519.7 C560.3,520.5 551.7,522.1 543.2,521.8 C526.8,521.2 511.3,524.5 495.8,529.2 C484,532.7 472.2,535.7 462.1,544.2 C469,547.3 474.2,539.7 482.2,541.9 C479.4,544.4 477.6,546.6 475.3,548 C464.4,554.9 453.2,561.6 442.2,568.4 C442.3,568.8 442.4,569.2 442.6,569.7 C458.1,569.1 473.6,568.5 488.1,567.9 C472.6,577.3 467.8,581.9 469.4,586.2 C457.5,590.8 445.1,594.3 433.9,600.2 C421.8,606.6 409.6,613.5 400.8,624.9 C397.3,629.4 391.6,632.3 386.9,635.8 C386.4,636.1 385.4,635.8 382.9,635.6 C388.3,626.2 393.2,617.6 398.1,609 C397.8,608.5 397.5,608.1 397.1,607.6 C391.7,610.1 386.2,612.5 380.4,615 C380,615 380,615 380,615 M459,548.9 C455,549.9 451.1,551 447.1,552 C444.1,552.7 441,553.9 438,553.9 C429.7,553.9 425.9,559.9 421.3,565.1 C424.6,565 427.7,564.4 430.7,564 C441.8,562.7 451.6,558 460.9,552.3 C461.8,551.8 462.1,550.2 462.7,549.1 C461.7,548.9 460.7,548.8 459,548.9 M534.3,515.9 C535.2,516.9 536,517.9 537.2,519.4 C539.1,513.5 540.4,508.7 534.5,504.4 C534.3,508 534.1,511.7 534.3,515.9 M443.3,572.4 C441.6,573.6 439.9,574.7 438.3,575.9 C438.5,576.3 438.8,576.7 439,577.2 C442.3,576.1 445.6,575 448.8,574 C448.7,573.4 448.6,572.7 448.5,572.1 C447,572.1 445.5,572.1 443.3,572.4 M538.7,409.6 C539,409.3 539.3,409 539.6,408.8 C539.4,408.6 539.2,408.4 539.2,408.4 C538.9,408.7 538.7,408.9 538.7,409.6 z"/>
<path fill="#382B23" d="M753.2,320.7 C760,327.9 766.5,334.7 773.1,341.6 C773.7,341.2 774.4,340.8 775.1,340.5 C774.2,337.2 773.4,333.9 772.4,330 C788.9,337.4 801,349.2 812.8,362.4 C812.3,359.5 812.3,356.4 811.2,353.7 C804.7,336.8 794.4,322.7 779.8,311.8 C773.2,306.8 767.3,301 761,295.7 C759.6,294.5 757.6,293.8 755.8,293 C753,291.8 750.1,290.8 746.7,289.6 C755.6,284.5 799.8,304.4 810.3,316.8 C806.8,315.6 803.1,314.9 799.7,313.3 C796.3,311.6 793.2,309.2 789.8,306.9 C789,312.5 791.8,318.2 795.9,320.2 C796.6,320.5 797.5,321 797.7,321.7 C800.9,331.4 810.4,334 817.6,338.9 C820.6,341 824.5,341.7 828.5,343.3 C827.5,338 822.2,334.7 824.5,327.8 C829.1,333.3 833.3,337.5 836.5,342.4 C841.2,349.6 845.2,357.2 849.3,364.9 C850.1,366.5 849.8,368.7 850,370.7 C851,380.6 852,390.5 853.5,400.4 C859.3,391.5 856.4,381.9 855.1,372.6 C855.9,372.5 856.6,372.5 857.4,372.4 C858.6,381.3 859.7,390.2 861.1,399 C861.4,401.1 862.6,403.2 864,405.1 C861.7,414 864.6,424.4 858,432.9 C856.7,432.4 855.2,431.9 853.6,431.3 C851.9,436.5 850.2,441.6 848.5,446.6 C848.1,446.6 847.6,446.6 847.2,446.6 C847.6,422.4 840.2,400.8 825.7,381.5 C829.2,397.5 829.1,413.6 829.7,429.7 C829,429.8 828.3,429.8 827.6,429.9 C826.9,425.5 826.2,421.1 825.2,415.3 C823.5,421.9 822.2,427.2 820.8,432.6 C820.3,432.6 819.8,432.7 819.4,432.7 C815.9,420.6 812.5,408.4 809,396.3 C808.4,396.4 807.7,396.5 807,396.6 C807.3,399.5 808,402.4 807.9,405.3 C807.7,415 808,424.8 806.7,434.4 C805.3,444.3 802.4,454 799.8,463.8 C799.3,465.5 797.1,466.6 796.1,468.3 C794.7,470.6 793.6,473.1 791.5,475.6 C791,471.1 790.4,466.7 790,462.3 C789.7,458.6 789.2,455.4 786.6,452 C783.6,447.9 783.1,442.1 781.1,437.2 C776.9,427 773.5,416.3 767.9,406.8 C758,389.8 745.3,374.6 730.7,361.6 C721.7,353.6 711.2,347.3 701.1,340.7 C693.1,335.4 684.8,330.3 676.2,326.3 C665.4,321.2 654.1,317.5 643.1,312.8 C639.6,311.3 636.5,308.7 633.3,305.9 C650.3,300 667.7,298.2 685.3,300.4 C703.2,302.7 718.3,312.3 734.5,322.6 C731.9,313.7 726,308.7 721.4,302.7 C732.7,307.3 743.7,312.3 753.2,320.7 z"/>
<path fill="#392C23" d="M646.9,348 C659.8,358.9 673.1,369 684.8,380.7 C693.5,389.6 700,400.6 707.8,410.5 C715.5,420.3 719.8,431.8 724.1,443.3 C724.5,444.3 724.6,445.3 723.9,446.7 C720.5,439.5 717.1,432.4 713.6,425.2 C713.1,425.3 712.5,425.4 712,425.5 C712,435.8 712,446.2 712,456.5 C711.5,456.6 711.1,456.8 710.6,456.9 C708.7,454.1 706.7,451.4 704.9,448.6 C698.3,438.9 692.2,428.8 685.1,419.6 C680.5,413.6 674.4,408.7 668.9,403.4 C658.7,393.7 647.1,386.2 633.6,381.8 C631.6,381.1 629.6,380.7 627.6,380.2 C627.3,380.6 627.1,381.1 626.8,381.5 C630,384.2 633,387.1 636.4,389.6 C649.8,399.4 661.3,411.1 672,423.6 C676.8,429.2 677,433 673.4,439.4 C672.6,440.8 672,442.2 671.3,443.7 C673.6,444.1 675.7,444.4 677.8,444.7 C677.8,445.2 677.8,445.6 677.8,446.1 C676.9,446.7 676.1,447.3 675.1,448.1 C686,463.8 693,481 697.2,499.5 C691.3,491.7 685.4,483.9 679.5,476.1 C679,476.4 678.5,476.6 678,476.9 C678.5,482.4 679.1,487.8 679.7,493.3 C679.3,493.4 678.9,493.5 678.5,493.7 C677,489.6 675,485.5 674.1,481.3 C672.5,474.1 668.5,468.4 663.2,463.9 C649.7,452.3 635.8,441.4 622.2,430 C613.2,422.6 602.2,420.1 591.3,417 C580.2,413.8 569.1,410.4 558.1,406.9 C557.2,406.6 556.2,403.9 556.6,403.3 C558.7,400.6 560.7,397.7 565,397.9 C573.4,398.5 581.9,398.7 590.3,399 C592.9,399 595.6,399 598.5,398.3 C592.9,391.8 585.1,388.8 576.9,385.5 C578.1,384.4 578.9,383.6 580.2,382.4 C565.4,374.9 549.8,371.1 534,368.6 C518.3,366.1 502.5,364.2 486.6,361.6 C504.5,356 522.5,350.7 541.7,350.9 C560.7,351.1 579.2,354 597.2,360.7 C597.5,360.1 597.7,359.4 597.9,358.7 C596.5,357.5 595,356.2 592.7,354.2 C605.2,354.5 615.4,359.7 625.8,363.6 C636.2,367.5 646.1,372.8 657.6,378.1 C648.6,362.1 635.8,351.1 623.3,339.9 C623.5,339.4 623.8,338.9 624.1,338.3 C631.6,341.5 639.1,344.7 646.9,348 z"/>
<path fill="#D37F40" d="M613.6,573 C614,575.1 614.3,576.5 611,576.6 C608,576.7 605.2,579.6 602.2,580.8 C586.6,586.9 573.2,596.1 561.5,608 C546.6,623.1 537,641.3 533.5,662 C531.6,673.6 532.7,685.8 533,697.7 C533.3,710.9 534.4,724 531.6,737.2 C530.6,741.8 531.7,746.7 531.8,752.2 C529.1,756 526.3,759.1 523.8,762.4 C516.4,772.1 511.3,783.1 507.1,794.2 C504.6,790.8 502.8,787.7 504.8,783.8 C506.7,780 506.3,776.1 503.8,772.9 C501.7,770 498.8,767.8 496.6,765.6 C491.6,767.6 487,769.5 482.2,771.5 C482.4,771.9 482.5,772.9 483,773.2 C486.3,775.2 489.6,776.9 492.9,778.9 C494,779.6 495.6,780.6 495.7,781.7 C495.9,782.7 494.5,784 493.7,785.1 C491.2,788.6 482.8,788.2 486.7,795.9 C486.9,796.4 485.6,797.5 485.2,798.4 C484.7,799.6 484.3,800.9 484,801.8 C486.4,802.4 488.1,802.9 489.8,803.3 C488.9,804.7 487.9,806.1 487,807.6 C486.2,808.8 485.5,810.1 485,811.4 C484.3,813.4 484.4,816.1 483,817.5 C478,822.4 480.3,827.6 481.5,833.1 C482.5,838.1 482.6,843.3 482.8,848.3 C482.9,849.1 481.6,850.6 480.8,850.7 C477.6,851.2 478,853.4 478,855.6 C478,858.4 477.9,861.2 477.9,864.1 C476.6,855.6 475.1,847.1 474.1,838.6 C472.3,822.8 470.9,806.9 469.1,791.1 C468,781 470.7,771.6 473.9,762.3 C479.3,747.1 484.9,732 490.2,716.7 C491.5,713 492.1,709.1 493.1,705.3 C492.7,705 492.3,704.8 491.9,704.6 C488.1,709.2 484.3,713.8 480.5,718.5 C480.3,718.4 480,718.3 479.7,718.2 C484.2,697.6 488.7,677.1 493.5,655.4 C488.2,660.6 483.5,665.2 478.3,669.8 C477.8,669.8 477.5,669.5 477.5,669.5 C482.1,661 486.6,652.5 491.3,643.7 C489,644.7 486.3,645.8 483.4,647 C483,647 483,647 483,647 C483.1,646.6 483,646 483.2,645.6 C487.9,639 492.4,632.2 497.6,626 C501.3,621.4 505.6,617.1 510.2,613.5 C529.3,598.5 551,588.8 574.4,583.1 C577.3,582.4 580.3,582.2 583.5,580.6 C571.1,578.5 558.7,576.5 546.5,574.4 C552.1,570.7 595.4,569.6 613.6,573 z"/>
<path fill="#382B22" d="M939.6,475.7 C934,477.4 928.9,479 923,480.9 C938.2,462.9 956.9,450.9 977.2,439.9 C964.2,435.7 953.8,441.7 942.4,446 C945.1,434.8 955.3,430.6 962,423.5 C961.8,423.1 961.7,422.7 961.5,422.3 C960,422.5 958.4,422.6 956.9,423.1 C950.2,425.4 943.5,427.9 936.7,430.2 C935.4,430.6 933.8,430.2 931.6,430.2 C933.3,427.2 934.6,425 935.8,422.8 C935.4,422.4 935.1,422.1 934.8,421.8 C921.9,431.6 909.1,441.4 896.2,451.2 C896,450.9 895.7,450.7 895.4,450.5 C896.2,447.7 896.9,445 897.8,441.9 C896.6,441.3 895.5,440.8 894,440.1 C897.8,432.4 901.6,424.7 905.4,417.1 C905,416.8 904.7,416.5 904.3,416.2 C900.5,418.3 896.8,420.3 893,422.4 C892.7,422 892.3,421.6 892,421.2 C896.3,409.1 900.7,397.1 905.4,384.2 C897.8,384.6 895.9,390.8 892.2,394.7 C891.7,394.4 891.3,394.1 890.8,393.8 C893.5,389.8 896.1,385.7 898.9,381.7 C900.4,379.5 902.9,378.6 901.8,374.5 C901.2,372.1 904.6,367.6 907.3,365.5 C919,356.1 931.6,348.3 946.6,345 C950.8,344.1 955,343.5 959.5,343.5 C951.9,347.4 946.2,352.8 941.7,360.9 C955.8,358.9 967.5,353.5 977.6,347 C981.5,347.4 984.5,347.7 988.6,348.1 C985.4,349.6 983,350.7 980.6,351.9 C974.2,355.1 967.9,358.4 961.5,361.3 C957.8,363 953.7,363.8 950,365.6 C946.8,367.2 943.8,369.4 941,371.7 C939.3,373 938.2,375.1 936.9,376.8 C937.2,377.2 937.5,377.5 937.8,377.9 C942.5,375 947.2,372.1 951.9,369.3 C952.3,369.5 952.7,369.8 953.1,370.1 C950,376.5 945.1,381.9 941.5,388.8 C949.4,387 957.2,385.1 965.1,383.3 C965.3,383.9 965.5,384.5 965.6,385 C963.9,386.7 962.2,388.3 959.7,390.5 C963.1,390.3 965.7,390.2 968.3,390 C968.4,390.4 968.6,390.7 968.7,391 C966.9,392.6 965,394.2 963.2,395.7 C975,393 986.6,391.4 998.5,395.4 C995.1,395.9 991.7,396.4 987.9,397 C991.6,401.5 1000.4,400.9 1003.6,396.9 C1013.9,400.9 1024.2,405 1035.1,409.3 C1030.4,412.3 1025.5,411.8 1020.8,412.1 C1016.1,412.3 1011.4,413 1006.7,413.4 C1006.6,413.8 1006.6,414.3 1006.6,414.7 C1011.5,414.7 1016.4,414.7 1021.3,414.7 C1021.3,415.1 1021.4,415.5 1021.4,416 C1013.7,419.1 1006,422.2 998.3,425.4 C998.4,425.9 998.5,426.5 998.5,427 C1000.4,427 1002.3,426.8 1004.1,427 C1016.6,428.3 1029.2,429 1041.6,431.1 C1055.3,433.5 1067,440.4 1076.8,450.3 C1077.6,451.1 1078.1,452 1079.5,453.8 C1071.6,452.6 1064.6,451.6 1057.7,450.7 C1057.5,451.2 1057.3,451.7 1057.1,452.3 C1059.1,454 1061.2,455.7 1062.7,457 C1051.1,457 1039.3,456.6 1027.5,457.1 C1018.5,457.5 1009.3,458.3 1000.6,460.2 C981,464.5 961.6,469.6 942.2,474.5 C941.4,474.7 940.7,475.2 939.6,475.7 z"/>
<path fill="#D57F3F" d="M1076.3,708 C1074.2,710.3 1072.3,712.6 1069.8,714.3 C1068.9,714.9 1066.8,714.3 1065.4,713.8 C1064.2,713.3 1063.2,712 1062.1,711.1 C1061.6,711.5 1061.1,711.9 1060.6,712.3 C1062,714.4 1063.4,716.6 1064.8,718.8 C1055.9,724.5 1050.4,724.4 1044.1,718.4 C1038.9,719.7 1033.8,720.8 1028,721.8 C1021.7,716 1016.4,710 1010.1,705.2 C1001.4,698.7 991.9,693.1 982.8,687.1 C983.1,686.7 983.7,686.4 983.8,686 C986.3,672.6 990.7,659.5 990,645.6 C989.4,633.9 985.7,623.1 981.3,612.4 C978.7,605.8 977.1,598.8 975,592.1 C974.7,591 974.6,589.1 974,588.9 C969,587.8 968.7,583 966.9,579.6 C963.1,572.3 959.5,565.6 951.2,561.6 C944.7,558.5 939.7,552.2 934.2,547.4 C938.9,544.3 943.3,541.5 947.9,538.3 C962.2,534.9 968.1,534.9 980.1,538 C974.6,539.5 969.6,540.8 963.7,542.4 C977,547.3 989.4,552 1001.8,556.6 C1001.7,557 1001.6,557.5 1001.5,557.9 C999.4,557.7 997.4,557.4 995.3,557.1 C995.1,557.4 994.9,557.7 994.7,558 C996.5,559.7 998.1,562.1 1000.3,563.1 C1013.3,569.1 1022.2,579.5 1030.9,590.6 C1030.9,591.1 1030.6,591.4 1030.6,591.4 C1023.8,587.1 1017,582.8 1010.2,578.5 C1009.7,579 1009.1,579.5 1008.6,580.1 C1019.2,593.8 1029.8,607.6 1040.5,621.5 C1036.3,620.2 1032.1,618.8 1026.4,617.1 C1034.6,628.6 1041.9,638.8 1049.2,649.4 C1049.1,649.8 1049,650 1049,650 C1042.1,645 1035.2,640.1 1028.3,635.1 C1027.8,635.6 1027.3,636.1 1026.7,636.6 C1031.9,643.6 1036.9,650.7 1042.2,657.5 C1051.1,668.8 1060.1,679.9 1069,691.1 C1072.8,695.9 1075.8,701.2 1076.3,708 z"/>
<path fill="#382B23" d="M1093.7,503.3 C1096.4,505.8 1098.9,508.1 1101.3,510.5 C1101,510.9 1100.7,511.3 1100.4,511.8 C1098.2,510.8 1096,509.9 1092.4,508.4 C1094.7,514.3 1096.5,518.8 1098.5,523.8 C1091,522.2 1087.8,516.9 1089.4,510.9 C1089.8,509.4 1089.2,507.3 1088.2,506.1 C1087.7,505.5 1085.4,506 1084,506.4 C1080.6,507.5 1077.2,509 1073.7,509.9 C1069.8,511 1068.6,513.6 1071.3,516.7 C1073.7,519.4 1076.6,521.6 1079.3,524.2 C1082.8,527.5 1087.1,530.4 1089.7,534.4 C1093.3,540.2 1095.5,546.9 1098.8,553 C1101.3,557.7 1104.5,562 1107.5,566.6 C1099.9,569.6 1099.4,570.5 1100.5,579.4 C1097.7,575.6 1094.8,572.8 1093.4,569.3 C1090.5,562.5 1084.1,559.7 1078.9,555.6 C1071.7,549.9 1064.2,544.4 1056.5,539.5 C1053.4,537.5 1049.4,536.9 1045.7,536.1 C1039.2,534.7 1032.7,533.8 1026.2,532.6 C1021.3,531.6 1016.5,530.5 1011.6,528.3 C1020.2,527.7 1028.8,527.2 1037.4,526.6 C1037.6,526.2 1037.7,525.8 1037.9,525.5 C1036,524.4 1034.1,523.1 1032,522.2 C1030.5,521.5 1028.9,521.1 1027.2,521 C1015.5,520.2 1006.5,511.7 995.3,509.6 C992.7,509.2 990.2,508.9 987.6,508.5 C987.7,508 987.7,507.4 987.8,506.8 C994.7,507.4 1001.6,507.9 1008.6,508.4 C1006.2,500.7 983.8,493 964.4,494.7 C973.1,491.5 981.8,488.3 990.6,485.1 C990.5,484.6 990.4,484.1 990.4,483.6 C984.1,482.9 977.9,482.3 971.6,481.6 C971.6,481.2 971.5,480.8 971.4,480.4 C976.9,479 982.2,477.1 987.7,476.2 C992.9,475.3 998.3,475.3 1003.6,475 C1008.6,474.7 1013.1,476.1 1017.9,477.6 C1027.3,480.6 1037.2,481.8 1046.8,484 C1061.1,487.4 1076,489.4 1088.2,498.6 C1090.1,500 1091.7,501.6 1093.7,503.3 z"/>
<path fill="#D47E3D" d="M477.9,864.5 C477.9,861.2 478,858.4 478,855.6 C478,853.4 477.6,851.2 480.8,850.7 C481.6,850.6 482.9,849.1 482.8,848.3 C482.6,843.3 482.5,838.1 481.5,833.1 C480.3,827.6 478,822.4 483,817.5 C484.4,816.1 484.3,813.4 485,811.4 C485.5,810.1 486.2,808.8 487,807.6 C487.9,806.1 488.9,804.7 489.8,803.3 C488.1,802.9 486.4,802.4 484,801.8 C484.3,800.9 484.7,799.6 485.2,798.4 C485.6,797.5 486.9,796.4 486.7,795.9 C482.8,788.2 491.2,788.6 493.7,785.1 C494.5,784 495.9,782.7 495.7,781.7 C495.6,780.6 494,779.6 492.9,778.9 C489.6,776.9 486.3,775.2 483,773.2 C482.5,772.9 482.4,771.9 482.2,771.5 C487,769.5 491.6,767.6 496.6,765.6 C498.8,767.8 501.7,770 503.8,772.9 C506.3,776.1 506.7,780 504.8,783.8 C502.8,787.7 504.6,790.8 507.1,794.5 C507.3,796.8 507.3,798.3 507.3,799.4 C513.3,796.9 518.9,794.6 524.7,792.8 C524.9,794.1 524.9,795.1 524.7,796.1 C516.9,802 509.8,808 507.7,818.3 C507,822.7 506.5,826.8 505.7,831.3 C504.7,841.9 504.5,852.2 507.1,862.4 C508.3,867.1 507.8,872.1 508,877 C498.7,877 489.4,877 479.6,877 C478.7,873 478.3,869 477.9,864.5 z"/>
<path fill="#DD894B" d="M1110.6,844.7 C1110.6,847.6 1110.2,850.7 1109.5,853.9 C1109.5,851 1109.9,848 1110.6,844.7 z"/>
<path fill="#DD894B" d="M1108.6,857.3 C1108.9,858.2 1109.1,859.5 1108.9,861 C1108.5,860 1108.5,858.9 1108.6,857.3 z"/>
<path fill="#382B23" d="M813,318.6 C812.7,318.2 812.7,317.8 812.7,317.4 C812.7,317.4 813.1,317.4 813.2,317.4 C813.2,317.8 813.2,318.2 813,318.6 z"/>
<path fill="#DD8747" d="M591.7,555.3 C591.1,555.2 590.6,554.8 589.3,553.9 C590.8,554.1 591.3,554.2 592.1,554.5 C592.2,554.8 592.1,554.9 591.7,555.3 z"/>
<path fill="#D37F40" d="M483,647 C482.6,647.2 482.3,647.5 481.9,647.7 C482.1,647.4 482.3,647.2 482.8,647 C483,647 483,647 483,647 z"/>
<path fill="#382B22" d="M380,615 C379.9,615 379.8,615.1 379.9,615.1 C380,615 380,615 380,615 z"/>
<path fill="#DD8747" d="M903.7,511.7 C903.9,511.4 904.3,511.3 904.6,511.2 C904.6,511.5 904.6,511.7 904.4,512 C904.1,512.1 903.8,511.8 903.7,511.7 z"/>
<path fill="#DD8747" d="M887.7,509.6 C887.9,509.4 888.2,509.3 888.6,509.2 C888.6,509.4 888.6,509.6 888.4,510 C888.2,510.1 887.8,509.8 887.7,509.6 z"/>
<path fill="#DD8747" d="M849,495 C849.1,494.6 849.4,494.4 849.7,494.2 C849.8,494.5 849.8,494.8 849.7,495.2 C849.6,495.5 849.2,495.2 849,495 z"/>
<path fill="#382B23" d="M770.6,329.5 C770.6,329.5 770.5,329.4 770.6,329.5 z"/>
<path fill="#D37F40" d="M477.2,671.2 C476.9,671.4 476.6,671.6 476.4,671.8 C476.3,671.5 476.3,671.3 476.6,671 C477,671 477.2,671.2 477.2,671.2 z"/>
<path fill="#D37F40" d="M476.8,670.9 C476.8,670.4 476.9,670.1 477.3,669.7 C477.5,669.5 477.8,669.8 478,670 C478.1,670.5 477.9,670.8 477.4,671.1 C477.2,671.2 477,671 476.8,670.9 z"/>
<path fill="#D57F3F" d="M1049.2,649.8 C1049.5,649.9 1049.7,650.1 1049.9,650.3 C1049.6,650.4 1049.4,650.4 1049.1,650.3 C1049,650 1049.1,649.8 1049.2,649.8 z"/>
<path fill="#D57F3F" d="M1032,592 C1032.1,592.1 1032.2,592.1 1032.3,592.2 C1032.2,592.2 1032.1,592.2 1032,592.1 C1032,592 1032,592 1032,592 z"/>
<path fill="#D57F3F" d="M1031,591 C1031.4,591.1 1031.7,591.3 1032,591.8 C1032,592 1032,592 1032,592 C1031.7,591.9 1031.3,591.9 1030.8,591.6 C1030.6,591.4 1030.9,591.1 1031,591 z"/>
<path fill="#D57F3F" d="M1003.3,558.4 C1003.4,558.3 1003.5,558.6 1003.5,558.6 C1003.5,558.6 1003.2,558.4 1003.3,558.4 z"/>
<path fill="#C56D34" d="M1277,847.2 C1274.5,865.2 1273.7,883 1268.7,900 C1265.9,880.6 1267,861.3 1269.1,842.1 C1270.3,830.7 1272.7,819.3 1275,808 C1275.5,805.6 1277.5,803.4 1279.8,801.4 C1283.5,816.9 1278.6,831.7 1277,847.2 z"/>
<path fill="#C36B33" d="M1207.1,830.4 C1206.3,852.6 1206.6,874.4 1204,896 C1197.9,869.7 1198.9,843 1199.2,816.4 C1199.2,812.5 1200.8,808.6 1202,804.8 C1202.3,803.8 1203.6,803 1204.4,802.1 C1205.3,803 1206.8,803.7 1206.9,804.7 C1207.5,808.1 1208,811.6 1207.9,815 C1207.9,820 1207.5,824.9 1207.1,830.4 z"/>
<path fill="#CE773B" d="M1190.4,881.8 C1193.8,891 1196.4,899.8 1191,908.5 C1190.4,908.6 1189.9,908.6 1189.3,908.6 C1189.2,907.1 1189.1,905.5 1189,904 C1188.7,899.4 1188.8,894.7 1187.9,890.2 C1185.2,876.3 1172.1,873.6 1162,878.1 C1156.9,880.4 1156.3,885.7 1156.1,890.5 C1155.8,896.7 1156,902.9 1156,910.1 C1150.8,905.5 1150.5,900 1150.7,894.8 C1150.9,888.5 1151.7,882.2 1156.9,877.5 C1157.4,877 1157.6,876 1157.6,875.3 C1157.5,868.8 1160.1,865.9 1166.6,866.1 C1177.5,866.4 1185.6,871.3 1190.4,881.8 z"/>
<path fill="#CF793C" d="M1253.7,886.4 C1259.2,896.2 1259.7,905.7 1253,915.2 C1253,911.3 1253.2,907.5 1252.9,903.7 C1252.7,899.9 1252.1,896.1 1251.2,892.4 C1249,883.1 1242.5,880.2 1234.2,880.2 C1225.9,880.2 1220.3,886.3 1219,895.1 C1218.2,900.8 1217.4,906.5 1216.5,913.3 C1215.4,911.2 1214.5,910 1214.1,908.8 C1207.9,891.5 1219.6,875 1237.6,876.1 C1244.3,876.6 1250.6,878.9 1253.7,886.4 z"/>
<path fill="#CE773B" d="M1280.7,904.6 C1280.2,906.8 1279.8,908.7 1279.4,910.8 C1274.1,905.7 1277.9,886.5 1285.1,879.5 C1290.2,874.5 1306.1,875 1311.8,880.3 C1321.3,889.2 1322.3,906 1312.8,915.1 C1313.4,910.4 1313.7,905.6 1314.6,900.9 C1317,888 1307.1,877.5 1294.3,880.3 C1291.5,880.9 1288,883.4 1286.9,885.9 C1284.2,891.7 1282.7,898.1 1280.7,904.6 z"/>
<path fill="#CE773B" d="M1368.8,904.3 C1370.2,898.6 1371.8,893.2 1372.8,887.7 C1374,881.3 1368,874.5 1361.3,874 C1351.8,873.2 1350.2,874.2 1346.4,883.3 C1344.2,888.5 1342.3,893.9 1340.2,899.3 C1336.5,896.2 1338.5,892.5 1339.1,889.1 C1340.9,878.1 1349.4,869.4 1358.7,870.1 C1372.7,871.2 1379.8,881 1376.3,894.9 C1375.3,898.9 1374.9,903.7 1370.4,905.9 C1370.1,906.1 1369.3,905.1 1368.8,904.3 z"/>
<path fill="#CE773B" d="M1135.3,862.8 C1134.3,859.5 1133.5,856.1 1133,852.6 C1132.5,848.2 1132.3,843.9 1126.3,842.9 C1128,836.1 1130,829.3 1132.1,822.5 C1132.6,822.6 1133.2,822.8 1133.7,822.9 C1134.3,836.1 1134.9,849.3 1135.3,862.8 z"/>
<path fill="#CE773B" d="M1247.9,917 C1248.1,917.7 1248.1,918.9 1247.6,919.1 C1241.2,922.4 1234.4,921.4 1227.8,920.2 C1224.8,919.7 1222,917.9 1219.6,916.1 C1228.9,916.4 1238.2,916.7 1247.9,917 z"/>
<path fill="#CE773B" d="M1304.5,919 C1290.6,919 1287,918.2 1281.1,912.8 C1291.1,914.2 1300.2,915.4 1309.3,916.7 C1309.4,916.9 1309.5,917.2 1309.6,917.4 C1308.1,917.9 1306.5,918.5 1304.5,919 z"/>
<path fill="#CE773B" d="M1172.1,915 C1167.4,914.2 1163.1,913.5 1158.8,912.7 C1158.9,912.2 1159,911.6 1159,911 C1168.2,911 1177.3,911 1187,911 C1182.9,915.8 1177.6,914.9 1172.1,915 z"/>
<path fill="#CE773B" d="M1358.9,908 C1352.6,908.2 1347.1,906.9 1342.5,903.3 C1342.6,902.8 1342.7,902.3 1342.8,901.7 C1350.2,903.4 1357.6,905.1 1365,906.8 C1365,907.2 1364.9,907.6 1364.9,908 C1363,908 1361.2,908 1358.9,908 z"/>
<path fill="#C36B33" d="M349,838 C349,857.9 348.6,877.3 344.8,896.3 C344.3,896.3 343.8,896.4 343.3,896.4 C342.9,895.2 342.2,894.1 342.1,893 C341.6,886.5 341.3,880.1 341,873.6 C340.1,853.1 339,832.6 338.4,812.1 C338.3,808.5 339.9,804.9 341.7,801.3 C349.6,812.4 348.6,825.1 349,838 z"/>
<path fill="#CE773B" d="M297.3,888.5 C293,897.7 293.7,907 295,917.1 C287,910 287.7,892.2 294.8,883.5 C301.9,874.9 319.6,874.9 326.2,880.5 C334.6,887.6 336.9,908.5 329,915.2 C329,911.4 329.2,908.4 329,905.3 C328.6,901.1 328,896.8 327.3,892.6 C325.9,884.5 320.5,880.7 312.8,880.2 C306.4,879.8 300.7,882 297.3,888.5 z"/>
<path fill="#CF793C" d="M233.7,880.8 C244,871.5 262.2,871.3 268.6,888.2 C271.2,895.2 272.3,902.2 268.7,909.6 C267.8,905.4 267.1,901.2 266,897.1 C264.3,891.3 262.9,885.4 257.4,881.9 C248.9,876.6 236.7,879.5 234.5,889.5 C233.4,895.1 234.1,901.2 234.2,907.1 C234.3,909.8 234.9,912.5 235.3,915.9 C226.2,909.1 225.7,892.3 233.7,880.8 z"/>
<path fill="#CE773B" d="M389.2,877.7 C398.7,888.1 399.9,902.7 391.2,910.2 C391.2,907.7 391.2,905.8 391.2,904 C391,898.8 391.5,893.4 390.4,888.3 C388.7,879.8 382.7,876.4 372.1,877 C366.3,877.3 359.9,884.2 359,891.4 C358.6,894.5 358.2,897.6 358,900.8 C357.9,903.7 358,906.6 358,910.7 C351.2,903.5 352.7,896.5 354.4,889.6 C355.2,886.2 356.8,882.7 358.9,879.8 C365.8,869.6 379.3,871.9 389.2,877.7 z"/>
<path fill="#CE773B" d="M175.9,883.8 C176.4,889.6 176.9,894.9 177.6,900.2 C177.9,901.9 178.6,903.6 179,905.3 C178.7,905.5 178.3,905.8 177.9,906.1 C176.8,905.2 175.4,904.6 174.8,903.4 C170.5,895.6 168.5,887.4 172.6,878.8 C176.5,870.7 189.4,866.4 196.5,871.4 C203.3,876.2 207.5,882.9 208,891.4 C208.1,893.7 208,896 208,898.3 C207.6,898.4 207.2,898.5 206.7,898.7 C206.2,897.3 205.6,896 205.1,894.6 C203.3,889.8 201.7,884.9 199.6,880.3 C196.6,873.9 185.7,871.2 180.3,875.7 C178.1,877.4 177.3,880.8 175.9,883.8 z"/>
<path fill="#CE773B" d="M148,876.7 C146.3,877 144.5,877 142.4,877 C138,867.9 136.3,858.4 135.1,848.7 C135.8,848.5 136.5,848.3 137.2,848 C140.8,857.4 144.4,866.9 148,876.7 z"/>
<path fill="#CE773B" d="M298,919.2 C298.5,918.3 299.2,917.1 300,917.1 C308.8,917 317.6,917 326.5,917.5 C317.6,922.9 308,921.5 298,919.2 z"/>
<path fill="#CF793C" d="M367.8,911.1 C372.5,911.3 376.7,911.5 381,911.5 C383.4,911.5 385.8,911.1 388.8,910.9 C383.7,917.2 368.2,917.6 359.4,911.4 C362.8,911.3 365,911.2 367.8,911.1 z"/>
<path fill="#CE773B" d="M243.3,916 C251.3,914.9 258.9,913.8 266.3,912.7 C263.1,918.5 245.7,921.5 237.3,916.6 C239.9,916.3 241.4,916.1 243.3,916 z"/>
<path fill="#D37F40" d="M750,866 C750,869.4 750,872.7 750,876.5 C745.3,877 740.6,877 735.5,876.6 C737.7,861.1 741.1,846.1 737.6,830.5 C736.1,830.5 734.4,831 733.3,830.4 C728.5,827.9 724,824.7 719.2,822.3 C711.9,818.6 704.4,815.4 696.9,811.7 C694.1,809.6 691.7,807.5 689,806.1 C683.3,803 677.3,800.5 671.7,797.2 C669.4,795.8 666.1,791.6 666.5,791 C668.7,787.9 666.7,785.9 665.4,783.9 C664.4,782.4 662.5,780.1 661.2,780.3 C658.9,780.5 656,781.7 654.6,783.4 C651.6,787.1 647.3,788.1 643.3,785.4 C639.6,782.8 635.7,780.1 631.6,778.3 C629.4,777.4 626.5,778.5 623.9,778.6 C622,778.6 618.9,779.2 618.3,778.3 C614.9,773.1 609.1,773.8 604.3,771.9 C602.6,771.2 601.4,769.5 600.4,768.3 C604.7,767.8 608.6,767.2 612.5,767 C617.8,766.7 623.1,767.1 628.4,766.7 C637,766 645.6,764.8 654.3,764.1 C661.7,763.4 669.1,763.1 676.4,762.6 C676.3,762.2 676,761.3 675.6,760.2 C680.2,761.6 684.2,762.8 689.4,764.4 C687.8,761.2 686.8,759.2 685.9,757.1 C686,757 686.2,756.8 686.6,756.8 C691,759.3 695,761.7 699.5,764 C701.3,763.6 702.7,763.3 704.4,763 C705.2,763.1 705.7,763 706.1,763 C708,765.6 709.9,768.2 711.8,770.8 C713.5,773 714.8,776.1 717,777.2 C726.3,781.8 729.9,791.1 734,799.1 C740,810.9 744.2,823.7 748,836.5 C750,843.3 749.4,850.8 750,858.5 C750,860.1 750,861.1 750,863 C750,864.5 750,865.2 750,866 z"/>
<path fill="#D57F3F" d="M508.5,877 C507.8,872.1 508.3,867.1 507.1,862.4 C504.5,852.2 504.7,841.9 506.1,831.3 C509.5,830.7 512.2,830 515,829.9 C518.3,829.9 519.5,828.1 518.2,825.6 C516.1,821.5 513.1,818.3 508,818 C509.8,808 516.9,802 525,796.3 C529.2,797.7 530.2,796.1 529.8,792.9 C529.6,791.3 529.3,789.7 529.2,788 C529.3,787.9 529.7,787.9 530.2,787.9 C532.7,788.8 535.9,789.1 536.6,790.6 C537.4,792.4 536.5,797 535.6,797.2 C529.6,798.8 528.5,805.6 523,807.8 C520.1,809 520.8,811.7 523.6,812.9 C528.8,815.2 534,815.3 539.1,812.1 C541.6,810.5 544.8,810.1 547.6,808.9 C549.7,808.1 552.8,807.2 553.3,805.7 C554.8,801 557.6,802.8 560.3,803.3 C564,803.8 567.7,804.3 571.4,804.7 C572.1,804.8 573.2,804.2 573.7,804.5 C581.1,808.5 589.2,805.9 597,807.2 C602,808 602.1,809.6 601.8,813.3 C601,813.6 600.5,813.8 599.7,813.7 C598.4,814 597.3,814.6 596.1,815.2 C596.1,815.2 596.2,815.1 595.9,815.2 C595.4,815.4 595.1,815.6 594.7,816.1 C592.4,817.3 590.4,818.2 588.1,819.1 C587.5,819.4 587.3,819.7 586.8,820.1 C585.9,820.5 585.2,820.8 584.2,821.1 C583.6,821.5 583.3,821.8 583,822.1 C583,822 583.1,822 582.9,822.1 C582.4,822.3 582.2,822.6 581.8,823.1 C580.5,823.9 579.4,824.5 578.1,825.2 C577.5,825.5 577.3,825.8 576.9,826.4 C575.2,827.8 573.7,828.9 571.8,829.9 C567.9,826 569.3,822.3 571,818.4 C572,816.3 572.5,814 573.2,811.8 C572.8,811.3 572.4,810.8 571.9,810.3 C565.1,812.4 558.1,814.2 551.5,816.8 C545.2,819.2 544.5,824.5 549,829.5 C551.4,832.3 553.6,835.2 556.5,838.8 C553.3,839.6 550.9,840.2 548.5,840.8 C548.5,841 548.6,841.2 548.6,841.5 C552,842.1 555.3,842.7 558.5,843.6 C554.8,848.9 551.2,854 547.3,859.6 C549.6,860.3 550.8,860.6 552,861.4 C551,863.9 550.1,866.1 549.1,868.5 C554.5,867.2 555.6,866 556.4,860.9 C558.5,860.6 560.2,860.3 562,860.4 C562.3,867 566.4,861.7 568.6,863.1 C571.6,865.2 574.3,867.3 577.2,869.5 C577.5,869.8 577.8,869.9 578.4,870.1 C582.8,872.1 586.9,873.9 591,875.8 C587.4,876.2 583.9,876.7 580.3,877 C577.8,877.2 575.4,877 572.5,876.6 C572.4,873.1 571.3,871.6 568,872 C564.1,872.5 565.7,874.9 566,877 C547,877 528,877 508.5,877 M519.8,859 C518.6,856.4 516.8,856.6 515.1,858.4 C513.3,860.4 510.2,862.9 510.4,865 C511.1,872.7 515.2,874.2 521.6,870 C522.4,869.5 523.5,869.5 524.2,868.9 C525,868.3 525.7,867.2 525.8,866.4 C525.8,865.7 524.5,864.3 524.1,864.4 C519.6,865.5 520.1,862.4 519.8,859 M547,851.6 C545.6,849.4 543.3,845.2 542.9,845.3 C538.5,847.1 534.1,848.1 529.5,848.4 C529.5,848.4 529.5,849 529.5,849.3 C532.5,851 535.3,853.3 538.5,854 C541.1,854.5 544.1,853 547,851.6 M538.7,874.5 C540.9,872.1 539.9,870.7 537.1,870.1 C535.7,869.8 534.1,870.2 532.7,869.7 C528.8,868.2 527.8,870.2 527.5,873.7 C531.2,874.1 534.6,874.5 538.7,874.5 M542.7,836.7 C542,835.7 541.3,834.8 540.5,833.6 C536.3,840.7 536.2,840.9 539.8,844.2 C540.9,841.8 541.8,839.6 542.7,836.7 M524.4,849 C522.9,848.3 521.5,847.5 520,846.7 C521.5,851.4 521.5,851.4 524.4,849 M518.2,819.8 C518.3,818.7 518.5,817.5 518.6,816.4 C517.7,816.6 516.8,816.7 515.9,816.8 C516.4,817.9 517,818.9 518.2,819.8 M546.3,869.1 C545.7,870.1 545.1,871.1 544.5,872.1 C545.2,872.3 546,872.5 546.8,872.7 C546.8,871.5 546.9,870.3 546.3,869.1 M548.2,834.6 C548.2,834.2 548.2,833.8 548.2,833.4 C548.1,833.4 547.7,833.4 547.7,833.4 C547.7,833.8 547.7,834.2 548.2,834.6 z"/>
<path fill="#DD8847" d="M697,812 C704.4,815.4 711.9,818.6 719.2,822.3 C724,824.7 728.5,827.9 733.3,830.4 C734.4,831 736.1,830.5 737.6,830.5 C741.1,846.1 737.7,861.1 735,876.6 C705.5,877 675.9,877 646.4,877 C644.7,877 643.1,876.6 641.4,875.9 C642.2,875 643.1,874.6 644.4,874.2 C651,872.7 657.2,871.3 663.8,869.9 C664.4,869.5 664.7,869.2 665,869 C665,869 664.9,869 665.3,869.1 C672.4,867.1 679,865.2 685.6,863 C689.7,861.5 694.4,860.8 696.8,855.9 C700.5,854.7 699.6,852.1 698.4,850.2 C690,837 681.6,823.6 667.1,815.7 C667.5,814.9 667.7,814.5 668.4,814 C674.2,813.8 676.4,818.6 679.9,821.3 C681.5,822.5 683.3,823.3 685.1,824.3 C685.5,823.8 685.9,823.3 686.3,822.9 C685.2,820.6 684.1,818.3 683.2,815.7 C685.5,814.6 687.7,813.6 689.9,813.1 C692.2,812.5 694.6,812.3 697,812 z"/>
<path fill="#FCE3BD" d="M644,874.3 C643.1,874.6 642.2,875 641.2,875.6 C624.6,875.8 608.2,875.8 591.5,875.8 C586.9,873.9 582.8,872.1 578.3,869.9 C577.6,869.4 577.4,869.3 577.1,869.3 C574.3,867.3 571.6,865.2 568.4,862.8 C566.7,861.2 565.4,860.1 564.2,858.7 C578.5,837.3 611.7,821.9 625.6,823.3 C623.7,826.2 621.5,828.9 620.1,832 C612.1,849.6 623.1,871.5 644,874.3 z"/>
<path fill="#D47E3D" d="M566.4,877 C565.7,874.9 564.1,872.5 568,872 C571.3,871.6 572.4,873.1 572,876.6 C570.3,877 568.6,877 566.4,877 z"/>
<path fill="#4E392C" d="M982.5,687 C991.9,693.1 1001.4,698.7 1010.1,705.2 C1016.4,710 1021.7,716 1027.6,721.8 C1031.2,727.4 1034.6,732.9 1038,738.3 C1037.7,738.7 1037.4,739 1037.2,739.4 C1020.7,730.9 1002.9,727.3 984.8,725.1 C965.9,722.8 947.4,725.3 928,728 C903,731.4 878.8,734.8 854.7,738.2 C855.3,737.1 855.9,735.8 856.7,734.3 C857.2,733.9 857.3,733.6 857.5,733.1 C857.8,732.6 857.9,732.3 858.1,731.9 C858.2,731.9 858.3,731.6 858.3,731.6 C858.3,731.6 858,732 857.8,732.1 C857.2,732.3 857,732.6 856.7,733 C856.2,733.2 855.9,733.5 855.4,733.8 C852.1,736.3 849.1,738.6 845.8,741.2 C845.7,739.6 845.6,738.4 845.4,736.6 C843.2,738.6 841.4,740.2 838.8,742.5 C839.7,739.1 840.3,736.9 840.9,734.6 C838.8,735.9 837.7,737.8 836.3,739.3 C835,740.8 833.3,741.8 831.7,743 C831.2,725 838.7,710.7 852.3,699.3 C853.6,698.2 855.4,697.6 857.5,696.8 C857.9,696.9 858.1,697.1 858.1,697.1 C858,697.5 857.9,697.8 857.6,698.6 C857.2,699.4 857.1,699.7 856.9,700 C856.8,700 856.9,700 857.2,699.9 C857.7,699.6 857.9,699.4 858.1,699.1 C871.3,691.9 886.1,693.1 900.2,691.2 C922.3,688.3 944.6,686.7 966.3,684.6 C966.7,685.1 966.2,684.4 965.6,683.7 C965.8,683.2 965.9,682.7 966.1,682.3 C971.4,683.8 976.7,685.4 982.5,687 z"/>
<path fill="#4E392C" d="M529.7,787.9 C529.7,787.9 529.3,787.9 528.8,788.1 C527.1,789.7 525.8,791 524.5,792.3 C518.9,794.6 513.3,796.9 507.3,799.4 C507.3,798.3 507.3,796.8 507.3,794.9 C511.3,783.1 516.4,772.1 523.8,762.4 C526.3,759.1 529.1,756 531.9,752.6 C539,747 545.9,741.6 553,736.6 C554.5,735.5 556.7,735.7 558.6,735.7 C558.6,736.3 558.6,736.5 558.7,736.7 C558.8,736.5 558.9,736.3 559,736.1 C566.3,734.3 573.4,732.5 581.1,731.9 C604.1,730.2 626.8,725.9 649.8,723.5 C656.4,722.8 663.4,725.2 671.2,726.3 C669.5,725.5 668.1,724.9 666.7,724.2 C667.1,723.8 667.5,723.3 667.9,722.9 C675.5,725.4 681.6,730.5 687.7,736 C688,736 688,736 688,736.3 C688.6,737.1 689.3,737.6 690,738 C690,738 690,738 689.9,738.3 C690.3,738.8 690.7,738.9 691,739 C691,739 691,739 690.8,739.3 C691.1,740.1 691.6,740.6 692,741 C692,741 692,741 692,741.3 C692.3,741.7 692.7,741.9 693,742 C693,742 693,742 692.9,742.3 C694.9,749.8 697,756.9 699.1,764 C695,761.7 691,759.3 686.4,756.7 C685.7,756.5 685.5,756.5 685.3,756.5 C685.5,756.7 685.6,756.9 685.8,757.1 C686.8,759.2 687.8,761.2 689.4,764.4 C684.2,762.8 680.2,761.6 675.6,760.2 C676,761.3 676.3,762.2 676.4,762.6 C669.1,763.1 661.7,763.4 654.3,764.1 C645.6,764.8 637,766 628.4,766.7 C623.1,767.1 617.8,766.7 612.5,767 C608.6,767.2 604.7,767.8 599.9,768.2 C592.6,769.1 586,769.9 579.5,771.1 C562,774.1 545.2,779 529.7,787.9 z"/>
<path fill="#2F2721" d="M1006,812.9 C1004.6,812.9 1003.2,813 1001.4,813 C999.3,813 997.7,812.9 995.4,812.5 C992.5,810.1 990.3,807.8 987.8,806.1 C979.2,800.2 970.4,794.7 960,792.9 C959.9,792.7 959.7,792.6 959.5,792.6 C959.7,792.7 959.8,792.8 960,793.3 C962,797.1 964.5,800.3 965.8,804 C969.5,814.4 967.4,829.9 951.9,840 C951.9,840 952,840 951.8,840 C951.6,840 951.2,840.2 951.2,840.2 C946.1,841.1 940.9,842.1 934.9,843 C915.7,841.3 898.4,815 916.9,791 C916.4,791 916,790.9 915.6,790.9 C914.7,790.9 913.9,790.9 913.1,791.1 C899.9,794.4 887.9,800.2 879.2,810.9 C872.5,819.1 866.8,828.2 860.7,836.9 C855.9,837 856.2,833.8 857.3,830.9 C858.9,826.4 861,822.2 863.3,817.3 C864.2,815.1 864.8,813.4 865.4,811.8 C868.3,807.5 871.3,803.2 874.7,798.4 C877.5,795.4 879.8,792.9 882.4,790.3 C882.8,789.8 883,789.5 883.2,789.2 C883.2,789.3 883.3,789.3 883.6,789.2 C892.2,784.8 900.4,780.5 908.6,776.2 C908.7,776.3 908.9,776.2 909.2,776.2 C910.1,775.9 910.6,775.5 911.2,775.2 C911.2,775.3 911.3,775.3 911.3,775.3 C921.8,774.6 932.4,773.1 942.9,773.3 C960.8,773.6 976.6,780.2 990.4,791.3 C997.2,796.6 1003.3,802.7 1009.9,809.1 C1008.7,810.8 1007.3,811.8 1006,812.9 M928.5,813.8 C930.2,813.2 932,812.8 933.5,811.9 C936.8,809.6 937.5,803.9 935.1,800.8 C932.4,797.3 927.1,796.4 924.2,799.7 C922.5,801.7 921.3,804.8 921.2,807.5 C921.1,811.3 924.2,813.1 928.5,813.8 z"/>
<path fill="#D37F40" d="M908.9,776.2 C908.9,776.2 908.7,776.3 908.2,776.2 C901.7,774.3 896,775.9 891.8,779.4 C888.6,782.1 881.5,782.2 883.3,789.3 C883.3,789.3 883.2,789.3 882.9,789.3 C882.4,789.7 882.3,790.1 882.1,790.4 C879.8,792.9 877.5,795.4 874.9,798.1 C870,796.8 864.8,799.2 862.7,803 C861.9,804.5 859.3,806.5 858.1,806.1 C855.7,805.4 855.5,803.1 857.4,801 C857.7,800.6 857.9,800 857.8,799.6 C857.8,797.5 857.6,795.5 857.5,793.3 C853.7,795.7 850,797.7 846.6,800.3 C840.3,805.1 833.1,805.7 825.8,804.8 C822.2,804.4 820.9,804.9 820.8,808.5 C820.8,810.2 819.9,811.9 819.4,813.6 C819,813.7 818.5,813.8 818,813.9 C817.1,810.8 815.2,807.7 815.3,804.6 C815.4,793 815.3,781.3 816.9,769.9 C817.7,763.6 821.7,757.7 824.2,751.5 C824.9,749.7 825.4,747.8 826.3,745.6 C827,745.1 827.4,745 827.8,744.9 C828.9,744.3 830,743.7 831.4,743 C833.3,741.8 835,740.8 836.3,739.3 C837.7,737.8 838.8,735.9 840.9,734.6 C840.3,736.9 839.7,739.1 838.8,742.5 C841.4,740.2 843.2,738.6 845.4,736.6 C845.6,738.4 845.7,739.6 845.8,741.2 C849.1,738.6 852.1,736.3 855.6,734 C856.2,734.2 856.4,734.3 856.5,734.4 C855.9,735.8 855.3,737.1 854.7,738.2 C878.8,734.8 903,731.4 927.6,728.1 C926.9,729.6 926.1,731.6 924.7,732.5 C918,736.8 911.2,741 904.3,744.8 C897.1,748.7 891.2,753.7 886.8,760.6 C884.8,763.8 881.7,766.2 879.5,769.4 C877.5,772.4 876,775.8 874,779.7 C879.7,778.3 884.9,777.1 890.2,775.8 C895.5,774.4 900.7,772.6 906.1,771.7 C907.5,771.4 909.4,773.5 911.2,774.9 C911.3,775.3 911.2,775.3 910.8,775.2 C909.9,775.5 909.4,775.8 908.9,776.2 z"/>
<path fill="#FCE3BD" d="M860.9,837.2 C866.8,828.2 872.5,819.1 879.2,810.9 C887.9,800.2 899.9,794.4 913.1,791.1 C913.9,790.9 914.7,790.9 915.6,790.9 C916,790.9 916.4,791 916.9,791 C898.4,815 915.7,841.3 934.4,843.1 C919.2,846.1 903.7,845.5 888.1,842.7 C881.3,841.4 874.5,838.8 867.1,841.2 C865.7,841.7 863.1,838.8 860.9,837.2 z"/>
<path fill="#FBE2BC" d="M952.3,840 C967.4,829.9 969.5,814.4 965.8,804 C964.5,800.3 962,797.1 960,793.4 C960,793 959.9,793.1 959.9,793.1 C970.4,794.7 979.2,800.2 987.8,806.1 C990.3,807.8 992.5,810.1 995,812.5 C990.4,818.1 986.1,824.1 980.6,828.5 C972.6,834.8 963,838.4 952.3,840 z"/>
<path fill="#4E392C" d="M827.8,744.5 C827.4,745 827,745.1 826.3,745.2 C823.1,731.1 825.9,718.4 834.7,707.1 C836.5,704.9 839.2,703.3 841.7,701.2 C842,701 841.9,701 841.9,701 C835.8,713.3 831.2,726.2 828.6,739.7 C828.3,741.2 828.1,742.6 827.8,744.5 z"/>
<path fill="#4E392C" d="M706.1,762.6 C705.7,763 705.2,763.1 704.4,762.7 C700.3,755.5 696.6,748.7 693,742 C693,742 693,742 693,741.7 C692.6,741.3 692.3,741.1 692,741 C692,741 692,741 692.1,740.7 C691.8,739.9 691.4,739.4 691,739 C691,739 691,739 691,738.7 C690.6,738.3 690.3,738.1 690,738 C690,738 690,738 690,737.6 C689.4,736.9 688.7,736.4 688,736 C688,736 688,736 688,736 C686.2,732.6 684.4,729.1 682.6,725.7 C691.7,727.1 705.2,749 706.1,762.6 z"/>
<path fill="#D37F40" d="M865.2,811.4 C864.8,813.4 864.2,815.1 863.3,816.9 C860.8,814.3 859.9,811.5 863.1,808 C863.9,809.2 864.5,810.1 865.2,811.4 z"/>
<path fill="#DC8544" d="M886.1,857.1 C885.3,857.1 884.8,856.9 884.2,856.6 C884.7,856.1 885.1,855.7 885.6,855.2 C885.9,855.8 886.1,856.3 886.1,857.1 z"/>
<path fill="#D57F3F" d="M931.4,547.4 C930.5,547.1 929.9,546.6 929.2,546.2 C929.5,545.8 929.8,545.5 930.2,545.2 C930.6,545.9 931.1,546.6 931.4,547.4 z"/>
<path fill="#D37F40" d="M865.5,806.4 C865,806.2 864.7,805.9 864.4,805.6 C864.7,805.3 865,805 865.3,804.7 C865.5,805.2 865.6,805.7 865.5,806.4 z"/>
<path fill="#4E392C" d="M842,701 C842.2,700.8 842.4,700.6 842.7,700.4 C842.8,700.4 842.9,700.5 843,700.6 C842.8,700.7 842.6,700.8 842.2,700.9 C841.9,701 842,701 842,701 z"/>
<path fill="#4E392C" d="M857.8,696.8 C858,696.8 858.2,696.8 858.2,697 C858.1,697.1 857.9,696.9 857.8,696.8 z"/>
<path fill="#FBE2BC" d="M951.3,840.3 C951.2,840.2 951.6,840 951.8,840 C951.9,840.2 951.7,840.3 951.3,840.3 z"/>
<path fill="#DD8747" d="M1006,813.2 C1007.3,811.8 1008.7,810.8 1010.1,809.4 C1013.2,809 1016.4,809.2 1019.4,808.7 C1020.4,808.5 1021.2,806.3 1021.8,804.8 C1022.2,803.5 1022.2,801.9 1022.4,800.5 C1023.5,801.3 1025,801.9 1025.5,803 C1026.3,804.8 1027.5,807.5 1026.8,808.8 C1025.7,811 1025.1,814.2 1020.5,813.8 C1017.5,813.5 1014.1,817 1010.1,819.2 C1009.1,818 1007.6,815.8 1006,813.2 z"/>
<path fill="#DD8747" d="M750.4,866 C750,865.2 750,864.5 750,863.4 C750.9,863.4 751.8,863.8 752.7,864.1 C752.1,864.8 751.4,865.4 750.4,866 z"/>
<path fill="#2C251F" d="M459.4,548.7 C460.7,548.8 461.7,548.9 462.7,549.1 C462.1,550.2 461.8,551.8 460.9,552.3 C451.6,558 441.8,562.7 430.7,564 C427.7,564.4 424.6,565 421.3,565.1 C425.9,559.9 429.7,553.9 438,553.9 C441,553.9 444.1,552.7 447.1,552 C451.1,551 455,549.9 459.4,548.7 z"/>
<path fill="#2C251F" d="M534.1,515.6 C534.1,511.7 534.3,508 534.5,504.4 C540.4,508.7 539.1,513.5 537.2,519.4 C536,517.9 535.2,516.9 534.1,515.6 z"/>
<path fill="#2C251F" d="M443.7,572.3 C445.5,572.1 447,572.1 448.5,572.1 C448.6,572.7 448.7,573.4 448.8,574 C445.6,575 442.3,576.1 439,577.2 C438.8,576.7 438.5,576.3 438.3,575.9 C439.9,574.7 441.6,573.6 443.7,572.3 z"/>
<path fill="#2C251F" d="M538.5,409.4 C538.7,408.9 538.9,408.7 539.2,408.4 C539.2,408.4 539.4,408.6 539.6,408.8 C539.3,409 539,409.3 538.5,409.4 z"/>
<path fill="#D98241" d="M507.7,818.3 C513.1,818.3 516.1,821.5 518.2,825.6 C519.5,828.1 518.3,829.9 515,829.9 C512.2,830 509.5,830.7 506.4,831 C506.5,826.8 507,822.7 507.7,818.3 z"/>
<path fill="#D98241" d="M524.7,792.8 C525.8,791 527.1,789.7 528.7,788.2 C529.3,789.7 529.6,791.3 529.8,792.9 C530.2,796.1 529.2,797.7 525.3,796.1 C524.9,795.1 524.9,794.1 524.7,792.8 z"/>
<path fill="#D98241" d="M530.2,787.9 C545.2,779 562,774.1 579.5,771.1 C586,769.9 592.6,769.1 599.6,768.2 C601.4,769.5 602.6,771.2 604.3,771.9 C609.1,773.8 614.9,773.1 618.3,778.3 C618.9,779.2 622,778.6 623.9,778.6 C626.5,778.5 629.4,777.4 631.6,778.3 C635.7,780.1 639.6,782.8 643.3,785.4 C647.3,788.1 651.6,787.1 654.6,783.4 C656,781.7 658.9,780.5 661.2,780.3 C662.5,780.1 664.4,782.4 665.4,783.9 C666.7,785.9 668.7,787.9 666.5,791 C666.1,791.6 669.4,795.8 671.7,797.2 C677.3,800.5 683.3,803 689,806.1 C691.7,807.5 694.1,809.6 696.9,811.7 C694.6,812.3 692.2,812.5 689.9,813.1 C687.7,813.6 685.5,814.6 682.9,815.5 C680.6,814.6 678.9,813.5 677,812.5 C673.7,810.8 670.4,809.9 668,814 C667.7,814.5 667.5,814.9 666.8,815.6 C656,810.4 644.8,807.6 633.3,808.4 C622.8,809.1 612.4,811.5 602,813.1 C602.1,809.6 602,808 597,807.2 C589.2,805.9 581.1,808.5 573.7,804.5 C573.2,804.2 572.1,804.8 571.4,804.7 C567.7,804.3 564,803.8 560.3,803.3 C557.6,802.8 554.8,801 553.3,805.7 C552.8,807.2 549.7,808.1 547.6,808.9 C544.8,810.1 541.6,810.5 539.1,812.1 C534,815.3 528.8,815.2 523.6,812.9 C520.8,811.7 520.1,809 523,807.8 C528.5,805.6 529.6,798.8 535.6,797.2 C536.5,797 537.4,792.4 536.6,790.6 C535.9,789.1 532.7,788.8 530.2,787.9 z"/>
<path fill="#DD8747" d="M692.9,742.3 C696.6,748.7 700.3,755.5 704,762.6 C702.7,763.3 701.3,763.6 699.5,764 C697,756.9 694.9,749.8 692.9,742.3 z"/>
<path fill="#2E2720" d="M601.8,813.3 C612.4,811.5 622.8,809.1 633.3,808.4 C644.8,807.6 656,810.4 666.7,815.8 C681.6,823.6 690,837 698.4,850.2 C699.6,852.1 700.5,854.7 696.6,855.6 C689,848.3 682,841.2 675,834.1 C674.7,834.4 674.3,834.6 673.9,834.9 C678.9,848.4 674.8,859.5 664.9,869 C664.9,869 665,869 664.7,869 C664.1,869.3 663.8,869.7 663.5,870 C657.2,871.3 651,872.7 644.4,874.2 C623.1,871.5 612.1,849.6 620.1,832 C621.5,828.9 623.7,826.2 625.6,823.3 C611.7,821.9 578.5,837.3 563.9,858.7 C563,859.5 562.5,859.8 562,860 C560.2,860.3 558.5,860.6 556,860.9 C554.1,861 553.1,861 552,861 C550.8,860.6 549.6,860.3 547.3,859.6 C551.2,854 554.8,848.9 558.8,843.4 C563.5,838.7 567.8,834.4 572.1,830.1 C573.7,828.9 575.2,827.8 577.1,826.3 C577.8,825.6 578.1,825.4 578.4,825.1 C579.4,824.5 580.5,823.9 582,823 C582.8,822.6 583,822.4 583.1,822 C583.1,822 583,822 583.3,822 C583.9,821.7 584.2,821.4 584.5,821.1 C585.2,820.8 585.9,820.5 587.1,820 C587.8,819.6 588.1,819.3 588.3,819.1 C590.4,818.2 592.4,817.3 595,816.1 C595.7,815.6 596,815.4 596.2,815.1 C596.2,815.1 596.1,815.2 596.5,815.2 C597.9,814.8 598.9,814.4 600,813.9 C600.5,813.8 601,813.6 601.8,813.3 M634.5,845.2 C640.1,846.6 644.7,843.9 645.7,838.8 C646.4,834.9 643.4,830.9 639.2,830.4 C635.3,829.9 632.4,831.6 630.8,835.2 C629.1,839.2 629.9,842.6 634.5,845.2 z"/>
<path fill="#D47E3D" d="M571.8,829.9 C567.8,834.4 563.5,838.7 559,843.1 C555.3,842.7 552,842.1 548.6,841.5 C548.6,841.2 548.5,841 548.5,840.8 C550.9,840.2 553.3,839.6 556.5,838.8 C553.6,835.2 551.4,832.3 549,829.5 C544.5,824.5 545.2,819.2 551.5,816.8 C558.1,814.2 565.1,812.4 571.9,810.3 C572.4,810.8 572.8,811.3 573.2,811.8 C572.5,814 572,816.3 571,818.4 C569.3,822.3 567.9,826 571.8,829.9 z"/>
<path fill="#D47E3D" d="M519.9,859.4 C520.1,862.4 519.6,865.5 524.1,864.4 C524.5,864.3 525.8,865.7 525.8,866.4 C525.7,867.2 525,868.3 524.2,868.9 C523.5,869.5 522.4,869.5 521.6,870 C515.2,874.2 511.1,872.7 510.4,865 C510.2,862.9 513.3,860.4 515.1,858.4 C516.8,856.6 518.6,856.4 519.9,859.4 z"/>
<path fill="#D47E3D" d="M546.9,852 C544.1,853 541.1,854.5 538.5,854 C535.3,853.3 532.5,851 529.5,849.3 C529.5,849 529.5,848.4 529.5,848.4 C534.1,848.1 538.5,847.1 542.9,845.3 C543.3,845.2 545.6,849.4 546.9,852 z"/>
<path fill="#D47E3D" d="M538.3,874.7 C534.6,874.5 531.2,874.1 527.5,873.7 C527.8,870.2 528.8,868.2 532.7,869.7 C534.1,870.2 535.7,869.8 537.1,870.1 C539.9,870.7 540.9,872.1 538.3,874.7 z"/>
<path fill="#D47E3D" d="M542.7,837 C541.8,839.6 540.9,841.8 539.8,844.2 C536.2,840.9 536.3,840.7 540.5,833.6 C541.3,834.8 542,835.7 542.7,837 z"/>
<path fill="#D47E3D" d="M552,861.4 C553.1,861 554.1,861 555.6,861 C555.6,866 554.5,867.2 549.1,868.5 C550.1,866.1 551,863.9 552,861.4 z"/>
<path fill="#D47E3D" d="M562,860.4 C562.5,859.8 563,859.5 563.8,859.1 C565.4,860.1 566.7,861.2 568.1,862.6 C566.4,861.7 562.3,867 562,860.4 z"/>
<path fill="#D47E3D" d="M524.5,849.3 C521.5,851.4 521.5,851.4 520,846.7 C521.5,847.5 522.9,848.3 524.5,849.3 z"/>
<path fill="#D98241" d="M517.8,819.8 C517,818.9 516.4,817.9 515.9,816.8 C516.8,816.7 517.7,816.6 518.6,816.4 C518.5,817.5 518.3,818.7 517.8,819.8 z"/>
<path fill="#D47E3D" d="M546.6,869.1 C546.9,870.3 546.8,871.5 546.8,872.7 C546,872.5 545.2,872.3 544.5,872.1 C545.1,871.1 545.7,870.1 546.6,869.1 z"/>
<path fill="#D98241" d="M599.7,813.7 C598.9,814.4 597.9,814.8 596.5,815.2 C597.3,814.6 598.4,814 599.7,813.7 z"/>
<path fill="#D47E3D" d="M548,834.6 C547.7,834.2 547.7,833.8 547.7,833.4 C547.7,833.4 548.1,833.4 548.2,833.4 C548.2,833.8 548.2,834.2 548,834.6 z"/>
<path fill="#D98241" d="M582.9,822.1 C583,822.4 582.8,822.6 582.3,822.8 C582.2,822.6 582.4,822.3 582.9,822.1 z"/>
<path fill="#D98241" d="M595.9,815.2 C596,815.4 595.7,815.6 595.3,815.9 C595.1,815.6 595.4,815.4 595.9,815.2 z"/>
<path fill="#D98241" d="M588.1,819.1 C588.1,819.3 587.8,819.6 587.3,819.9 C587.3,819.7 587.5,819.4 588.1,819.1 z"/>
<path fill="#D98241" d="M584.2,821.1 C584.2,821.4 583.9,821.7 583.3,822 C583.3,821.8 583.6,821.5 584.2,821.1 z"/>
<path fill="#D47E3D" d="M577.2,869.5 C577.4,869.3 577.6,869.4 577.9,869.8 C577.8,869.9 577.5,869.8 577.2,869.5 z"/>
<path fill="#D98241" d="M578.1,825.2 C578.1,825.4 577.8,825.6 577.3,826 C577.3,825.8 577.5,825.5 578.1,825.2 z"/>
<path fill="#FBE2BC" d="M665.3,869.1 C674.8,859.5 678.9,848.4 673.9,834.9 C674.3,834.6 674.7,834.4 675,834.1 C682,841.2 689,848.3 696.2,855.6 C694.4,860.8 689.7,861.5 685.6,863 C679,865.2 672.4,867.1 665.3,869.1 z"/>
<path fill="#CE773B" d="M668.4,814 C670.4,809.9 673.7,810.8 677,812.5 C678.9,813.5 680.6,814.6 682.7,815.8 C684.1,818.3 685.2,820.6 686.3,822.9 C685.9,823.3 685.5,823.8 685.1,824.3 C683.3,823.3 681.5,822.5 679.9,821.3 C676.4,818.6 674.2,813.8 668.4,814 z"/>
<path fill="#FBE2BC" d="M663.8,869.9 C663.8,869.7 664.1,869.3 664.7,869 C664.7,869.2 664.4,869.5 663.8,869.9 z"/>
<path fill="#D37F40" d="M857.3,733.3 C857.3,733.6 857.2,733.9 856.7,734.3 C856.4,734.3 856.2,734.2 855.9,733.9 C855.9,733.5 856.2,733.2 856.8,733 C857.1,733.1 857.3,733.3 857.3,733.3 z"/>
<path fill="#D37F40" d="M858,732 C857.9,732.3 857.8,732.6 857.5,733.1 C857.3,733.3 857.1,733.1 857,733 C857,732.6 857.2,732.3 857.8,732.1 C858,732 858,732 858,732 z"/>
<path fill="#D37F40" d="M858,732 C858,732 858.3,731.6 858.3,731.6 C858.3,731.6 858.2,731.9 858.1,731.9 C858,732 858,732 858,732 z"/>
<path fill="#DD8747" d="M857,700 C856.9,700 856.8,700 856.9,700 C857,700 857,700 857,700 z"/>
<path fill="#DD8747" d="M858,699 C857.9,699.4 857.7,699.6 857.2,699.9 C857,700 857,700 857,700 C857.1,699.7 857.2,699.4 857.6,698.9 C857.8,698.8 857.9,699 858,699 z"/>
<path fill="#DD8747" d="M688,736.3 C688.7,736.4 689.4,736.9 690.1,737.7 C689.3,737.6 688.6,737.1 688,736.3 z"/>
<path fill="#DD8747" d="M690.8,739.3 C691.4,739.4 691.8,739.9 692.1,740.7 C691.6,740.6 691.1,740.1 690.8,739.3 z"/>
<path fill="#D37F40" d="M685.9,757.1 C685.6,756.9 685.5,756.7 685.3,756.5 C685.5,756.5 685.7,756.5 686.1,756.6 C686.2,756.8 686,757 685.9,757.1 z"/>
<path fill="#DD8747" d="M692,741.3 C692.3,741.1 692.6,741.3 693,741.7 C692.7,741.9 692.3,741.7 692,741.3 z"/>
<path fill="#DD8747" d="M689.9,738.3 C690.3,738.1 690.6,738.3 691,738.7 C690.7,738.9 690.3,738.8 689.9,738.3 z"/>
<path fill="#DD8747" d="M559,736 C558.9,736.3 558.8,736.5 558.7,736.7 C558.6,736.5 558.6,736.3 558.8,736 C559,736 559,736 559,736 z"/>
<path fill="#D37F40" d="M883.6,789.2 C881.5,782.2 888.6,782.1 891.8,779.4 C896,775.9 901.7,774.3 908.1,776.1 C900.4,780.5 892.2,784.8 883.6,789.2 z"/>
<path fill="#DC8544" d="M909.2,776.2 C909.4,775.8 909.9,775.5 910.8,775.2 C910.6,775.5 910.1,775.9 909.2,776.2 z"/>
<path fill="#D37F40" d="M882.4,790.3 C882.3,790.1 882.4,789.7 882.9,789.2 C883,789.5 882.8,789.8 882.4,790.3 z"/>
<path fill="#FBE2BC" d="M960,793 C959.8,792.8 959.7,792.7 959.5,792.6 C959.7,792.6 959.9,792.7 960,792.9 C959.9,793.1 960,793 960,793 z"/>
</svg>
