<svg xmlns="http://www.w3.org/2000/svg" fill="#f90" viewBox="0 0 24 24"><title>Amazon AWS</title><path d="M6.8 10v.7l.3.6v.4l-.6.4h-.4l-.3-.4-.3-.5a3 3 0 0 1-2.3 1q-1 0-1.6-.5a2 2 0 0 1-.6-1.5q0-1 .7-1.7.8-.6 2-.6l1.7.3v-.6q0-.9-.3-1.3-.4-.4-1.3-.4l-.9.1-.9.3-.2.1h-.2l-.1-.2v-.7l.2-.1 1-.4L4 4.8q1.4 0 2 .7.7.5.7 2zm-3.3 1.2h.8l.8-.6.3-.5V9l-.7-.2H4q-.9 0-1.2.3-.4.3-.4 1 0 .5.3.8t.8.3m6.4 1-.3-.2-.1-.3-2-6.1v-.4q0-.2.2-.2h.8l.3.1.2.3 1.3 5.3 1.2-5.3.2-.3H13l.1.3 1.3 5.4 1.4-5.4.1-.3H17l.2.1v.4l-2 6.1q0 .3-.2.3l-.3.1h-1l-.1-.4-1.3-5.1-1.2 5.1q0 .3-.2.3l-.3.1zm10.3.1A5 5 0 0 1 18 12l-.2-.3V11l.1-.2h.4a4 4 0 0 0 1.8.4q.7 0 1.2-.2a1 1 0 0 0 .4-.8l-.2-.5-.8-.5-1.2-.3q-.9-.3-1.3-.8a2 2 0 0 1-.4-1.2L18 6l.6-.6.8-.4 1.6-.1h.5l.8.3.2.2.1.3V6q0 .2-.2.2h-.3l-1.5-.4-1 .2q-.4.3-.4.7t.2.6q.2.3.9.4l1.1.4q.9.3 1.2.8.4.5.4 1t-.2 1-.6.7q-.3.3-.9.5zm1.5 4A17.6 17.6 0 0 1 .1 14.6q-.2-.6.3-.4a24 24 0 0 0 21 1.3c.4-.2.7.3.3.6m1-1.3c-.2-.5-2.1-.2-3-.1q-.4 0 0-.4c1.5-1 4-.8 4.2-.4s0 2.8-1.5 4q-.4.2-.3-.1c.3-.8 1-2.6.7-3"/></svg>