<svg xmlns="http://www.w3.org/2000/svg" width="100" height="100"><path fill="#006fb8" d="M50 6c15 1.2 25.7 3.9 36 15.2A48 48 0 0 1 97 58a47 47 0 0 1-17 30 49 49 0 0 1-38.4 8.3 48 48 0 0 1-30.2-22A52 52 0 0 1 6 50h44z"/><path fill="#000202" d="M50 6c15 1.2 25.7 3.9 36 15.2A48 48 0 0 1 97 58a47 47 0 0 1-17 30 49 49 0 0 1-38.4 8.3 48 48 0 0 1-30.2-22A52 52 0 0 1 6 50h44zm3 4v83q15.3 0 27-10a44 44 0 0 0 13.6-32A42 42 0 0 0 80 20a41 41 0 0 0-27-10"/><path fill="#e51b22" d="M47 3v44H3c0-13.6 2.1-22.1 11.7-31.8A41 41 0 0 1 47 3"/><path fill="#008d42" d="M50 55v38a41 41 0 0 1-28.1-11c-2-2-2.5-3.2-2.9-6a546 546 0 0 1 25.3-18c4.6-3 4.6-3 5.7-3"/><path fill="#020000" d="M47 3v44H3c0-13.6 2.1-22.1 11.7-31.8A41 41 0 0 1 47 3M17 17.8A41 41 0 0 0 6 44h38V6a40 40 0 0 0-27 11.8"/><path fill="#f08e1d" d="M10 53h36a54 54 0 0 1-8.3 7l-2.5 1.8-2.5 1.7-2.5 1.7Q23.3 70 16 74c-3.7-7-6-12.8-6-21"/><path fill="#090b03" d="m43 55 2 1c-2.2 5.5-7.2 8-12 11.3l-2.7 2-2.7 1.9-2.5 1.7L23 74l-3-1a33 33 0 0 1 9.8-9q6.8-4.3 13.2-9"/><path fill="#001a2b" d="M57 20h16v4H57z"/><path fill="#000508" d="M56 33h22v3H57z"/><path fill="#000d16" d="M56 27h22l-1 3H57z"/><path fill="#000703" d="M33 83h14l-1 3H33z"/><path fill="#001208" d="M33 77h14l-1 3H33z"/><path fill="#001f0f" d="M37 70h9v4h-9z"/></svg>