<svg xmlns="http://www.w3.org/2000/svg" fill="#2496ed" viewBox="0 0 24 24"><title>Docker</title><path d="M14 11H16l.2-.1V9l-.2-.2H14l-.2.2V11q0 .2.2.2m-3-5.5h2.1l.2-.1v-2l-.2-.1h-2a.2.2 0 0 0-.3.2v1.9zm0 2.8h2.1l.2-.2v-2l-.2-.1h-2a.2.2 0 0 0-.3.2v1.9zm-2.9 0h2.1l.2-.2v-2l-.2-.1H8.1l-.2.2v1.9zm-3 0h2.2l.1-.2v-2l-.1-.1H5l-.1.2v1.9zm6 2.7h2l.2-.2V9l-.2-.2h-2a.2.2 0 0 0-.3.2V11zm-2.9 0h2.1l.2-.2V9l-.2-.2H8.1l-.2.2V11zm-3 0h2.2l.1-.2V9l-.1-.2H5L5 9V11zm-2.9 0h2.1l.2-.2V9l-.2-.2h-2A.2.2 0 0 0 2 9V11zm21.6-1.2c-.1 0-.7-.5-2-.5h-1A4 4 0 0 0 19.1 7l-.4-.2-.2.3-.6 1.5q-.2 1.5.4 2.6c-.6.4-1.5.4-1.7.4H.8a1 1 0 0 0-.8.8 11 11 0 0 0 .7 4A6 6 0 0 0 3 19.6q1.9 1 5.3 1.1 1.5 0 3-.3A12 12 0 0 0 15 19q1.5-.9 2.6-2.2 1.8-2.2 2.6-4.4h.2q2-.1 2.7-1l.7-1 .1-.3Z"/></svg>