<svg xmlns="http://www.w3.org/2000/svg" width="100" height="100"><path fill="#e43961" d="M0 3h100v67H63l2 6h9v8h-4l2 3.3c1.9 3 2 3.8 2 7.7-2.6 1.5-3.9 2-7 2l-3-5.4-1.7-3C61 86 61 86 61 84H39l-2 5-2.1 4.3-1.1 2.1L33 97c-4.7-.7-4.7-.7-7-3 .4-3.7 2.3-6.8 4-10h-4v-8h9l2-6H0zm7 7v53h86V10zm39 60-2 6h12l-2-6z"/><path fill="#e43961" d="M81 16c2.5 1.3 2.5 1.3 5 3 0 5-2 7-5 10.7l-1.4 1.7Q73.6 39 67 46l-2.5-.8-18.9-5.5-3.5-1c-3.2-.7-5-.8-8.1.3-1.6 1.3-1.6 1.3-2.8 3L29.8 44l-1.4 2-2.8 3.7-1.3 1.8q-2.4 3-5.3 5.6c-3.5-1.4-4.5-2.6-6-6l2.1-2.5 1.4-1.6 3-3.5q5.6-6.6 10.4-13.8C32 28 32 28 35.5 28c5.7 1 11.4 2.9 17 4.6l3.4 1L64 36q6.7-7.4 13-15l2.3-3z"/></svg>