<svg xmlns="http://www.w3.org/2000/svg" width="64" height="64"><path fill="#aa2eff" d="M23 15a17 17 0 0 1 9 9c.4 4 .1 8 0 12H10c1.8 3.2 1.8 3.2 4 6 3.4.4 3.4.4 7 0l2-2c2.4-2.4 3-2.3 6.3-2.2l3.7.2c-2.3 5.6-4.2 9.5-10 12a23 23 0 0 1-14.5-1.7C4.8 45 2.9 42.1 2.5 37v-6.7c0-5.2 1.1-8.1 4.5-12.3 4.5-4 10.2-3.8 16-3m-11.4 8.8C9.6 26 9.6 26 10 30h15c-.6-4.6-.6-4.6-2.1-6.8-3.9-2.5-7.7-2-11.3.6"/><path fill="#bb28ff" d="M28 16c3.2-.6 5.9-.8 9 0q4.2 4 7 9c3.5-3.3 3.5-3.3 6.3-7.3 2.2-2.2 3.3-2 6.4-2l4.3.3q-4.7 8.5-11 16c4.1 6.4 4.1 6.4 8.9 12.4C61 47 61 47 61 49c-3.2.5-5 .8-8 0a55 55 0 0 1-8-9l-2.2 2.3L40 45l-1.8 2.3c-3.4 2.6-6 2-10.2 1.7q2.7-5.5 6.6-10.2L36 37 39 33q-4.3-6.6-8.9-13C28 17 28 17 28 16"/><path fill="#acb7ff" d="M23 18c4 2.4 5.9 4.5 7 9v7H7c1.3 6.6 1.3 6.6 4.2 9.4 3.6 2 5.7 2.3 9.8 1.6 2.3-1.5 4-3 6-5l2 1c-2.7 3.7-4.5 5.8-9 7a13 13 0 0 1-9.2-1.6c-4-3.4-5.5-6-6.1-11.2-.2-4.9-.1-8.3 2-12.8C11.9 17 15.8 16.1 23 18m-11.4 5.8C9.6 26 9.6 26 10 30h15c-.6-4.6-.6-4.6-2.1-6.8-3.9-2.5-7.7-2-11.3.6"/><path fill="#2864ff" d="M28 16c3.2-.6 5.9-.8 9 0q4.2 4 7 9c3.5-3.3 3.5-3.3 6.3-7.3 2.2-2.2 3.3-2 6.4-2l4.3.3a85 85 0 0 1-9.5 14c-1.7 2-1.7 2-2.5 5h-2c-.6-1.8-.6-1.8-1-4a69 69 0 0 1 6.4-8.6L56 18q-4.5 4.3-8.3 9.3L46 29.4 45 31c-3-2.8-5.4-5.4-7.7-8.7-2-3.3-2-3.3-4.3-4.3l2.2 2.7 2.9 3.6 1.4 1.7c1.4 1.8 1.4 1.8 3.5 5-.4 2.2-.4 2.2-1 4-3-2-4-3.2-5.9-6.2q-3-4.6-6-8.8C28 17 28 17 28 16"/><path fill="#92b5ff" d="M33 18c3.9 1.5 5.5 3.7 7.8 7.1l1.8 2.8L44 30q4.8-4.7 8.6-10.4L54 18h2c-1.9 4.2-4.7 7.3-7.7 10.7-1.6 2.2-1.6 2.2-.8 4.8A55 55 0 0 0 55.3 44l1.7 2-2 1a71 71 0 0 1-10-12 71 71 0 0 0-10 12l-3-1 2.2-2.5 2.9-3.2 1.4-1.7c2.7-3 2.7-3 3.6-6.7a43 43 0 0 0-5.2-7C33 20.2 33 20.2 33 18"/><path fill="#694aff" d="M21 19a17 17 0 0 1 7 7v6H7c0-7 .5-7.4 5-12 3.1-1.6 5.5-1.3 9-1m-9.4 4.8C9.6 26 9.6 26 10 30h15c-.6-4.6-.6-4.6-2.1-6.8-3.9-2.5-7.7-2-11.3.6"/><path fill="#ba2aff" d="M3 27h2l.1 2.2c.5 6.7.8 12 6 16.7 4.1 1.6 7.7 1.2 11.9.1 2.3-1.5 2.3-1.5 4-3l3 1c-4.3 4.4-6.1 6.2-12.2 6.3-5.1 0-8-.8-11.8-4.3-3.1-4.1-3.3-7.2-3.2-12.3v-3.8z"/><path fill="#236aff" d="M23 15c4.5 2.2 7 4.5 9 9v4l-3-1-1.3-2.9c-2-3.8-3.6-4.7-7.7-6.1-4-.6-5.6-.2-9.2 1.7A22 22 0 0 0 5 27H3c.5-4.4 2-6.8 5-10 4.7-3 9.7-2.6 15-2"/><path fill="#7645ff" d="M30 28h2v8H10l1 4-3 1-1-7h23z"/><path fill="#6cb9ff" d="M23 18c4 2.2 4.8 3.5 6.3 7.8L30 29h-2l-1.2-2.8C25 23 24.2 21.6 21 20c-4-.5-6.2-.5-9.7 1.6C8.8 24.2 7.4 26.7 6 30c-.7-1.6-.7-1.6-1-4 4.3-8.2 9.3-10.3 18-8"/><path fill="#b6a8ff" d="M43 33h4q2.6 2.8 4.7 5.9l1.2 1.7q2.4 2.9 4.1 6.4c-3.2-.3-4-1-6.1-3.5l-2.1-3-2.2-3.1L45 35a71 71 0 0 0-10 12l-3-1 6.7-8.4z"/><path fill="#973fff" d="M44 34c2.6 2.6 5 5 7 8v3a15 15 0 0 1-7-5l-3 4-4-1z"/><path fill="#db9dff" d="m6 38 2.3 2.4c3 3 4.7 4.5 9 5 4.8-.5 6.3-2 9.7-5.4l2 1c-2.7 3.7-4.5 5.8-9 7-4 .5-5.7.2-9.2-1.8C8 44 8 44 6 41z"/><path fill="#375bff" d="M21 19c2.4 2 2.4 2 4 4l-3 1-1-1c-5-.4-8 0-12 3 0-3 0-3 2-5.2 3.7-2.3 5.8-2.4 10-1.8"/><path fill="#8441ff" d="M3 27h2l.2 2.2Q5.7 36.7 7 44l-2 1c-2.4-3.7-2.2-7-2.1-11.2v-3.9z"/><path fill="#8640ff" d="M11.3 34.8h3L32 35v1H10l1 4-3 1c-.6-1.9-.6-1.9-1-4 2-2 2-2 4.3-2.2"/><path fill="#535cff" d="M39 22h3l3 3c2.1.7 2.1.7 4 1l-5 5-2.5-3.4-1.4-1.9C39 24 39 24 39 22"/><path fill="#9738ff" d="M38 34h3a21 21 0 0 1-7 10l-3-1 5.2-7z"/><path fill="#993aff" d="M49 34c3.3 1.1 3.8 1.7 5.7 4.4l1.3 2c1 1.6 1 1.6 1 3.6-2.7-.4-3.7-.7-5.5-2.8l-1.2-2.3q-.8-1-1.3-2.2L48 35z"/><path fill="#6351ff" d="M35 25c3.1.3 4 1 6.3 3.3 1.7 2.7 1.7 2.7 1.5 5L42 35a21 21 0 0 1-7-8z"/><path fill="#614dff" d="m51 25 3 1-3 5.3-2 3.7h-2c-.8-1.6-.8-1.6-1-4q2.3-3.1 5-6"/><path fill="#9735ff" d="M25 38h8l-3 6c-2-1-2-1-3-3l-4 2z"/><path fill="#435dff" d="M27 18c3.7 3 4.6 5.2 5 10-3-1-3-1-4.6-4L26 21l-1-2z"/><path fill="#3e5dff" d="m7 18 3 2-2.4 3.5-1.3 2L5 27H3c.5-3.8 1.5-6 4-9"/><path fill="#5252ff" d="m23 23 4 1 1 7h-3z"/><path fill="#9e33ff" d="M45 38c1.9.3 1.9.3 4 1 2 3 2 3 2 6-3.4-1.1-4.1-2-6-5z"/><path fill="#d69aff" d="m39 38 2 1-6 8-3-1z"/><path fill="#3a62ff" d="m32 18 5 5v2c-1.8-.2-1.8-.2-4-1-1.7-2.6-1.7-2.6-3-5z"/><path fill="#d79dff" d="M49 38q4.5 4.2 8 9c-1.7-.1-1.7-.1-4-1-4-5.2-4-5.2-4-8"/><path fill="#3c60ff" d="m57 19 2 1-5 6-2-1c1.4-3.2 2-4 5-6"/><path fill="#5a54ff" d="M10 24c1.3 2.7.7 4.2 0 7H7c-.2-2.4-.2-2.4 0-5z"/><path fill="#69b5ff" d="M33 18c3.8 1.5 5.1 3.4 7 7h-3c-4-4.3-4-4.3-4-7"/><path fill="#7bb6ff" d="M8 21h2a91 91 0 0 1-4 9c-.7-1.7-.7-1.7-1-4 1.3-2.7 1.3-2.7 3-5"/><path fill="#68b5ff" d="M54 18h2a57 57 0 0 1-4 7l-3-1z"/></svg>