<svg xmlns="http://www.w3.org/2000/svg" fill="#2088ff" viewBox="0 0 24 24"><title>GitHub Actions</title><path d="m11 13.8-.4-.1-.7-.8a.5.5 0 1 1 .7-.7l.4.4 1.2-1.2a.5.5 0 0 1 .7.8l-1.6 1.5zm9.3-.1 1.6-1.5a.5.5 0 0 0-.7-.7L20 12.5l-.4-.4a.5.5 0 1 0-.7.7l.7.8a1 1 0 0 0 .7 0M4.5 7.5l2.6-1.6a1 1 0 0 0 0-1.7L4.5 2.6a1 1 0 0 0-1.5.8v3.2a1 1 0 0 0 1.5.9m2-2.5L4 6.6V3.4zM24 12.5c0 2-1.6 3.5-3.5 3.5a3.5 3.5 0 0 1-3.5-3h-2a3.5 3.5 0 0 1-3.5 3A3.5 3.5 0 0 1 8 13h-.5Q5.9 13 5 12v5a3 3 0 0 0 3 3 3.5 3.5 0 1 1 3.5 4A3.5 3.5 0 0 1 8 21a4 4 0 0 1-4-4V9.9A5 5 0 0 1 0 5a5 5 0 0 1 10 0 5 5 0 0 1-5 5 2.5 2.5 0 0 0 2.5 2H8c.3-1.7 1.7-3 3.5-3a3.5 3.5 0 0 1 3.5 3h2a3.5 3.5 0 0 1 3.5-3c2 0 3.5 1.6 3.5 3.5m-15 8a2.5 2.5 0 1 0 5 0 2.5 2.5 0 0 0-5 0M5 9a4 4 0 1 0 0-8 4 4 0 0 0 0 8m9 3.5a2.5 2.5 0 1 0-5 0 2.5 2.5 0 0 0 5 0m9 0a2.5 2.5 0 1 0-5 0 2.5 2.5 0 0 0 5 0m-13 8a.5.5 0 1 0 1 0 .5.5 0 0 0-1 0m2 0a.5.5 0 1 0 1 0 .5.5 0 0 0-1 0m12 0c0 2-1.6 3.5-3.5 3.5a3.5 3.5 0 0 1-3.5-3h-.5a.5.5 0 0 1 0-1h.5a3.5 3.5 0 0 1 3.5-3c2 0 3.5 1.6 3.5 3.5m-1 0a2.5 2.5 0 1 0-5 0 2.5 2.5 0 0 0 5 0"/></svg>