<svg xmlns="http://www.w3.org/2000/svg" width="800" height="800" viewBox="0 0 73 73"><title>databases-and-servers/servers/graphql</title><g fill="none" fill-rule="nonzero"><rect width="71" height="71" x="-1" y="-1" fill="#fff" stroke="#640b47" stroke-width="2" rx="14" transform="translate(2 2)"/><g fill="#e535ab"><path d="m17.3 50.4-2-1 21.2-36.7 2 1.1z"/><path d="M15 46.4h42.3v2.2H15z"/><path d="M37 59.8 15.7 47.6l1.1-2L38 58zM55.3 28 34 15.8l1.1-2 21.2 12.3z"/><path d="m17 28-1.2-2L37 14l1 1.9z"/><path d="M55 50.3 33.7 13.7l1.9-1 21.1 36.5zM16.6 24.7h2.2v24.4h-2.2z"/><path d="M53.4 24.7h2.2v24.4h-2.2z"/><path d="m36.5 59-1-1.7L54 46.7l1 1.6z"/><path d="M58.5 49.8a4.6 4.6 0 1 1-8-4.6 4.6 4.6 0 0 1 8 4.6M21.7 28.5a4.6 4.6 0 1 1-8-4.6 4.6 4.6 0 0 1 8 4.6M13.7 49.8a4.6 4.6 0 1 1 8-4.6 4.6 4.6 0 0 1-8 4.6M50.5 28.5a4.6 4.6 0 1 1 8-4.6 4.6 4.6 0 0 1-8 4.6M36 62.7a4.6 4.6 0 1 1 0-9.2 4.6 4.6 0 0 1 0 9.2M36 20.2a4.6 4.6 0 1 1 0-9.2 4.6 4.6 0 0 1 0 9.2"/></g></g></svg>