<svg xmlns="http://www.w3.org/2000/svg" fill="#d24939" viewBox="0 0 24 24"><title>Jenkins</title><path d="M2.9 24h-1v-.2q-.5-1.1-.8-2.2c-.1-1 .8-1 1.4-1.4l2.6-1.6c.3-.2 1.2-.7 1.3-.9.2-.4-.3-1-.5-1.3L5.6 15q-1.3-.2-1.9-1.2-1-1.7-.5-4l.3-.4-.2-1c0-1.7.3-3.2 1.5-3.7.4-1.8 2-2.4 3.6-3.4l2-.8c2.3-.8 6-.7 8 .8.8.6 2.1 2 2.6 3 1.2 2.5 1.2 6.8.3 9.9l-.6 1.5c-.1.4-.7 1-.6 1.4s1.2 1.2 1.4 1.4c.5.4 1.3 1 1.4 1.5q-.1.9-.4 1.9l-.7 2zm11-3.5q-.9-.5-2-.8c-.9-.2-.8 1.2-.7 2q.1 1 .5 1.7 0 .4.2.5c.3 0 1.3-.3 1.6-.5q.8-.5 1.6-1.2v-.5l-1-.3q.4 0 1-.3V21q-.6 0-1-.4zm7.5 2.9.5-1.8.2-1.1c0-.5-.7-.8-1-1.1l-1.6-1.5c-.2.4-.8.6-1 1 1.5-.8 1.7 2.6 1.2 3.6q.2.4.5.8l-.1.1zm-6.6 0-.2-.2-.3.2zm2.8 0v-.6c-.5 0-.8-.5-1.2-.5q-.4.2-1 .2l-.3.3.4.6h.8q0-.3.3-.3t.3.2zm2 0c-.2-.5-.9-1-1.6-.6v.6zm-8.4 0L11 23q-.4-1-.4-1.6L8 19.9l-1.2-1.3Q4 19.8 2 21.6l.7 1.8zm8.2-2.1c0-.5-.1-1.6-.4-1.8-.7-.4-1.9.8-2.4 1q.1.1.2.5h.9q-.5 0-.9.2v.8q1 .3 2.4.3.3-.4.2-1zm-4-.4v1c1.3.3 1.1-1.8 0-1zm-6.6-1.4c-.5.5 1.2 1 1.8 1.1l.1-.8q-1 0-2-.3m5.5.2q.7.7 1.8.6l1-.8c-.9 0-2 .6-2.8.2M17.7 2c-1.6-1-4.3-1.6-6-.7-1.4.7-3.3 1.8-4 3.3.7 1.4-.1 2.6-.2 4 0 .8.4 1.5.4 2.3q-.4.4-1.2.4-.2-1.4-1.2-1.7-1.6.2-1.9 1.7c0 1 .9 2.9 2.1 2.8.5 0 .6-.6 1.2-.6.2.6-.5.8-.6 1.2l.1.7Q7 17 7.7 18.3q1 1.1 3.2 1.1c.2-.5 1.1-.5 1.7-.4q-1-.4-1.9-1.5-1-1-1.2-2.3c1.1 1.6 2 3 4.2 3.7 1.6.6 3.4-.2 4.6-1q.8-.7 1.2-1.5 2-3.2 1.9-7.4 0-1.7-.5-3c-.4-.7-1.7-1.4-2.5-.7q0-1.3 1.6-1c-.7-.8-1.3-1.9-2.3-2.4zm-4.1 12.9c.6 1.5 2.7 1.4 4.5 1.3q-.2.4-.5.5c-.6.3-2.1.4-3 0-.4-.2-.7-.9-1-1.2-.2-.2-.8-.6 0-.6zm.1-.9c1 .5 2.6.5 3.8.5v1c-1.5 0-3.3-.4-3.8-1.5m6.7-.6c-.5 1-1.1 2-2.5 2v-1c1 0 1.7-.6 2.5-1m-.6-.6c-1 .6-2.2 1.3-3.9 1.2q-.5-.6 0-1.5c0 .3 0 1 .5 1 1 .2 2-.6 2.7-.8.4-.8 0-1-.4-1.5-.8-1-1.8-2-1.8-3.5.3-.2.3.4.4.5.4 1 1.4 2.1 2.1 3l.6.5q-.2.6-.3 1.1zM6.3 12c-.3-.2-.4-1-.7-1-.6 0-.5 1-.5 1.7-.3-.4-.4-1.4-.1-2q-.4 0-.7.4c.3-1.6 2.4-.8 2 1zM4.7 6c-.7.8-.5 2.2-.4 3.2 1.2-.8 2.9 0 2.8 1.4.6 0 .3-.8.2-1.2-.4-1.6.5-3.2 0-4.6Q5.7 4.8 4.7 6m9.1 1.1q.3 1 .9 1.6.4.2.4 1l-.6.4c-.7.2-2.2 0-1.7-.8.6 0 1.3.3 1.7 0-.3-.6-.9-1.6-.7-2.2zm6.2 0zl1 2c-.3.6-2 1.2-2 0q.7-.1 1.4-.2Q20 8.2 20 7zm-6.9-1.6C11.7 5 11 6 10.5 7c-.3 0-.2-.6 0-.9.2-.7 1.2-1.6 2-1.5.4.1.9.4.6.9m-3.5-4c-1.5.5-3.5 1.7-4.2 3q.7-.1 1.4-.3h.6c.4 0 .8-1 1.1-1.4l1-.8q.3 0 .4-.3-.1-.1-.3-.1"/></svg>