<svg xmlns="http://www.w3.org/2000/svg" width="800" height="800" preserveAspectRatio="xMidYMid" viewBox="0 -139 512 512"><g fill="#1a1919"><path d="M49.8 21a14.3 14.3 0 0 0-20.3 0 14.3 14.3 0 0 0 0 20.2v.1q4 4 10.1 4.1 6.2-.1 10.2-4.1T54 31Q53.9 25 49.8 21M39.6 217q6.2-.1 10.2-4.2a14.3 14.3 0 0 0 0-20.2 14 14 0 0 0-10.2-4.3 14 14 0 0 0-10 4.2h-.2a14.3 14.3 0 0 0 0 20.3h.1q4 4 10.1 4.2m78-43.4c3.6-1 6.8-3.2 8.8-6.7l.3-.5c1.7-3.2 2-7 1-10.3-.9-3.6-3.2-6.8-6.6-8.8h-.2a14.3 14.3 0 0 0-19.4 5.3 14.3 14.3 0 0 0 5.3 19.6q5.3 2.9 10.9 1.4m-63.3-71.4a20.8 20.8 0 1 0-29.4 29.3 20.8 20.8 0 0 0 29.4-29.3M46 77.8A39 39 0 0 1 67.6 89q1.5 1.4 2.6 2.9l14.4-8.3Q81.7 74.7 84 66c2-7.6 7-14.4 14.4-18.7l.2-.2a30.7 30.7 0 0 1 42 11.5 31 31 0 0 1-11.3 42.2l-2 1.1h-.2A31 31 0 0 1 91 94.7L76.7 103a39 39 0 0 1 0 28l14.3 8.2a30.5 30.5 0 0 1 38.4-6l.5.1a31 31 0 0 1 10.8 42l-.3.5a31 31 0 0 1-42 10.8 31 31 0 0 1-13.8-36.3L70.2 142l-2.6 2.9A39 39 0 0 1 46 156v16.5q9.1 2 15.5 8.4a30.7 30.7 0 0 1 0 43.7 31 31 0 0 1-43.7 0 30.7 30.7 0 0 1 0-43.6c4.1-4.3 9.5-7.2 15.4-8.5V156a39 39 0 0 1-21.5-11v-.1a39.5 39.5 0 0 1 0-56 39 39 0 0 1 21.5-11V61.3Q24 59.3 17.8 53a31 31 0 0 1 0-43.7 31 31 0 0 1 43.7 0 31 31 0 0 1 0 43.6A31 31 0 0 1 46 61.5zm80.4-11-.1-.1a14.3 14.3 0 0 0-19.5-5q-5.3 3-6.7 8.6t1.4 11a14 14 0 0 0 8.7 6.5c3.6 1 7.5.6 10.9-1.4h.2a14.3 14.3 0 0 0 5-19.5M189.9 71.7h16v48.7l23-25.4h19l-27.7 29.5 27.9 37.4h-18.3l-24-33.4v33.4h-16zm76.6 57c0 8.3 6 20.4 20.4 20.4a19 19 0 0 0 17.8-10.8 21 21 0 0 0 .7-18.8c-2.8-6.3-9-11.7-18.7-11.7-12.9 0-20.2 10.4-20.2 20.8zm56.6 33.2h-16v-9.7c-4.3 7.8-13.2 11.7-22.6 11.7-21.4 0-34-16.7-34-35.6 0-21 15.3-35.4 34-35.4 12.2 0 19.7 6.5 22.6 11.8V95h16zm18-54.6H333V95h8.2v-3.8c0-19.9 15.1-21 26.6-21.2v12.3c-4 0-10.6 0-10.6 9.4V95h10.6v12.3h-10.6v54.6h-16zm37.5-35.6h16v48.7l23-25.4h19L409 124.5l27.9 37.4h-18.3l-24-33.4v33.4h-16zm76.6 57c0 8.3 6 20.4 20.4 20.4a19 19 0 0 0 17.7-10.8q2.4-4.3 2.6-9.3a21 21 0 0 0-1.8-9.4c-2.8-6.4-9-11.8-18.7-11.8-12.9 0-20.2 10.4-20.2 20.8zm56.5 33.2h-16v-9.7c-4.2 7.8-13 11.7-22.5 11.7-21.4 0-34-16.7-34-35.6 0-21 15.3-35.4 34-35.4 12.2 0 19.7 6.5 22.6 11.8V95h16z"/></g></svg>