<svg xmlns="http://www.w3.org/2000/svg" fill="#326ce5" viewBox="0 0 24 24"><title>Kubernetes</title><path d="m10.2 14.4-1 2.4a5 5 0 0 1-2-2.6l2.5-.5a.4.4 0 0 1 .5.7m-.8-2.2a.4.4 0 0 0 .1-.7l-2-1.8A5 5 0 0 0 7 13zm1.1-2a.4.4 0 0 0 .7-.3l.2-2.6a5 5 0 0 0-3 1.4zm.8 2.8.7.3.7-.3.2-.8-.5-.6h-.8l-.5.6zm1.5-3.1a.4.4 0 0 0 .7.3l2.1-1.5a5 5 0 0 0-3-1.4zm10.9 6L17.9 23a2 2 0 0 1-1.3.6H7.4A2 2 0 0 1 6 23L.3 16a2 2 0 0 1-.3-1.4l2.1-9q.1-.7.9-1l8.3-4a2 2 0 0 1 1.4 0l8.3 4q.8.3.9 1l2 9q.2.8-.2 1.4m-3.3-2-.2-.1h-.5l-.9-.2-.2-.2h-.2a7 7 0 0 0 0-2.4 7 7 0 0 0-1-2.2l.2-.1v-.3l.8-.5.4-.3h.1q.4-.5.1-.8t-.7 0h-.1l-.3.4-.7.6h-.3l-.2.2a7 7 0 0 0-4.2-2v-.3l-.1-.2v-1l.1-.4V4q0-.5-.5-.6t-.5.6v.6l.1.9-.1.2V6a6 6 0 0 0-4.2 2L7 7.8h-.3l-.7-.6-.3-.4h-.1l-.4-.2-.4.2q-.1.4.2.7v.1l.5.3.7.5.1.3.2.1a7 7 0 0 0-1 4.5h-.2q-.1.3-.2.3l-1 .1h-.4l-.2.1q-.4.2-.4.6.1.5.7.4H4l.5-.2.8-.3.3.1h.2a7 7 0 0 0 3 3.6l-.2.2v.3l-.4.8-.3.4v.1q-.2.5.2.7.3.2.7-.2V20l.2-.4.4-1h.2l.1-.2a7 7 0 0 0 4.6 0l.1.2.3.1.3.9q0 .2.2.4v.2q.3.4.7.2.5-.1.2-.7v-.1l-.3-.4-.5-.8V18a7 7 0 0 0 2.9-3.6h.5q.3 0 .8.2l.5.2h.1q.5 0 .7-.4 0-.4-.4-.6m-4-4.2-2 1.7a.4.4 0 0 0 .2.8l2.6.7-.2-1.6zm-4 5.3-.4-.2-.4.2-1.3 2.3a5 5 0 0 0 3.4 0zm1.9-1.3H14a.4.4 0 0 0-.2.6l1 2.5a5 5 0 0 0 2-2.6z"/></svg>