<svg xmlns="http://www.w3.org/2000/svg" fill="#757575" viewBox="0 0 24 24"><title>Material Design</title><path d="M12 24a12 12 0 0 1-11-7.3 12 12 0 0 1 0-9.4A12 12 0 0 1 7.2 1a12 12 0 0 1 9.4 0q2.1.9 3.8 2.5A12 12 0 0 1 24 12q0 2.5-1 4.7A12 12 0 0 1 12 24m-7.6-5.9V6a10 10 0 0 0-1.6 2.8q-.6 1.5-.6 3.3c0 1.8.2 2.3.6 3.3a10 10 0 0 0 1.6 2.8M5.9 4.4h12.3a10 10 0 0 0-2.9-1.6 10 10 0 0 0-6.6 0 10 10 0 0 0-2.8 1.6M12 14.7l4.1-8.2H8Zm1 2.8h4.5V8.7Zm-6.5 0H11L6.5 8.7Zm8.8 3.7q1.5-.5 2.9-1.6H5.9a10 10 0 0 0 2.8 1.6 10 10 0 0 0 6.6 0m4.3-3a10 10 0 0 0 1.6-2.9A10 10 0 0 0 19.6 6Z"/></svg>