<svg xmlns="http://www.w3.org/2000/svg" fill="#4479a1" viewBox="0 0 24 24"><title>MySQL</title><path d="M16.4 5.5h-.3l.3.3.1.3q.2 0 .2-.3l-.1-.1zM5.8 18.7h-1l-.2-4.4-1.4 4.4h-.7L1 14.3l-.3 4.4H0q0-3 .4-5.5h1.2l1.3 4 1.3-4h1.1q.4 3 .5 5.5m4-4q-.6 3-1.5 4.4-.7 1-1.6 1h-.6v-.6h.4q.4 0 .7-.2l.3-.6-.3-1-1-3h1l.7 2.3L8 18q.6-1.5.8-3.5zm12.3 4h-2.6v-5.5h.9V18H22zm-3.3.1-1-.5.2-.2q.7-.8.7-2.3 0-2.7-2.2-2.7a2 2 0 0 0-1.6.7q-.7.7-.7 2.2t.6 2.2 1.6.6l.7-.1 1.3.8zm-3.3-1.2q-.3-.6-.3-1.7 0-2.1 1.2-2.1.7 0 1 .5t.3 1.7q0 2-1.2 2-.7.1-1-.4m-1.7-.4q0 .6-.5 1.1a2 2 0 0 1-1.4.5q-.7 0-1.5-.5l.2-.5 1.2.3q.5 0 .8-.2l.3-.6q0-.5-.7-.9l-1.1-.6q-.7-.4-.7-1.2t.5-1q.4-.6 1.2-.5t1.4.4l-.2.5-1-.3q-.5 0-.7.3l-.3.5q0 .5.7.8l1.2.7q.6.4.6 1.2m9.4-5.9q-.8 0-1.3.2-.1 0-.2.2v.2l.4.4.4.3.8.4.5.3.2.2-.1-.2-.2-.2-.7-.7-.8-.6.5-.1.6-.1.4-.1-.4-.5-1-.8-.8-.3q-.1 0-.2-.2l-.3-.5-.6-1.1q0-.5-.3-.8a7 7 0 0 0-2.6-2.5l-.8-.3h-.5l-.3-.2c-.4-.3-1.4-.8-1.7-.1-.2.4.3.9.4 1l.4.6V6l.4 1 .3.3.1.3-.1.5a3 3 0 0 0 .2 2.2c0 .2.3.6.7.4q.3-.2.3-.8v-.2l.3.6.9.9q.3.1.5.4l-.2-.2-.3-.4-.8-1.2-.3-.7V9l-.4.5-.2 1q-.3-.1-.4-.5-.3-.8 0-1.8.1-.3.1-.7l-.2-.3-.3-.4-.4-1.2-.3-.5-.4-.5v-.3h.5q.4 0 .7.3l.3.3h.8l1 .5a6 6 0 0 1 2 2.3l.2.4.5 1 .4 1 .7.2.5.2.7.4z"/></svg>