<svg xmlns="http://www.w3.org/2000/svg" fill="#4169e1" viewBox="0 0 24 24"><title>PostgreSQL</title><path d="M23.6 14.7zq-.2-.4-1-.2-2.4.3-2.5 0 2-3.3 3-6.9c.3-1 .8-3.5.1-4.7l-.1-.2A7 7 0 0 0 17.5 0c-1.5 0-2.8.3-3.1.5l-.5-.1-1.3-.1q-1.8 0-3 .8c-1-.3-4.9-1.6-7.3 0Q.3 2.7.4 6.4a32 32 0 0 0 2.7 9.3q.8 1.5 1.7 1.8.8.5 1.9-.7l2-2.2 1.3.4-.2.3c-.4.4-.4.5-1.5.7-.3 0-1.2.2-1.2.8l.1.4c.2.4 1 .6 1 .6q2 .4 3.4-.7c0 2.2 0 4.4.3 5.1.3.5.8 1.9 2.5 1.9h.8q2.6-.6 2.9-3l.6-4.2h.7q1.5 0 2.6-.4c.6-.3 1.8-1 1.6-1.7M2.4 12c-.8-2.5-1.2-5-1.2-5.6Q1 3 2.7 1.8c1.9-1.3 4.9-.5 6.1-.1-2 2-2 5.5-2 5.7v.4q.2 1 0 3A4 4 0 0 0 8 14l-1.9 2.2q-1 .9-1 .5-.7-.2-1.3-1.3-.8-1.2-1.4-3.5m6 5-.5-.1.5-.2c1.3-.2 1.5-.4 2-1l.3-.4v-.1q.4-.2.5 0 .3 0 .4.4v.5c-1 1.2-2.3 1.2-3.2 1m2-4v.2l-.3 1q-1 0-1.8-.8a3 3 0 0 1-.8-2.5q.2-2 0-3v-.3c.4-.2 1.7-1 2.7-.7q.6 0 .8.9c.6 2.7.1 3.8-.3 4.7zm7.4 4.6v.6l-.2.5-.1 1-.2 1q0 2-2.4 2.6c-1.5.3-1.8-.5-2-1.2l-.1-.3q-.2-.9-.2-2.5a8 8 0 0 0-.3-2.7v-1.2q-.2-.7-.8-1h-.7l.3-1 .2-.6c.5-1 1-2.2.4-5.2Q11.4 6 9.5 6q-1.2.2-1.7.6h-.2c0-1 .4-3.1 1.7-4.4l.3-.3h.2q1.1-.9 2.8-.9l1.1.1q3 .8 4 2.4a8 8 0 0 1 1.5 2.4q-2-.1-2.7.8c-1 1.4.6 4.2 1.3 5.5l.3.5q.4.9.8 1.3l.2.3c-.4 0-1.1.3-1 1.7l-.2.8zm1-1.6q0-1 .5-1h.2q1 .7 3.1.2a4 4 0 0 1-2.7 1q-1 0-1.2-.2m.5-9.2-.1 1-.1 1.1v1.4q.4 1.3-.2 2.7l-.1-.4-.4-.6c-.6-1.1-2-3.7-1.3-4.8.4-.5 1.4-.5 2.2-.4m.2 7v-.1h-.1q.9-2 .5-3.5l-.1-1.2V7.8l.2-1.6c0-.5-.6-2-1.7-3.2a8 8 0 0 0-2.7-2q.8-.3 2-.3 3 .1 4.8 2.3l.1.1c.7 1.4-.3 6.3-3 10.6m-8.8-6.1q0 .3-.6.4l-.6-.3-.1-.3v-.2h.7q.5 0 .6.4m8-.5-.2.4-.4.2H18q-.5-.1-.6-.4T18 7z"/></svg>