<svg xmlns="http://www.w3.org/2000/svg" width="800" height="800" preserveAspectRatio="xMidYMid" viewBox="-0.5 0 257 257"><path fill="#f60" d="M245.7 102.4h-81.9a10 10 0 0 1-10.2-10.2v-82A10 10 0 0 0 143.3.2h-30.7a10 10 0 0 0-10.2 10.2v81.9A10 10 0 0 1 92 102.4H61.4a10 10 0 0 1-10.2-10.2v-82A10 10 0 0 0 40.9 0H10.2A10 10 0 0 0 0 10.3v235.5a10 10 0 0 0 10.3 10.3h235.4a10 10 0 0 0 10.3-10.3v-133a10 10 0 0 0-10.3-10.4m-41.1 87a15.3 15.3 0 0 1-15.4 15.4h-20.5a15.3 15.3 0 0 1-15.3-15.4V169a15.3 15.3 0 0 1 15.3-15.4h20.5a15.3 15.3 0 0 1 15.4 15.4z"/></svg>