<svg xmlns="http://www.w3.org/2000/svg" width="800" height="800" fill="none" viewBox="0 0 32 32"><path fill="#53c1de" d="M18.7 16c0-1.5-1.2-2.6-2.7-2.6a2.6 2.6 0 0 0-2.7 2.6c0 1.4 1.2 2.6 2.7 2.6s2.7-1.2 2.7-2.6"/><path fill="#53c1de" fill-rule="evenodd" d="M24.7 11.2c.6-2.3 1.3-6.4-1.2-7.8S17.7 4.7 16 6.3C14.3 4.7 11 2 8.5 3.4S6.7 9 7.3 11.1C5 11.8 1 13.1 1 16c0 2.8 4 4.3 6.3 5-.6 2.2-1.3 6.2 1.2 7.6s5.8-1.2 7.6-2.8c1.7 1.6 4.9 4.2 7.4 2.8s1.8-5.5 1.3-7.7c2.2-.7 6.2-2.1 6.2-5 0-2.7-4-4.1-6.3-4.7m-.3 8.5L23 16l1.5-3.6c1.6.4 5.3 1.5 5.3 3.6 0 2-3.5 3.2-5.3 3.7M23 27.5c-2 1-4.7-1.4-6-2.6l2.6-3.1q2.1-.1 4-.6c.4 1.6 1.2 5.3-.6 6.3M9 27.5c-1.8-1-1-4.6-.6-6.3q2 .5 4 .6 1.4 1.7 2.7 3c-1.1 1.1-4.2 3.8-6 2.7M2.3 16c0-2.1 3.6-3.2 5.4-3.7Q8.2 14.1 9 16l-1.5 3.7C6 19.3 2.3 18.1 2.3 16M9 4.5c1.9-1 4.8 1.5 6 2.7q-1.3 1.3-2.5 3l-4 .6C8 9 7.2 5.6 9 4.5m11.3 7 2.7.5-1 2.5q-.7-1.5-1.7-3M16 8l1.8 2.1h-3.6zM10 14.5l-1-2.5 2.7-.4zm1.8 6L8.9 20l1-2.5zM16 24l-1.8-2.1h3.6q-.9 1.2-1.8 2m6.2-6.6 1 2.6-2.8.4zm-3.5 3.2h-5.4q-1.6-2.2-2.8-4.6a35 35 0 0 1 2.8-4.6h5.4q1.6 2.2 2.8 4.6-1.2 2.4-2.8 4.6m4.1-16.1c1.9 1 1 4.7.7 6.3l-4-.6-2.6-3c1.3-1.2 4-3.8 6-2.7" clip-rule="evenodd"/></svg>