<svg xmlns="http://www.w3.org/2000/svg" width="800" height="800" fill="none" viewBox="0 0 32 32"><path fill="#764abc" d="M21.8 21.6c1-.2 2-1.1 1.9-2.2 0-1.1-1-2-2.1-2h-.1c-1.2 0-2.1 1-2 2.1q0 .9.5 1.4a14 14 0 0 1-6.2 6q-3 1.5-6.3 1-2.6-.3-3.8-2.1a5 5 0 0 1-.4-5.9A9 9 0 0 1 6 17L5.4 15c-5.5 4-5 9.3-3.2 11.8 1.2 1.9 3.8 3 6.6 3q1.2 0 2.3-.2 7.5-1.6 10.7-8m6.7-4.7a16 16 0 0 0-12-5.2h-.7q-.5-1-1.8-1.1h-.1c-1.2 0-2.1 1-2 2.2 0 1.1 1 2 2 2h.1q1.4-.1 2-1.3h.6q4.4 0 8.1 2.5 3 1.8 4 4.8 1 2.3 0 4.4-1.6 3-5.2 3-2.5-.1-3.8-.7L18 28.8a12 12 0 0 0 5 1.2c3.6 0 6.3-2 7.3-4 1.1-2.2 1-6-1.8-9.1M9.1 22.2c0 1.1 1 2 2.2 2q2-.2 2-2.2c0-1-.9-2-2-2h-.4a14 14 0 0 1-2-8.3A10 10 0 0 1 11.2 6c1-1.4 3.2-2 4.7-2.1 4 0 5.7 4.9 5.8 6.9q1 .1 2 .5c-.5-6-4.3-9.2-8-9.2A9 9 0 0 0 8 8c-1.8 4.8-.7 9.5 1.5 13.1q-.3.5-.3 1"/></svg>