<svg xmlns="http://www.w3.org/2000/svg" width="144" height="144"><path fill="#8bc34b" d="M118 11c2 1 2 1 2.9 3.1l.9 2.8 1 3.1c7.4 23.4 16.4 52.4 5.2 76l-1.3 2.9a63 63 0 0 1-35 31c-15 5.2-32.5 3.1-46.6-3.2A63 63 0 0 1 15 94l-1-2.3A64 64 0 0 1 16 48l1-2.6a62 62 0 0 1 32.7-30.1c13.3-5.2 30-5.5 43.5-.6A149 149 0 0 1 107 22l4 2z"/><path fill="#fdfefc" d="m117 28 2 1q1.5 4.4 2.5 8.8l.7 2.6c3.6 14.5 6.6 31 1.8 45.6l-.8 2.5a31 31 0 0 1-17.5 19.2c-11.8 4-24.2 3.5-36.5 3.4L51 111c3.3-2.2 6.6-3.2 10.4-4.3 20.8-6.4 35.3-15.8 46.3-35 1.1-2.3 1.8-4.2 2.3-6.7l-1.1 1.8a78 78 0 0 1-50.2 33.9c-14 3.9-14 3.9-18.7 2.3a24 24 0 0 1-7.4-17.9c.2-9 4.2-16.5 10.4-23.1 8.3-7 18.5-8 28.9-9A58 58 0 0 0 114 33z"/><path fill="#f7fbf2" d="M41 108c3.1.4 3.1.4 6 1 .7 2.3.7 2.3 1 5-1.1 1.9-1.1 1.9-3 3-2.7-.3-2.7-.3-5-1-.6-2.9-.6-2.9-1-6z"/><path fill="#a1ce6c" d="M111 61c1.3 4 .3 5-1.4 8.7l-1.5 3L107 75c-1.2-1.7-1.2-1.7-2-4 1.1-2.6 1.1-2.6 2.9-5.2l1.7-2.8z"/></svg>