<svg xmlns="http://www.w3.org/2000/svg" viewBox="0 0 80 80" fill="none">
  <path d="M12 20 C12 20 12 16 40 16 C68 16 68 20 68 20" stroke="#1A1714" stroke-width="2.5"/>
  <path d="M12 20 L12 60 C12 60 12 64 40 64 C68 64 68 60 68 60 L68 20" stroke="#1A1714" stroke-width="2.5" fill="none"/>
  <path d="M12 20 C12 24 12 24 40 24 C68 24 68 20 68 20" stroke="#1A1714" stroke-width="2"/>
  <path d="M12 34 C12 38 12 38 40 38 C68 38 68 34 68 34" stroke="#1A1714" stroke-width="1.5" opacity="0.5"/>
  <path d="M12 48 C12 52 12 52 40 52 C68 52 68 48 68 48" stroke="#1A1714" stroke-width="1.5" opacity="0.5"/>
</svg>
