<svg xmlns="http://www.w3.org/2000/svg" viewBox="0 0 80 80" fill="none">
  <path d="M20 18 C20 18 16 20 16 22 C16 24 20 26 40 26 C60 26 64 24 64 22 C64 20 60 18 40 18 C20 18 20 18 20 18 Z" stroke="#1A1714" stroke-width="2.5" fill="none"/>
  <path d="M16 22 L16 58 C16 60 20 62 40 62 C60 62 64 60 64 58 L64 22" stroke="#1A1714" stroke-width="2.5" fill="none"/>
  <path d="M16 34 C16 36 20 38 40 38 C60 38 64 36 64 34" stroke="#1A1714" stroke-width="2" opacity="0.6"/>
  <path d="M16 46 C16 48 20 50 40 50 C60 50 64 48 64 46" stroke="#1A1714" stroke-width="2" opacity="0.6"/>
</svg>
