<svg width="80px" height="80px" viewBox="0 0 80 80" xmlns="http://www.w3.org/2000/svg">
<defs>
<linearGradient id="lg-dynamodb" x1="0%" y1="100%" x2="100%" y2="0%">
<stop stop-color="#2E27AD" offset="0%"></stop>
<stop stop-color="#527FFF" offset="100%"></stop>
</linearGradient>
</defs>
<g stroke="none" stroke-width="1" fill="none" fill-rule="evenodd">
<g fill="url(#lg-dynamodb)">
<rect x="0" y="0" width="80" height="80"></rect>
</g>
<path d="M52.085,54.850 C48.747,57.549 41.744,58.975 35.043,58.975 C28.341,58.975 21.336,57.548 17.999,54.849 L17.999,60.284 L18.000,60.284 C18.000,62.995 24.999,66.016 35.043,66.016 C45.079,66.016 52.074,62.999 52.085,60.290 L52.085,54.850 Z M52.086,44.522 L54.086,44.511 L54.086,44.522 C54.086,45.730 53.481,46.858 52.303,47.890 C53.731,49.147 54.086,50.380 54.086,51.257 C54.086,51.263 54.085,51.268 54.085,51.274 L54.085,60.284 L54.086,60.284 C54.086,65.295 44.274,68 35.043,68 C25.834,68 16.049,65.307 16.003,60.319 C16.003,60.314 16,60.309 16,60.304 L16,51.254 C16,51.252 16.002,51.249 16.002,51.246 C16.005,50.369 16.360,49.141 17.786,47.887 C16.369,46.635 16.01,45.414 16.001,44.544 L16.002,44.544 C16.002,44.540 16,44.537 16,44.533 L16,35.483 C16,35.480 16.002,35.477 16.002,35.474 C16.005,34.596 16.361,33.369 17.787,32.117 C16.369,30.864 16.01,29.642 16.001,28.772 L16.002,28.772 C16.002,28.768 16,28.764 16,28.761 L16,19.712 C16,19.709 16.002,19.706 16.002,19.703 C16.019,14.699 25.819,12 35.043,12 C40.254,12 45.260,12.828 48.777,14.272 L48.012,16.105 C44.729,14.757 40.002,13.983 35.043,13.983 C24.999,13.983 18.000,17.004 18.000,19.717 C18.000,22.429 24.999,25.450 35.043,25.450 C35.314,25.453 35.579,25.450 35.847,25.440 L35.931,27.422 C35.635,27.433 35.339,27.433 35.043,27.433 C28.341,27.433 21.336,26.006 18,23.307 L18,28.740 L18.000,28.740 L18.000,28.763 C18.010,29.803 19.077,30.711 19.971,31.289 C22.661,33.004 27.481,34.175 32.856,34.418 L32.765,36.400 C27.320,36.153 22.552,35.023 19.483,33.291 C18.727,33.857 18.000,34.621 18.000,35.488 C18.000,38.200 24.999,41.221 35.043,41.221 C36.028,41.221 37.006,41.188 37.951,41.123 L38.090,43.101 C37.100,43.170 36.074,43.205 35.043,43.205 C28.341,43.205 21.336,41.777 18,39.079 L18,44.511 L18.000,44.511 C18.010,45.574 19.077,46.482 19.971,47.060 C23.047,49.023 28.823,50.245 35.043,50.245 L35.483,50.245 L35.483,52.228 L35.043,52.228 C28.724,52.228 22.981,51.055 19.469,49.072 C18.717,49.637 18.000,50.397 18.000,51.257 C18.000,53.969 24.999,56.991 35.043,56.991 C45.079,56.991 52.074,53.974 52.085,51.264 L52.085,51.254 L52.085,51.253 C52.083,50.391 51.363,49.631 50.609,49.066 C50.121,49.343 49.598,49.610 49.003,49.855 L48.237,48.022 C48.963,47.723 49.593,47.401 50.110,47.062 C51.012,46.474 52.086,45.554 52.086,44.522 L52.086,44.522 Z M60.652,30.016 L55.048,30.016 C54.717,30.016 54.406,29.854 54.221,29.582 C54.034,29.310 53.996,28.964 54.118,28.659 L57.527,20.138 L44.618,20.138 L38.618,32.040 L45.000,32.040 C45.319,32.040 45.619,32.191 45.808,32.446 C45.995,32.702 46.050,33.030 45.953,33.333 L40.257,51.089 L60.652,30.016 Z M63.721,29.712 L38.722,55.539 C38.527,55.739 38.265,55.844 38.000,55.844 C37.824,55.844 37.647,55.799 37.489,55.705 C37.089,55.469 36.906,54.992 37.047,54.551 L43.633,34.023 L37.000,34.023 C36.653,34.023 36.332,33.846 36.149,33.553 C35.967,33.260 35.950,32.895 36.106,32.588 L43.106,18.702 C43.275,18.366 43.621,18.154 44.000,18.154 L59.000,18.154 C59.331,18.154 59.642,18.317 59.827,18.588 C60.014,18.861 60.052,19.206 59.930,19.512 L56.521,28.033 L62.999,28.033 C63.399,28.033 63.762,28.271 63.919,28.636 C64.076,29.002 63.998,29.425 63.721,29.712 L63.721,29.712 Z M19.454,60.674 C20.871,61.472 22.655,62.144 24.756,62.667 L25.244,60.743 C23.345,60.270 21.685,59.649 20.442,58.949 L19.454,60.674 Z M24.756,46.798 L25.244,44.875 C23.345,44.401 21.685,43.780 20.442,43.080 L19.454,44.804 C20.871,45.603 22.654,46.274 24.756,46.798 L24.756,46.798 Z M19.454,28.935 L20.442,27.210 C21.683,27.911 23.344,28.530 25.244,29.006 L24.756,30.929 C22.652,30.404 20.869,29.733 19.454,28.935 L19.454,28.935 Z" fill="#FFFFFF"></path>
</g>
</svg>