<svg role="img" viewBox="0 0 24 24" xmlns="http://www.w3.org/2000/svg"><title>Raspberry Pi</title><path d="m19.89 10.89-.1726-.3028c.0068-2.17-1.00-3.06-2.17-3.73.356-.0938.72-.1711.82-.6182.61-.1566.73-.4398.80-.7398.16-.1066.69-.4061.63-.9211.29-.2069.46-.4725.38-.8487.32-.3515.40-.6419.27-.9096.38-.4805.21-.7295.05-.9817.28-.5254.03-1.08-.7758-.9944-.3221-.4733-1.02-.3659-1.13-.3637-.1215-.1519-.2819-.2821-.7755-.219-.3197-.2851-.6771-.2364-1.04-.0964-.4378-.3403-.7275-.0675-1.05.0356-.53-.1706-.6513.06-.9117.15-.5781-.1203-.7538.14-1.03.4182l-.3224-.0063c-.8719.50-1.30 1.53-1.45 2.06-.1536-.5299-.5858-1.56-1.45-2.06l-.3223.00C9.94.501 9.76.2394 9.18.3597 8.92.2646 8.80.030 8.27.2015c-.2172-.0677-.417-.2084-.6522-.2012l.0004.00C7.50.0041 7.36.049 7.21.166c-.3688-.1401-.7262-.1887-1.04.0964-.4936-.0631-.654.06-.7756.21C5.28.4791 4.58.3717 4.26.845c-.8096-.0943-1.06.4691-.7756.99-.1653.25-.3366.50.05.98-.1367.26-.0519.55.2703.90-.085.37.0822.64.3819.84-.0561.51.479.81.639.92.061.30.189.58.801.73.100.44.468.52.824.61-1.17.6737-2.18 1.56-2.17 3.73l-.1724.30c-1.34.8082-2.56 3.40-.6648 5.51.124.66.3319 1.13.5171 1.66.2769 2.11 2.08 3.10 2.56 3.22.6984.52 1.44 1.02 2.44 1.36.949.96 1.97 1.33 3.01 1.33.0152 0 .0306.00.0457 0 1.03.0006 2.06-.3668 3.01-1.33 1.00-.3483 1.75-.8456 2.44-1.36.4766-.1173 2.28-1.10 2.56-3.22.1851-.5253.39-1 .517-1.66 1.89-2.11.6843-4.70-.6649-5.51zm-1.03-.3715c-.0704.87-4.63-3.05-3.84-3.18 2.13-.3558 3.91.896 3.84 3.18zm-2.01 4.36c-1.14.7409-2.80.2626-3.69-1.06-.8928-1.33-.6858-3.01.4623-3.75 1.14-.7409 2.80-.2627 3.69 1.06.892 1.33.6858 3.01-.4623 3.75zM13.65 1.37c.0396.19.0843.32.135.35.253-.272.46-.5506.78-.8123.00.1537-.0776.32.1169.44.1752-.2356.41-.4459.72-.6244-.1514.26-.026.34.0554.44.24-.2059.46-.4144.91-.5759-.121.14-.2902.29-.1108.46.2473-.1544.49-.3086 1.08-.4183-.1323.14-.4059.29-.2401.44.3104-.1186.65-.2047 1.03-.2546-.182.14-.3337.29-.1846.41.3323-.1022.78-.2398 1.23-.1212l-.2832.28c-.0314.03.6623.02 1.12.0364-.167.23-.3375.45-.437.85.0454.04.2723.02.4862 0-.2194.46-.6004.57-.6893.77.134.10.32.07.523.00-.158.32-.4892.54-.7509.81.0662.04.181.07.455.04-.2418.25-.5339.49-.8802.70.0614.07.2722.06.4678.07-.3136.30-.7173.46-1.09.6668.18.1288.32.0988.46.097-.2676.21-.7225.33-1.14.4668.08.1249.16.1589.33.194-.447.24-1.08.1343-1.26.2607.04.1243.16.2053.31.2728-.7197.04-2.68-.0262-3.06-1.51.7367-.8094 2.08-1.75 4.39-2.93-1.79.6022-3.42 1.40-4.78 2.50-1.59-.7436-.4965-2.61.283-3.36zm-1.61 5.37c1.13-.0123 2.53.8325 2.53 1.62-.005.70-.9851 1.27-2.52 1.26-1.50-.0177-2.51-.7148-2.51-1.39.003-.5603 1.22-1.52 2.50-1.49zm-5.76-.6006c.1717-.0351.25-.0692.33-.194-.4223-.1327-.8772-.247-1.14-.4668.14.0018.27.0318.46-.097-.3783-.2008-.782-.3599-1.09-.6668.19-.0048.40-.002.46-.0728-.3462-.2113-.6383-.4463-.8801-.7033.27.0325.38.0045.45-.0425-.2617-.264-.593-.487-.7509-.8123.20.069.38.0954.52-.006-.089-.1977-.47-.3142-.6894-.776.21.020.44.045.48 0-.0994-.3985-.2698-.6226-.4369-.8547.45-.0067 1.15.0018 1.12-.0364l-.2831-.2849c.4472-.1186.90.019 1.23.1213.14-.1159-.0026-.2626-.1847-.4123.38.05.72.1361 1.03.254.16-.1476-.1076-.2951-.24-.4426.58.1097.83.2639 1.08.4183.17-.1694.01-.3133-.1108-.4607.44.1615.67.37.91.575.08-.1082.20-.1875.05-.4486.31.1785.55.3888.72.6244.19-.122.11-.2888.11-.4426.32.2618.53.540.78.812.05-.0366.09-.161.13-.3577.77.7448 1.88 2.62.2831 3.36-1.35-1.10-2.98-1.90-4.78-2.50 2.31 1.17 3.65 2.12 4.39 2.93-.3773 1.48-2.34 1.55-3.06 1.51.1473-.0676.27-.1485.31-.2728-.1806-.1264-.8209-.0134-1.26-.2607zm2.81 1.13c.7881.13-3.77 4.05-3.84 3.18-.0719-2.28 1.70-3.53 3.84-3.18zm-4.84 8.75c-1.10-.8789-1.46-3.45.5901-4.60 1.23-.3273.41 5.05-.5901 4.60zm4.26 4.59c-.6257.37-2.14.2187-3.22-1.30-.7283-1.28-.6345-2.58-.123-2.97.7648-.4589 1.94.1609 2.85 1.20.7923.94 1.15 2.59.4923 3.07zm-1.24-5.60c-1.14-.7409-1.35-2.42-.4623-3.75.8928-1.33 2.54-1.80 3.69-1.06 1.14.7409 1.35 2.42.4623 3.75-.8926 1.33-2.54 1.80-3.69 1.06zm4.79 8.22c-1.37.0584-2.72-1.11-2.70-1.51-.0206-.594 1.67-1.05 2.78-1.03 1.11-.0479 2.60.3531 2.60.8851.01.5166-1.35 1.68-2.68 1.66zm2.75-5.85c.0081 1.38-1.22 2.52-2.75 2.52-1.53.0073-2.77-1.11-2.78-2.50v-.0265c-.008-1.38 1.22-2.52 2.75-2.52 1.53-.0073 2.77 1.11 2.78 2.50a.7794.77 0 0 1 .0001.02zm3.85 2.00c-1.18 1.62-2.79 1.68-3.38 1.23-.6255-.5811-.148-2.38.7094-3.37v-.0003c.9812-1.09 2.03-1.80 2.76-1.24.4919.48.7805 2.30-.0807 3.38zm1.07-3.43c-1.00.4413-1.82-4.93-.5901-4.61 2.05 1.15 1.69 3.73.590 4.61zm-.0256-8.32h.2985v-.5304h.2986c.1502 0 .2053.06.2262.20.0152.10.0113.23.0477.32h.2984c-.0533-.0763-.0515-.2358-.0571-.3213-.0097-.1373-.0513-.2796-.1977-.3176v-.0037c.1502-.061.21-.1807.21-.341 0-.2048-.1539-.3738-.3974-.3738h-.732v1.35zm.2985-1.12h.3269c.1333 0 .2054.05.2054.18 0 .1369-.0721.19-.2054.19H20.03v-.3822zm-1.03.4633c0 .7009.56 1.26 1.26 1.26s1.26-.5684 1.26-1.26c0-.7013-.5683-1.26-1.26-1.26-.7013 0-1.26.5684-1.26 1.26zm2.32 0c0 .5845-.4737 1.05-1.05 1.05s-1.05-.4735-1.05-1.05c0-.5849.47-1.05 1.05-1.05s1.05.473 1.05 1.05z"/></svg>