<svg width="80px" height="80px" viewBox="0 0 80 80" xmlns="http://www.w3.org/2000/svg">
<defs>
<linearGradient id="lg-route53" x1="0%" y1="100%" x2="100%" y2="0%">
<stop stop-color="#4D27A8" offset="0%"></stop>
<stop stop-color="#A166FF" offset="100%"></stop>
</linearGradient>
</defs>
<g stroke="none" stroke-width="1" fill="none" fill-rule="evenodd">
<g fill="url(#lg-route53)">
<rect x="0" y="0" width="80" height="80"></rect>
</g>
<path d="M48.69,40.67 C49.43,41.36 49.80,42.27 49.80,43.42 C49.80,44.67 49.35,45.67 48.45,46.42 C47.55,47.17 46.34,47.54 44.82,47.54 C43.62,47.54 42.44,47.28 41.26,46.77 L41.26,45.24 C42.65,45.70 43.84,45.93 44.82,45.93 C45.79,45.93 46.54,45.71 47.06,45.28 C47.58,44.85 47.84,44.23 47.84,43.42 C47.84,41.88 46.87,41.11 44.92,41.11 C44.30,41.11 43.70,41.14 43.10,41.20 L43.10,39.94 L47.12,35.55 L41.45,35.55 L41.45,33.98 L49.24,33.98 L49.24,35.50 L45.30,39.67 C45.36,39.66 45.43,39.65 45.49,39.65 L45.68,39.65 C46.95,39.65 47.95,39.99 48.69,40.67 M37.57,40.34 C38.35,41.07 38.74,42.07 38.74,43.34 C38.74,44.60 38.28,45.61 37.38,46.38 C36.47,47.15 35.28,47.54 33.80,47.54 C32.50,47.54 31.28,47.28 30.14,46.77 L30.14,45.24 C31.56,45.70 32.77,45.93 33.78,45.93 C34.75,45.93 35.49,45.71 36.01,45.27 C36.53,44.83 36.78,44.19 36.78,43.36 C36.78,42.46 36.54,41.80 36.06,41.39 C35.57,40.98 34.78,40.78 33.68,40.78 C32.89,40.78 31.90,40.84 30.72,40.97 L30.72,39.71 L31.08,33.98 L38.07,33.98 L38.07,35.55 L32.69,35.55 L32.44,39.44 C33.14,39.31 33.77,39.25 34.33,39.25 C35.71,39.25 36.79,39.61 37.57,40.34 M51.95,54.37 C47.10,55.25 42.85,57.22 40,58.83 C37.14,57.22 32.89,55.25 28.04,54.37 C26.67,54.13 19.86,52.71 19.86,48.77 C19.86,46.95 20.52,45.74 21.77,43.58 C23.27,40.99 25.13,37.78 25.13,33.15 C25.13,29.84 24.27,26.67 22.55,23.71 C22.76,23.46 22.96,23.21 23.17,22.96 C25.70,24.23 28.34,24.87 31.03,24.87 C34.31,24.87 37.32,24.01 40,22.31 C42.67,24.01 45.68,24.87 48.96,24.87 C51.65,24.87 54.29,24.23 56.82,22.96 C57.03,23.21 57.23,23.46 57.44,23.71 C55.72,26.67 54.86,29.84 54.86,33.15 C54.86,37.78 56.72,40.99 58.22,43.58 C59.47,45.74 60.13,46.95 60.13,48.77 C60.13,52.71 53.32,54.13 51.95,54.37 M56.86,33.15 C56.86,29.99 57.75,26.97 59.50,24.15 C59.73,23.79 59.70,23.32 59.43,22.99 C58.92,22.37 58.39,21.71 57.86,21.06 C57.56,20.68 57.03,20.58 56.60,20.81 C54.14,22.18 51.57,22.87 48.96,22.87 C45.82,22.87 43.07,22.02 40.56,20.28 C40.22,20.05 39.77,20.05 39.43,20.28 C36.92,22.02 34.17,22.87 31.03,22.87 C28.42,22.87 25.85,22.18 23.39,20.81 C22.96,20.58 22.43,20.68 22.13,21.06 C21.60,21.71 21.07,22.37 20.56,22.99 C20.29,23.32 20.26,23.79 20.49,24.15 C22.24,26.97 23.13,29.99 23.13,33.15 C23.13,37.24 21.42,40.20 20.04,42.58 C18.69,44.90 17.86,46.44 17.86,48.77 C17.86,54.16 25.38,55.93 27.68,56.34 C32.54,57.22 36.79,59.28 39.49,60.85 C39.65,60.94 39.82,60.99 40,60.99 C40.17,60.99 40.34,60.94 40.50,60.85 C43.20,59.28 47.45,57.22 52.31,56.34 C54.61,55.93 62.13,54.16 62.13,48.77 C62.13,46.44 61.30,44.90 59.95,42.57 C58.57,40.20 56.86,37.24 56.86,33.15 M52.99,60.15 C46.86,61.25 41.72,64.55 40,65.76 C38.27,64.55 33.13,61.25 27.00,60.15 C14.93,57.98 14,50.89 14,48.77 C14,45.28 15.37,42.92 16.69,40.63 C17.96,38.45 19.26,36.20 19.26,33.15 C19.26,28.33 16.48,24.93 15.11,23.54 C16.55,21.78 20.20,17.34 22.00,15.02 C24.72,17.59 27.89,19.00 31.03,19.00 C34.50,19.00 37.38,17.58 40,14.56 C42.61,17.58 45.49,19.00 48.96,19.00 C52.10,19.00 55.27,17.59 57.99,15.02 C59.79,17.34 63.44,21.78 64.88,23.54 C63.51,24.93 60.73,28.33 60.73,33.15 C60.73,36.20 62.03,38.45 63.30,40.63 C64.62,42.92 66,45.28 66,48.77 C66,50.89 65.06,57.98 52.99,60.15 M65.03,39.63 C63.79,37.50 62.73,35.66 62.73,33.15 C62.73,27.86 66.84,24.44 66.88,24.41 C67.09,24.24 67.22,24.00 67.25,23.73 C67.28,23.47 67.2,23.20 67.03,22.99 C66.96,22.91 60.40,14.97 58.90,12.91 C58.73,12.67 58.45,12.52 58.15,12.50 C57.86,12.48 57.57,12.60 57.36,12.81 C54.84,15.51 51.86,16.99 48.96,16.99 C45.76,16.99 43.24,15.57 40.79,12.37 C40.41,11.87 39.58,11.87 39.20,12.37 C36.75,15.57 34.23,16.99 31.03,16.99 C28.13,16.99 25.15,15.51 22.63,12.81 C22.42,12.60 22.13,12.47 21.84,12.50 C21.54,12.52 21.26,12.67 21.09,12.91 C19.59,14.97 13.03,22.91 12.96,22.99 C12.8,23.20 12.72,23.47 12.74,23.73 C12.77,24.00 12.90,24.24 13.11,24.41 C13.15,24.44 17.26,27.86 17.26,33.15 C17.26,35.66 16.20,37.50 14.96,39.63 C13.57,42.03 12,44.74 12,48.77 C12,55.48 17.47,60.47 26.65,62.12 C33.55,63.36 39.33,67.74 39.39,67.79 C39.57,67.93 39.78,68 40,68 C40.21,68 40.42,67.93 40.60,67.79 C40.66,67.74 46.42,63.37 53.34,62.12 C62.52,60.47 68,55.48 68,48.77 C68,44.74 66.42,42.03 65.03,39.63" fill="#FFFFFF"></path>
</g>
</svg>