<svg width="80px" height="80px" viewBox="0 0 80 80" xmlns="http://www.w3.org/2000/svg">
<defs>
<linearGradient id="lg-sqs" x1="0%" y1="100%" x2="100%" y2="0%">
<stop stop-color="#B0084D" offset="0%"></stop>
<stop stop-color="#FF4F8B" offset="100%"></stop>
</linearGradient>
</defs>
<g stroke="none" stroke-width="1" fill="none" fill-rule="evenodd">
<g fill="url(#lg-sqs)">
<rect x="0" y="0" width="80" height="80"></rect>
</g>
<path d="M28.716,43.687 L31.718,40.721 C31.907,40.535 32.013,40.283 32.014,40.019 C32.015,39.756 31.910,39.502 31.722,39.315 L28.720,36.316 L27.302,37.718 L28.589,39.005 L24.008,39.005 L24.008,40.994 L28.605,40.994 L27.306,42.277 L28.716,43.687 Z M51.627,43.778 L55.630,40.793 C55.880,40.605 56.029,40.311 56.029,39.999 C56.029,39.685 55.880,39.390 55.629,39.202 L51.626,36.221 L50.425,37.812 L52.026,39.005 L48.024,39.005 L48.024,40.994 L52.025,40.994 L50.424,42.187 L51.627,43.778 Z M35.208,40 C35.208,42.110 34.842,44.101 34.160,45.833 C35.960,45.141 37.990,44.795 40.019,44.795 C42.047,44.795 44.077,45.141 45.877,45.833 C45.195,44.101 44.830,42.110 44.830,40 C44.830,37.889 45.195,35.899 45.877,34.166 C42.277,35.549 37.760,35.549 34.160,34.166 C34.842,35.899 35.208,37.889 35.208,40 L35.208,40 Z M30.306,49.651 C30.110,49.457 30.012,49.202 30.012,48.948 C30.012,48.693 30.110,48.439 30.306,48.245 C32.122,46.440 33.206,43.357 33.206,40 C33.206,36.642 32.122,33.559 30.306,31.754 C30.110,31.560 30.012,31.306 30.012,31.051 C30.012,30.797 30.110,30.542 30.306,30.348 C30.697,29.960 31.329,29.960 31.720,30.348 C35.598,34.201 44.440,34.201 48.317,30.348 C48.708,29.960 49.341,29.960 49.732,30.348 C49.927,30.542 50.025,30.797 50.025,31.051 C50.025,31.306 49.927,31.560 49.732,31.754 C47.916,33.559 46.831,36.642 46.831,40 C46.831,43.357 47.916,46.440 49.732,48.245 C49.927,48.439 50.025,48.693 50.025,48.948 C50.025,49.202 49.927,49.457 49.732,49.651 C49.537,49.845 49.281,49.942 49.025,49.942 C48.768,49.942 48.512,49.845 48.317,49.651 C44.440,45.798 35.598,45.798 31.720,49.651 C31.329,50.039 30.697,50.039 30.306,49.651 L30.306,49.651 Z M66.000,40.004 C66.000,39.078 65.637,38.207 64.978,37.552 C64.297,36.875 63.403,36.538 62.509,36.538 C61.616,36.538 60.721,36.875 60.041,37.552 C58.679,38.904 58.679,41.104 60.041,42.457 C61.402,43.809 63.615,43.810 64.978,42.457 C65.637,41.802 66.000,40.931 66.000,40.004 L66.000,40.004 Z M66.393,43.863 C65.322,44.927 63.916,45.459 62.509,45.459 C61.102,45.459 59.696,44.927 58.626,43.863 C56.483,41.735 56.483,38.273 58.626,36.146 C60.768,34.016 64.252,34.018 66.393,36.146 C68.535,38.273 68.535,41.735 66.393,43.863 L66.393,43.863 Z M20.980,40.027 C20.980,39.101 20.616,38.230 19.957,37.575 C19.297,36.919 18.421,36.558 17.488,36.558 C16.557,36.558 15.680,36.919 15.020,37.575 C14.360,38.230 13.998,39.101 13.998,40.027 C13.998,40.953 14.360,41.824 15.020,42.480 C16.340,43.790 18.638,43.790 19.957,42.480 C20.616,41.824 20.980,40.953 20.980,40.027 L20.980,40.027 Z M21.372,43.886 C20.301,44.950 18.895,45.482 17.488,45.482 C16.082,45.482 14.676,44.950 13.605,43.886 C11.464,41.758 11.464,38.296 13.605,36.169 C15.747,34.041 19.230,34.041 21.372,36.169 C23.513,38.296 23.513,41.758 21.372,43.886 L21.372,43.886 Z M54.895,54.856 C50.901,58.826 45.588,61.011 39.939,61.011 C34.287,61.011 28.976,58.826 24.981,54.856 C22.241,52.134 20.733,48.882 19.951,46.634 L18.060,47.284 C18.911,49.730 20.557,53.273 23.566,56.261 C27.939,60.607 33.753,63 39.939,63 C46.124,63 51.937,60.607 56.310,56.261 C58.837,53.753 60.849,50.563 61.979,47.281 L60.086,46.637 C59.053,49.638 57.210,52.557 54.895,54.856 L54.895,54.856 Z M19.950,33.366 L18.061,32.714 C19.271,29.250 21.229,26.060 23.572,23.733 C27.943,19.391 33.755,17 39.939,17 C46.123,17 51.934,19.391 56.304,23.733 C58.771,26.183 60.839,29.456 61.977,32.714 L60.088,33.366 C59.044,30.383 57.150,27.384 54.889,25.138 C50.898,21.171 45.587,18.988 39.939,18.988 C34.289,18.988 28.980,21.171 24.987,25.138 C22.854,27.259 21.065,30.181 19.950,33.366 L19.950,33.366 Z" fill="#FFFFFF"></path>
</g>
</svg>